<mxfile host="Electron" modified="2023-07-31T01:47:09.106Z" agent="Mozilla/5.0 (Windows NT 10.0; Win64; x64) AppleWebKit/537.36 (KHTML, like Gecko) draw.io/21.5.1 Chrome/112.0.5615.204 Electron/24.6.0 Safari/537.36" etag="nCMQpuTiQjDCU-Pt_cd3" version="21.5.1" type="device">
  <diagram name="第 1 页" id="1ZpUAcWZg-NvVyhOLKZc">
    <mxGraphModel dx="1863" dy="611" grid="1" gridSize="10" guides="1" tooltips="1" connect="1" arrows="1" fold="1" page="1" pageScale="1" pageWidth="827" pageHeight="1169" math="0" shadow="0">
      <root>
        <mxCell id="0" />
        <mxCell id="1" parent="0" />
        <mxCell id="BVHzjgU8pjvCvItrUbvP-9" style="edgeStyle=orthogonalEdgeStyle;rounded=0;sketch=1;hachureGap=4;jiggle=2;curveFitting=1;orthogonalLoop=1;jettySize=auto;html=1;entryX=0;entryY=0.5;entryDx=0;entryDy=0;fontFamily=Architects Daughter;fontSource=https%3A%2F%2Ffonts.googleapis.com%2Fcss%3Ffamily%3DArchitects%2BDaughter;fontSize=16;" edge="1" parent="1" source="BVHzjgU8pjvCvItrUbvP-1" target="BVHzjgU8pjvCvItrUbvP-2">
          <mxGeometry relative="1" as="geometry" />
        </mxCell>
        <mxCell id="BVHzjgU8pjvCvItrUbvP-10" style="edgeStyle=orthogonalEdgeStyle;rounded=0;sketch=1;hachureGap=4;jiggle=2;curveFitting=1;orthogonalLoop=1;jettySize=auto;html=1;exitX=1;exitY=0.5;exitDx=0;exitDy=0;entryX=0;entryY=0.5;entryDx=0;entryDy=0;fontFamily=Architects Daughter;fontSource=https%3A%2F%2Ffonts.googleapis.com%2Fcss%3Ffamily%3DArchitects%2BDaughter;fontSize=16;" edge="1" parent="1" source="BVHzjgU8pjvCvItrUbvP-1" target="BVHzjgU8pjvCvItrUbvP-4">
          <mxGeometry relative="1" as="geometry" />
        </mxCell>
        <mxCell id="BVHzjgU8pjvCvItrUbvP-11" style="edgeStyle=orthogonalEdgeStyle;rounded=0;sketch=1;hachureGap=4;jiggle=2;curveFitting=1;orthogonalLoop=1;jettySize=auto;html=1;exitX=1;exitY=0.5;exitDx=0;exitDy=0;entryX=0;entryY=0.5;entryDx=0;entryDy=0;fontFamily=Architects Daughter;fontSource=https%3A%2F%2Ffonts.googleapis.com%2Fcss%3Ffamily%3DArchitects%2BDaughter;fontSize=16;" edge="1" parent="1" source="BVHzjgU8pjvCvItrUbvP-1" target="BVHzjgU8pjvCvItrUbvP-5">
          <mxGeometry relative="1" as="geometry" />
        </mxCell>
        <mxCell id="BVHzjgU8pjvCvItrUbvP-12" style="edgeStyle=orthogonalEdgeStyle;rounded=0;sketch=1;hachureGap=4;jiggle=2;curveFitting=1;orthogonalLoop=1;jettySize=auto;html=1;exitX=1;exitY=0.5;exitDx=0;exitDy=0;entryX=0;entryY=0.5;entryDx=0;entryDy=0;fontFamily=Architects Daughter;fontSource=https%3A%2F%2Ffonts.googleapis.com%2Fcss%3Ffamily%3DArchitects%2BDaughter;fontSize=16;" edge="1" parent="1" source="BVHzjgU8pjvCvItrUbvP-1" target="BVHzjgU8pjvCvItrUbvP-6">
          <mxGeometry relative="1" as="geometry" />
        </mxCell>
        <mxCell id="BVHzjgU8pjvCvItrUbvP-13" style="edgeStyle=orthogonalEdgeStyle;rounded=0;sketch=1;hachureGap=4;jiggle=2;curveFitting=1;orthogonalLoop=1;jettySize=auto;html=1;exitX=1;exitY=0.5;exitDx=0;exitDy=0;entryX=0;entryY=0.5;entryDx=0;entryDy=0;fontFamily=Architects Daughter;fontSource=https%3A%2F%2Ffonts.googleapis.com%2Fcss%3Ffamily%3DArchitects%2BDaughter;fontSize=16;" edge="1" parent="1" source="BVHzjgU8pjvCvItrUbvP-1" target="BVHzjgU8pjvCvItrUbvP-7">
          <mxGeometry relative="1" as="geometry" />
        </mxCell>
        <mxCell id="BVHzjgU8pjvCvItrUbvP-14" style="edgeStyle=orthogonalEdgeStyle;rounded=0;sketch=1;hachureGap=4;jiggle=2;curveFitting=1;orthogonalLoop=1;jettySize=auto;html=1;exitX=1;exitY=0.5;exitDx=0;exitDy=0;entryX=0;entryY=0.75;entryDx=0;entryDy=0;fontFamily=Architects Daughter;fontSource=https%3A%2F%2Ffonts.googleapis.com%2Fcss%3Ffamily%3DArchitects%2BDaughter;fontSize=16;" edge="1" parent="1" source="BVHzjgU8pjvCvItrUbvP-1" target="BVHzjgU8pjvCvItrUbvP-8">
          <mxGeometry relative="1" as="geometry" />
        </mxCell>
        <mxCell id="BVHzjgU8pjvCvItrUbvP-1" value="Scope" style="rounded=1;whiteSpace=wrap;html=1;sketch=1;hachureGap=4;jiggle=2;curveFitting=1;fontFamily=Architects Daughter;fontSource=https%3A%2F%2Ffonts.googleapis.com%2Fcss%3Ffamily%3DArchitects%2BDaughter;fontSize=20;fillColor=#ffe6cc;strokeColor=#d79b00;" vertex="1" parent="1">
          <mxGeometry x="90" y="460" width="120" height="60" as="geometry" />
        </mxCell>
        <mxCell id="BVHzjgU8pjvCvItrUbvP-16" value="" style="edgeStyle=orthogonalEdgeStyle;rounded=0;sketch=1;hachureGap=4;jiggle=2;curveFitting=1;orthogonalLoop=1;jettySize=auto;html=1;fontFamily=Architects Daughter;fontSource=https%3A%2F%2Ffonts.googleapis.com%2Fcss%3Ffamily%3DArchitects%2BDaughter;fontSize=16;" edge="1" parent="1" source="BVHzjgU8pjvCvItrUbvP-2" target="BVHzjgU8pjvCvItrUbvP-15">
          <mxGeometry relative="1" as="geometry" />
        </mxCell>
        <mxCell id="BVHzjgU8pjvCvItrUbvP-2" value="Singleton" style="rounded=0;whiteSpace=wrap;html=1;sketch=1;hachureGap=4;jiggle=2;curveFitting=1;fontFamily=Architects Daughter;fontSource=https%3A%2F%2Ffonts.googleapis.com%2Fcss%3Ffamily%3DArchitects%2BDaughter;fontSize=20;fillColor=#dae8fc;strokeColor=#6c8ebf;" vertex="1" parent="1">
          <mxGeometry x="340" y="180" width="120" height="60" as="geometry" />
        </mxCell>
        <mxCell id="BVHzjgU8pjvCvItrUbvP-18" value="" style="edgeStyle=orthogonalEdgeStyle;rounded=0;sketch=1;hachureGap=4;jiggle=2;curveFitting=1;orthogonalLoop=1;jettySize=auto;html=1;fontFamily=Architects Daughter;fontSource=https%3A%2F%2Ffonts.googleapis.com%2Fcss%3Ffamily%3DArchitects%2BDaughter;fontSize=16;" edge="1" parent="1" source="BVHzjgU8pjvCvItrUbvP-4" target="BVHzjgU8pjvCvItrUbvP-17">
          <mxGeometry relative="1" as="geometry" />
        </mxCell>
        <mxCell id="BVHzjgU8pjvCvItrUbvP-4" value="ProtoType" style="rounded=0;whiteSpace=wrap;html=1;sketch=1;hachureGap=4;jiggle=2;curveFitting=1;fontFamily=Architects Daughter;fontSource=https%3A%2F%2Ffonts.googleapis.com%2Fcss%3Ffamily%3DArchitects%2BDaughter;fontSize=20;fillColor=#fff2cc;strokeColor=#d6b656;" vertex="1" parent="1">
          <mxGeometry x="340" y="270" width="120" height="60" as="geometry" />
        </mxCell>
        <mxCell id="BVHzjgU8pjvCvItrUbvP-20" value="" style="edgeStyle=orthogonalEdgeStyle;rounded=0;sketch=1;hachureGap=4;jiggle=2;curveFitting=1;orthogonalLoop=1;jettySize=auto;html=1;fontFamily=Architects Daughter;fontSource=https%3A%2F%2Ffonts.googleapis.com%2Fcss%3Ffamily%3DArchitects%2BDaughter;fontSize=16;" edge="1" parent="1" source="BVHzjgU8pjvCvItrUbvP-5" target="BVHzjgU8pjvCvItrUbvP-19">
          <mxGeometry relative="1" as="geometry" />
        </mxCell>
        <mxCell id="BVHzjgU8pjvCvItrUbvP-5" value="Request" style="rounded=0;whiteSpace=wrap;html=1;sketch=1;hachureGap=4;jiggle=2;curveFitting=1;fontFamily=Architects Daughter;fontSource=https%3A%2F%2Ffonts.googleapis.com%2Fcss%3Ffamily%3DArchitects%2BDaughter;fontSize=20;fillColor=#e1d5e7;strokeColor=#9673a6;" vertex="1" parent="1">
          <mxGeometry x="340" y="360" width="120" height="60" as="geometry" />
        </mxCell>
        <mxCell id="BVHzjgU8pjvCvItrUbvP-22" value="" style="edgeStyle=orthogonalEdgeStyle;rounded=0;sketch=1;hachureGap=4;jiggle=2;curveFitting=1;orthogonalLoop=1;jettySize=auto;html=1;fontFamily=Architects Daughter;fontSource=https%3A%2F%2Ffonts.googleapis.com%2Fcss%3Ffamily%3DArchitects%2BDaughter;fontSize=16;" edge="1" parent="1" source="BVHzjgU8pjvCvItrUbvP-6" target="BVHzjgU8pjvCvItrUbvP-21">
          <mxGeometry relative="1" as="geometry" />
        </mxCell>
        <mxCell id="BVHzjgU8pjvCvItrUbvP-6" value="Session" style="rounded=0;whiteSpace=wrap;html=1;sketch=1;hachureGap=4;jiggle=2;curveFitting=1;fontFamily=Architects Daughter;fontSource=https%3A%2F%2Ffonts.googleapis.com%2Fcss%3Ffamily%3DArchitects%2BDaughter;fontSize=20;fillColor=#f8cecc;strokeColor=#b85450;" vertex="1" parent="1">
          <mxGeometry x="340" y="460" width="120" height="60" as="geometry" />
        </mxCell>
        <mxCell id="BVHzjgU8pjvCvItrUbvP-24" value="" style="edgeStyle=orthogonalEdgeStyle;rounded=0;sketch=1;hachureGap=4;jiggle=2;curveFitting=1;orthogonalLoop=1;jettySize=auto;html=1;fontFamily=Architects Daughter;fontSource=https%3A%2F%2Ffonts.googleapis.com%2Fcss%3Ffamily%3DArchitects%2BDaughter;fontSize=16;" edge="1" parent="1" source="BVHzjgU8pjvCvItrUbvP-7" target="BVHzjgU8pjvCvItrUbvP-23">
          <mxGeometry relative="1" as="geometry" />
        </mxCell>
        <mxCell id="BVHzjgU8pjvCvItrUbvP-7" value="Application" style="rounded=0;whiteSpace=wrap;html=1;sketch=1;hachureGap=4;jiggle=2;curveFitting=1;fontFamily=Architects Daughter;fontSource=https%3A%2F%2Ffonts.googleapis.com%2Fcss%3Ffamily%3DArchitects%2BDaughter;fontSize=20;fillColor=#d5e8d4;strokeColor=#82b366;" vertex="1" parent="1">
          <mxGeometry x="340" y="555" width="120" height="60" as="geometry" />
        </mxCell>
        <mxCell id="BVHzjgU8pjvCvItrUbvP-26" value="" style="edgeStyle=orthogonalEdgeStyle;rounded=0;sketch=1;hachureGap=4;jiggle=2;curveFitting=1;orthogonalLoop=1;jettySize=auto;html=1;fontFamily=Architects Daughter;fontSource=https%3A%2F%2Ffonts.googleapis.com%2Fcss%3Ffamily%3DArchitects%2BDaughter;fontSize=16;" edge="1" parent="1" source="BVHzjgU8pjvCvItrUbvP-8" target="BVHzjgU8pjvCvItrUbvP-25">
          <mxGeometry relative="1" as="geometry" />
        </mxCell>
        <mxCell id="BVHzjgU8pjvCvItrUbvP-8" value="WebSocket" style="rounded=0;whiteSpace=wrap;html=1;sketch=1;hachureGap=4;jiggle=2;curveFitting=1;fontFamily=Architects Daughter;fontSource=https%3A%2F%2Ffonts.googleapis.com%2Fcss%3Ffamily%3DArchitects%2BDaughter;fontSize=20;fillColor=#d5e8d4;strokeColor=#82b366;" vertex="1" parent="1">
          <mxGeometry x="340" y="660" width="120" height="60" as="geometry" />
        </mxCell>
        <mxCell id="BVHzjgU8pjvCvItrUbvP-15" value="单例" style="rhombus;whiteSpace=wrap;html=1;fontSize=20;fontFamily=Architects Daughter;fillColor=#dae8fc;strokeColor=#6c8ebf;rounded=0;sketch=1;hachureGap=4;jiggle=2;curveFitting=1;fontSource=https%3A%2F%2Ffonts.googleapis.com%2Fcss%3Ffamily%3DArchitects%2BDaughter;" vertex="1" parent="1">
          <mxGeometry x="560" y="170" width="80" height="80" as="geometry" />
        </mxCell>
        <mxCell id="BVHzjgU8pjvCvItrUbvP-17" value="原型" style="rhombus;whiteSpace=wrap;html=1;fontSize=20;fontFamily=Architects Daughter;fillColor=#fff2cc;strokeColor=#d6b656;rounded=0;sketch=1;hachureGap=4;jiggle=2;curveFitting=1;fontSource=https%3A%2F%2Ffonts.googleapis.com%2Fcss%3Ffamily%3DArchitects%2BDaughter;" vertex="1" parent="1">
          <mxGeometry x="560" y="260" width="80" height="80" as="geometry" />
        </mxCell>
        <mxCell id="BVHzjgU8pjvCvItrUbvP-19" value="HTTP请求" style="rhombus;whiteSpace=wrap;html=1;fontSize=20;fontFamily=Architects Daughter;fillColor=#e1d5e7;strokeColor=#9673a6;rounded=0;sketch=1;hachureGap=4;jiggle=2;curveFitting=1;fontSource=https%3A%2F%2Ffonts.googleapis.com%2Fcss%3Ffamily%3DArchitects%2BDaughter;" vertex="1" parent="1">
          <mxGeometry x="560" y="350" width="80" height="80" as="geometry" />
        </mxCell>
        <mxCell id="BVHzjgU8pjvCvItrUbvP-21" value="HTTP会话" style="rhombus;whiteSpace=wrap;html=1;fontSize=20;fontFamily=Architects Daughter;fillColor=#f8cecc;strokeColor=#b85450;rounded=0;sketch=1;hachureGap=4;jiggle=2;curveFitting=1;fontSource=https%3A%2F%2Ffonts.googleapis.com%2Fcss%3Ffamily%3DArchitects%2BDaughter;" vertex="1" parent="1">
          <mxGeometry x="560" y="450" width="80" height="80" as="geometry" />
        </mxCell>
        <mxCell id="BVHzjgU8pjvCvItrUbvP-23" value="整个Http" style="rhombus;whiteSpace=wrap;html=1;fontSize=20;fontFamily=Architects Daughter;fillColor=#d5e8d4;strokeColor=#82b366;rounded=0;sketch=1;hachureGap=4;jiggle=2;curveFitting=1;fontSource=https%3A%2F%2Ffonts.googleapis.com%2Fcss%3Ffamily%3DArchitects%2BDaughter;" vertex="1" parent="1">
          <mxGeometry x="560" y="545" width="80" height="80" as="geometry" />
        </mxCell>
        <mxCell id="BVHzjgU8pjvCvItrUbvP-25" value="Http的WebSocket" style="rounded=0;whiteSpace=wrap;html=1;sketch=1;hachureGap=4;jiggle=2;curveFitting=1;fontFamily=Architects Daughter;fontSource=https%3A%2F%2Ffonts.googleapis.com%2Fcss%3Ffamily%3DArchitects%2BDaughter;fontSize=20;fillColor=#d5e8d4;strokeColor=#82b366;" vertex="1" parent="1">
          <mxGeometry x="540" y="660" width="120" height="60" as="geometry" />
        </mxCell>
        <mxCell id="BVHzjgU8pjvCvItrUbvP-27" value="" style="shape=image;verticalLabelPosition=bottom;labelBackgroundColor=default;verticalAlign=top;aspect=fixed;imageAspect=0;image=https://springdoc.cn/spring/images/singleton.png;" vertex="1" parent="1">
          <mxGeometry x="70" y="780" width="800" height="398" as="geometry" />
        </mxCell>
        <mxCell id="BVHzjgU8pjvCvItrUbvP-28" value="单例" style="text;html=1;align=center;verticalAlign=middle;resizable=0;points=[];autosize=1;strokeColor=#2D7600;fillColor=#60a917;fontSize=20;fontFamily=Architects Daughter;fontColor=#ffffff;" vertex="1" parent="1">
          <mxGeometry x="400" y="733" width="60" height="40" as="geometry" />
        </mxCell>
        <mxCell id="BVHzjgU8pjvCvItrUbvP-29" value="" style="shape=image;verticalLabelPosition=bottom;labelBackgroundColor=default;verticalAlign=top;aspect=fixed;imageAspect=0;image=data:image/png,iVBORw0KGgoAAAANSUhEUgAABLkAAACmCAYAAAA29F2QAAAgAElEQVR4nO3df2xVdb7/+yfKmZl7tX7jsd27YhjxKx4xZdsyybT0THCKRUMQOn5DBEObg4YJKTFkgBQihzTTSeN4AgRqCOkOGaI90xKEL/k6FQgRKh3JmdKaTFtKYx3wKhpxt9TxjtV75ofa+8fqZ+219s+1d/duu+H1SDxnaFfXWnvt9fn1Xp/Pe80aHx8fR0REREREREREJIfdNt0nICIiIiIiIiIiMlkKcomIiIiIiIiISM5TkEtERERERERERHKeglwiIiIiIiIiIpLzFOQSEREREREREZGcpyCXiIiIiIiIiIjkPAW5REREREREREQk5ynIJSIiIiIiIiIiOU9BLhERERERERERyXkKcomIiIiIiIiISM5TkEtERERERERERHKeglwiIiIiIiIiIpLzFOQSEREREREREZGcpyCXiIiIiIiIiIjkPAW5REREREREREQk5ynIJSIiIiIiIiIiOU9BLhERERERERERyXkKcomIiIiIiIiISM6b7XXDv/39H/zjm2/4jlnMGs/mKYmIiIiIiIiIyK1kfJY1E+ufZt/G97/3vbT2MWt8fDxpyOr/++s/+Pbbb7lt1iy4bRazAOv/iIiIiIiIiIiITMI4jAN8N8534+Pcfvvt/N8/+KeUd5N0Jtff/v53vv32O267/baJ4NYsxbdERERERERERCQzTKDpNrhtfBbffvstf/v7eMozupLm5Prm2++4bSKwNUsBLhERERERERERyTA77jQLbps1i398823K+0ga5Pp2HLhtFsxSeEtERERERERERLJoIlXWd2lMs0q6XHHW+EQ0LZ0TExERERERERER8cjEn9J56WHSmVwiIiIiIiIiIiIznbcgl6ZxiYiIiIiIiIjIVEgzDqWZXCIiIiIiIiIiEtP/6fmc/9PyKoxetH92BfhtyxmunH2VnlH4bctx/txz3P792Svw25ZX7Z+Z7blyJqvnqiCXiIiIiIiIiIjE9L9K7+GrOT+h5/fvAZ8DcPHsn3j4zs946Ikqe7urn3xl//6rLz6fhjNVkEtERERERERERBJ4eNG/8P5Xd8KVd+kZBa73U/rovcA9/OULKLzzKz7lXhi9wp+BOz+5wp2PPMLnf/lqSs9TQS4REREREREREYmrNB/ufORxzl76jPd/f4bFc76Ch5bbv593FzD3x/DF/8vVUZh31yfAQ1N+ngpyiYiIiIiIiIhIQj8tvYcQj3DnV5/x0KJHon5/3/+8hysfjfHp//M5D83Lm4YzVJBLRERERERERESSuDoKfPVJ1M9N/q35+XD5y7nc+cnb8ND/nOKzsyjIJSIiIiIiIiIiCb3f+ycevvMrvprziCsJvfHPAHMfYt5dXwH/AsAXXxK1XTYpyCUiIiIiIiIiInGdvQJc/y9KH72Xhxct5v2v7uTPPW9Hbfe/Su/hoSeeB+DOu++Z4rNUkEtEREREREREROK4AoT+cIbFc4CHlttJ6H//3lcwenG6T89l9nSfgIiIiIiIiIiIzEwXz/6JQj7joSd+Yv/sp6X3cOoTa9niV3d9z/O+fvuHz+APr9r/fuqRO/nn0mcydq6zxsfHxxNtMPb1X7l99m3MYlbGDioiIiIiIiIiIhLLOON8+8135N3xg5T+TssVRUREREREREQk5ynIJSIiIiIiIiIiOU9BLhERERERERERyXkKcomIiIiIiIiISM6bkUGuTec/Z+++CmBwuk9lUs4Pw84V79K6ogu45ulvdh68xvmtXcBoSsfqAfLKguwuqwX6qD4ZIq+slp4DtametswQeQf6yCurZfhkQ9aPZe6X4ZMN9r1UXVYLI6ezcrzWXti5osv+b/BgV1aOky0qb9Pn2AjklTVAfzCl7c13dbMaBvK2nCavrNb+Lxt1h7me5hjHttQCoYwfR2aeqWqTzL1s2qDd/Xi+1/YOwKZ9FRA6ldVzFBERkZlrRga5ZPKK5xYCcP8DhdN8JtOj+mToph/UZsv9AOU/pBjANycrx6hZBC+fLmfr6XJ4+O6sHGMq3erlLZNSDWKJFRSYv+U09V3tjHXXMtYdZKw7iH9l5oMRa3ww1t3AWHcQahIHdVUPh+lapG/evQCFzHvQ+v+JvPanQWrvBwqfyv6JiYiIyIw0e7pP4Ga21A9LT/94So5lAhPz6CNZJ1AsZmBIV7v9s6v1hVkZGKZjbHMJbJ6agX7x3ELaAf/cQoan5Ii5TeUtd6zxwZrumVGmwZoNQ6u7XFcBbW9WgW9FWvv8/QjQ1cP6+kKgZNLnONV6gMqyINA3o+rgqXZsBDasasDMVprsfZFpU9Um+QEenENxF9aDlhFvf3ciBFz7LcVPrM3eyYmIiMiMN+0zufqBhfuaYaB5uk/lpmKefPrnagAeSw8wvyzIYdrtWQlj3UG2UXvLzyAxA4x55aAAjjcqb5KKw+W46h3qG8hb1T7pZWC5ev919kM9fVTVV/H7cyFuxeWPu/thw6partZj3xf7uoPs/jXc6rO/5vkACpPOlD333uc8x0UIPOb6+cITg5z4TQXwedbOUURERGaOaZ3JdSIEvzzy4kSn5GDU7/uB6n3NwOsAdC5aTP7S/0i4zXNA3baDQJG9zShQ8ZtT8OUe+2eR+1p4YpA2XuDqTzr55ZEXgYsAXH5iLQQ2pfS5zg/DW8+/C3wDwJMPw9L9DwH5Udvubx9lJHjF/cOHUzocYAUmxppWANYT33izF1KZvVR9MkR7Y0PC7ZxP4AHqgR3dtThnE0RuE/l02vz+an3Itf/qkyGKGxvs/VWfDPGzcw3Ma2qgsuwNe3/mvCKP0w40loUDVs5ze+VkiCr6WPPvVTgDOW0rCwH3Epxkn9F5/i1zG2jcGP77sUMlUFzL7n5o3Fhr/9sp70Af9a1Be5+RMz1i/Y1h9mt01EBpxJN2L9vsKIYd3Y5jbi4B0g/2DQKtKy4BXwNWaaw5PYeJOVAp2XnwGpy6bv+75ikoeqE84fF8wNZX7wb/Atd2keUt1r688FrewFsZiZzBEblN3oE+OgjyygMNtDc20FEDH60N2n+T6B6JJ7J8x7ovkpXd3f3AxlrmvVnLhlVvUE+I9d21zN9yHbrao/aZqE6JvO/zNoZwlsV4Zcf8zeFyWNPUgCnPkdc08vfOzzd2CKo/edo+Ny/fkZGJ2TZtKwvJ+7CWbY1B2kpPR9WNie4dr5LNEvJaDyeTSj1sNL7TR0cNzCtdwe8ae1gz8seY1zNTbVKy8jbVbdIwJTS+eprD5eBfGb7H/cCOpujrcCu0Sc5ZY6XAWHfi+q0fuNB7jMZFi3H2/wB+9ZMifnlkMR/uWx3VPxQREZGbz7QFufYOwGtnK/jVXbD65yeAe1y//+AueG3fb7n8xP0Q6GTvAFScreByfrMddDJBss5FkL+0E7CCVex7wdWRqT8xyOWVQGGnfeyKsxV08qIr0FV9DZ67VsHlbQeB/2DT+c/ZdHY1zQU/TCm/g3OZ4s6D1+Dq9Zjb7Tx4jaJT19nqGPwn2j4Tth3oY+zfAZ/VedzdD/M31nKVBrszbwJhVV3tjDkHtCdD7Bg57RrgNm6sdXVQe4CeA0FKN5e4trE6/dY21SdD5K1qYOzQxykPzDd0QVVZw8R51drnPzY3SGlxrd0R9jIwawf47GMrIhKHGQxdrcc+/7wDfVAWjNr3/MYQ9ZhzsAZA1RsbaHvzNBXFK2ikhJ53+igtDu+/B6D1omuZkenchwdisZmBh3PAsbsfSvuD9r+rT4agscH+Hs3gp4PaqEFFprT2wuCuLlcAaRAYPHiJohdS29f+9lFe/te/wMR+zg9D6/PvUkOXa9+tKy5R89TXrp+d33qJpftHMcHl/e2jELzCy47g1/72UYp6L8GiRyf7sWPyUkbMwN36HsMBn/6yoCsI8coH8AuCFB8K8srGWviggatvljL/19DzTrvrvkom8r4wP2tz3Dtey24/wK/foKP7aSrLLtK/5Q2uLoNtyxrobGygdHMfZqBc3xqkbaJ8HBuB+asa7Lon8r4fO1SYsH7I29hHR00fpd1B+77+6clwHipn4DHvQB98EP9+N/tq6w7a9d+8LUE7KBZZDzhzYKUbdIp0eG0JG1oLGe7pwb9yRdK6p4cSV6DD+hzhwKAz8NED8OvgRN1UaO+relWQtjfJ6HI4Z0DCSz1s6sDSQyXc74MN5aX2NTAy2SZ5LW9eZbJN+qgLrMBb/BlLapNiOzsAS3id/Ee2R/1udSHM3/YfVO9r5oN9L9C8brtydomIiNzEpmW54qbzn/Pa2Qo6Fy1m9c87iQxwAVz4kokAlxXQei4A3LWdE92vY6ac//K/BvnVXRfJXxru1LStLuI11jJ6/rf2z5pXF7k6NGZfv//gIs7p60uAunXbMcGxZY/cwwUWw42PM/TJw84PA6dGqHnpDuLNbhkFFv7mFAv3VcT8L53p922bS1yd+PXFQLl7iUhLP1R1tUd1+HesLLT/PQw0vno66glsKVC6uTZqG+fT8H0rC6G8imOv9pHOspS2Q+HPUFEMUMLwJ6nt5xcrrQ583sa+hMmAN7zex+HykOvpesfmEhopYfjkG65tD5fDju4GzMDgZ6WFtFMIn31MKUDNYjpbcR2rsx+q6MNfWprS+R8bAVrfiHqivqMY+989QHvjG+yrD39vpUD9oVpeaSUrb04cAQb/cyhqhlQRUPRC6oGkrVX5rgDUUj/wlI/eU2DeWDoyDPA3iv71Dtfxlu5/FOfsyZFPvqbkYcAf/lnk/jed/zxueUv1jV1eyoj5jq7WuwM6HZtLaKeEntfDMy7pgtK11n3SDuxbhv29fvQBpFKW2j8M8bNywPcj+2dtK8PnkErZbQfWLwP7vidcXvoBRq7b9+uOQyX2dmt8UFVfS0tjiHSWYzmvqylf6S51O1wOpZutz+kHqpb9yBFwgN/1hKgnhH/l0/Y29c+voBGg/2LKx0vk2ofWMZPVPSaYNNYd5PCbQaCQsUMl9lI3a2amda1LgTVN4QAXWEG1dqyg2nQySxUpXmwvlY78HjPVJqVU3lIw2TbJeT/llQUTvqVVbVJsyRLOFwOd2zZx4a7tLDyyRykyREREbmJTHuRaeGKQC72rufzE2qilh07PgSuvQj7A3fP48EuAkDV4uvYOP31wMc4g2X0Ad/2QT/8cf+Bh9hVp2V1A4WLPn2Uy+rpHKeIbWPQ/4m6TD1z++VNc3tYZ8794AcJUmEGFU+M7fVED4Egm0XHpY/FnMJhtIvNoxBpEelUPUDz578gMEKvqG+yBRV6ZOx+XeaL902WFOAeHJum4GYwakW9+Mm8hMx38w2tLaKTQNSj2cq1jMYPuRNci3mBl3r3YA51MGxwG3h9zBZwyzTfXvW+fH+D77Nz1NfReSvh3b70P57dewQohR2teek/c8ta8rTOlp/9eykhnP0BfVC4lMwB1Bq8i75PJ5F+qeqCQDV1wbEv08jvnuXspu1XgusdivQEt3v1aPLfQDoSlKtF1TVVkGY/U/mHseqoK4N4fZuQcTN4hSL3umezxplPjO31U1IAJxNQ/VsLvuoCRP7q2yUSblEp58ypTbdKOYrjaHYTyKipbIa+sNuoBjNqk2OyE8/+SOOG86VNx/0EWnn2d0fMvpnU8ERERmdmmdLmi6Yika8k/F5rJG1wNAVyjovci9FZEb3y3+7jOPFu2u9I+lZwVL68ME5NuhgE+uJ70Vd0ffQZVhODe5E974w3G7cGtb/reBta2shBWhpc7WcuWrGUTH40AhJjfGILGGE/WH0ztWD/1AeWl9tIyM2BZc6iEVAeb9kycBH/X/0mIdiBvVTsTizMjZH6A++l18PENzMnLyP4ic20ZBY7/XQRsPf0o+7cOsXPXF0BXzJxcW6vyaZ2bz1u7unhrxRXgSto5ubzwWkYSBUrSCQR70baykN1zg2zYWMuGMmsGU6y8OEnLrsdleu0fhqLyERlVKZz3dDFLCdeffAP/yhJ71tDhNIIB8Zj6xvm/M1X3QHQ+q7DpC3SZOvD++vA5VBRjLaN7vZ3SzSsy3iZ5K2/Tc02cuf7M0svGsvDyP7VJsZ1773N+dddFCEQvVUzktd6L1C0dRDm6REREbi5TGuRaXQirt1m5rhaeXU3bn16neHWn57+/8OeQNduKQuYXAtw/kY8r/owwE+Bqu/+i61gLTwzCFykmCJpisRLmO8XLZxaPCXB11IRcg1lnvhozs+ujD6A0QWd/3r1YT4CT5LRKpBis14PPAGZmV96BPl5pDdK29jTzfCuAwoncJ5N/pb2ZBdPZ2E7p5j46+0smlumklpcMrJk4H7VCogFZ8USAYipfQX/fHBhkNlz/+8TNlD4T4Hry4a9dL24wubWcfMDL+62Alnnxw/7nv2Drq0OuQFfNIuC0FdTaefAaraeuu/J7bTr/ORd6V8c8nyWQUi6XTJSR8BsuMx/ocr5sIO9AH5Wt3vPi2GX3M2/HqnqgkGLST5o+3T76DKzgAnZwIVYi+0wco/Sxkon7JXN1jzsPVXjpmJXTa/reZGhmVjmvq/27Vijd3Iefkilrk2bSG2V3FENFd5DKsiDHXu1jTVOIeT5rBpfapDB3wvnEfSFnnyqdlwqJiIhIbpiWnFzNS+/huSc6qb6G57xSZnni/LsB7vG0LBGsJ3xLuEjxT1J7wpdtBXPzuQEw/N/2z0yeLiPTyxV/1xOiihClaxPPnah6oDBquUgks9Sl5534uXTCT4nd2wwD7ef+6FqiEslsk67JLIMyMrk0yPjFykIaKYH+i1HLdFJRPLcwaT6gbC5LjMcsHRz8w9fJNk2qtxfga5b+2x3EejNpPEv98OSrP2bEBNviePmF++GpOYxcBbN8MZPLFb2UkYpiaKckKi9SvGVJXh0bgbyyhoT55pzGNpdATa29XGsyZTeWVMqjuW6p5tnLFmeuJ5Pvaqw7yJomKw9WLLv7reVmx7bU4iWIZI5hlr5lsu4x39nhcqD46bT+Nl3JvvfGd/o4XG4toXNe2/pDQVf9lqk2aTLlTW1SYtPVJoUTzi9JuF0/ULGvmSVf7uHyuu0KcImIiNzEpiXIBVAXgF+t6+SXXy5m777VWPM24qs+MchzvE7x6oOANeR9ruwpqq+RMK/Cg/n3cAEYfe8CEE7mzrXpncW1aBGMcAeD//sLwPr0bz1/Cd/D2Ttm8dxC2sHu4A8DeVtOu14NDlant50Sdq9qxzlA3n0yZCeGLQWq6p+mshWGT4afKJs3WUE4mW5lK65cV9tOhqjqareDbabjbpINmzdp0ZVeEmAId6bjJRKuPtAXleTWJM79RQ3gW+E6f+dnnAyT+2X3O31UtV5MGnCMx7wwoHqj+3Ps7se+1mt8QM3TUdtkUxHgq51D6ykYaX/X/rl5u2Iq7psDMNsVMNt58BojEbO4WnvdxwIr5521bPJ7gJUQv3XrEPZ654lz4tRf8M2HVIJoXnkpI2abbY0h13dUeaCPevrsROep+l2PVZZiDTqHgd1bThMr149ZEua17Hq1vhjay6ui6pRYTH2QbkL6THPObvU666lxItCSLDADuOo7k5g/k3WPOX/nuRwbgcqyBpzXd6rr4USBJZO83QSsMtUmeS1v03Etjm2JnlX3ykmrDKx53lo+qDbJbRR4rftUwoTzYM3or973Is/xOs3bDurNiiIiIje5KV2uGMn5Wue6gXcgEH6r4S97F/PavnAg6ld3wept7qV5dQF4oKCTiiMvuvJyOZcV1QXgg9ETVPSutre5/MRaFv7pYNaWK+5vH3UNxN8COwfQ1trZ+Kp+TBHw5KuP0vr8u3DKyiH08qt3s797Dpy/EmfPk7OjGPrrG5jf2GAvDRk7VELeg7X2ckWwOr1Xu2uZv+W0K4fO1fpC8IU71iavz/yNtfb+wq+tDx+TQ0HyNtYS69X2YA3COppWUFn2sZ0f6Gp9IS3PB2Fj6ssmwOpMf3SogcqNtdAafdx9m0vI23Idutz7d75W3pz/vDeDzF/V4FpOU0X6Sy7qHyuhcSMcLu8DnzuIEV5CFB7I5W0MAbWu8ze5W/IOzCFvVRCT36SjBnAsNxvbXEL1Aw3krWrAmQMl00utnEzuq/27uiDYBVjBr5rT4aWpOw9eg1PhGQ2t7wOnrG1ffukOWPQoS/3w6Us/pnVXl/27rbWzaat9yLVcsWYR7P/kAUZWdNk/Cx/PenOpD1i0fwE7V1wCwttZ5TE7ObnAWxlpW1lINe7v6HA5rOlO//sxb1GLlQjaD1Q0rSCvLAi4y7d/ZfjfXsquV877NTIvV2QuMGd94Nw28q1tyUTmoNoArvolleVeHZtLqCwrsf/eKdZ51T9WQmNr9MsC7HPpwrWvjhoobXJfl0zWPVc3lzD/gyo7F1I90NFdS2XZRUxgxWs9nMp1TVQPd/aXTCQhjw6qhN/810fp5j5KKclYm+SlvE11m1RKCR/9ey15Ze58mfVAW0R5U5sU9vsQ8OUFissSJ5w3b+JOJb2DiIiI5K5Z4+Pj44k2GPv6r9w++zZmMWuqzklERGRGMIP8w+V9UYPwvAN9VLUGpzTvnYhYNp3/nGUfrFbwSkRE5CY1zjjffvMdeXf8IKW/m7bliiIiIjOdeaNdrGV1VQ/MjCTlIrcak3D+pw8mTzgvIiIitxYFuUREROIwCc1Nfibj2Ai0NwbjLkkUkewpBi5v25Tw7doiIiJya9JyRRERkQRi5SWC1HN7iYiIiIiIN+kuV1SQS0REREREREREZgzl5BIRERERERERkVuWglwiIiIiIiIiIpLzFOQSEREREREREZGcpyCXiIiIiIiIiIjkPAW5REREREREREQk5ynIJSIiIiIiIiIiOU9BLhERERERERERyXkKcomIiIiIiIiISM5TkEtERERERERERHKeglwiIiIiIiIiIpLzFOQSEREREREREZGcpyCXiIiIiIiIiIjkPAW5REREREREREQk5ynIJSIiIiIiIiIiOU9BLhERERERERERyXkKcomIiIiIiIiISM5TkEtERERERERERHKeglwiIiIiIiIiIpLzFOQSEREREREREZGcpyCXiIiIiIiIiIjkPAW5REREREREREQk5ynIJSIiIiIiIiIiOU9BLhERERERERERyXkKcomIiIiIiIiISM5TkEtERERERERERHKeglwiIiIiIiIiIpLzFOQSEREREREREZGcN3u6TyCRAaBl13GWFwyxbMsmIH+6T8mTPW+P4utoZv1LzwALpvz4dUeHYOC4/e/1AQg8W+/571sGYeBIY8K/Hwb2NF2AG50A+IHtWyqgYMmkzt2LczfgTFMzAUan7RrH4rwme9ctgKJnpvuUssLcH8sLyGq5nM57bKYx9/zedfkz6r4ydfT2ylH8j2+a7tNJqmUQRo40Tul9VHd0iOWh4znVhhl73h5l0aXmSZ27aY+2V+Zn9R5RfXHzmWlt/UyphzNxHmYfMApkr7x46U+mou7oEOs5Pql9iIjIzW9GB7kMfyHMpMHBTB601B0dwj9wfFKdlfVFwEv14UEDnVHb+IG9W5YAS+yBo0gmTdc9Nh2Bm5kyeJLclI02qWUQhjuaWbZuQcb2mU3ZqC9mclsvmXer1MPmc64PjGY9WOSlP2l4KW/LKxfQ0pTPdl9zTjxYERGR6ZETQS7xZgBgYIDlAW7qp9fLCmDZSzOvc+McZN3MTKdVRG5O527AwJFmtldOfrC/99kFoFkXkoaZ2tbnut6BUfyMEqismO5TSdmyAvh03Sb2HGlkr//4TR2MFBGR9E17Tq4BoG7XcRg8HvU7H0BB4VSfUs7z+fTEWURE0nOmY4jlBaP4H9cAUuRmZPWvC6b7NNKyvggIPEPLkSFgaLpPB7BmoZ1rasQs/xQRkek1rTO5nPkWZvrTmMj8BWeAM7ua7d/Hyk9klj2ZRjhWTpJM5yvwIjJnV7ZzpUReuwDY+TWSLQ9w5jc7d2OBaz+JrvnedbBneCnDHc1Rx4x3XkaquSlSyQWT6Fqkyutx97w9al8Hw3ntYuWQi7VkL9m9as5nOZ1R34v53Nsribu/bF4LL/dF5HXa0wF0hM8vG+UksizWHRkFwseMldvN+Tde6p141yJyOWas+yCVMuK8ful+l+Yclr/0DHuabtjfZ6zPGfl9xfp+Yp2/3/F7r9fC5Kbyb9lEy67zJKrTY5U3IsaSXvLhmNwzw5X1rm3NPZFOm+TFuRvAwPmEyxST3WPm/J33dqx7OZXrGllfGOnca5HnH6tN8npdvZY3L22SV5H3WLx+Q6LPaSRrk87dgN6mZrZvWUhdR0FKdU+6nzHynBLdy16vRSJTUQ9P5vuO3FeY+3pksj+ZrH2O13dLdYlvuvXY8soFnBnIZ/jt8/gfn/68rMsrF3CmKZ9Pd01fPl4REQmbtiDXVCWvzhTntHkvjfgAMLDr+ETnqJ6WQfjPI41sD1ywO7973h6Fjmb2TnSITUdmPY2eOyaRg3twD86dHW5XIv+XrHM/dwP2NDWzfsT7MVNhOqDWdQhfvz27rLxh/oIlQD7Dw6P4i2Lv474CgPyo74BQ9Ow/o+7IEOsDQwQcuSDONYW/M3fQJbxN4EZnyh0Ur7lgIo9pfjZwtJnAs6l1iOx7JTBEYIu1rz1vj7KnqZntW7DvsbqjQwQGjrPd8ZmSXbt4kuXW8AP+Rx+ht6OTZTfecw14ewdGCRCeGXLuBvxooJn1E8sezT5bdh1Pe8Ca7FpA4vti++P58Hj9lObkMku5vOaCcZ6/Oc/A28ejAodWkCB8Leqamtm7LpTSw4RUysiejlGWFzSz7KVNDJPPnqYLDBxNLzmwqTvNZzCf03+02d5f5H1t6rHtNEddC2fdM5lcTWdugH+Xqa+foWWQqCUzXsrbAEDbcfa+9Aym/ag7OsSepuNR92vLAAQGGie2tYJte440s33LBZYVLEmpTfLKlFWKlsb8vau8TXwfAzBRjkbt40fe2/F4ua7u7xb38igAACAASURBVPKZSb2UJlY9XHd0yK57lhUs8HxdUylvydokryL7DeZngUH30i1zbs5AxwBMlMsF9t8lap/N/oeBuqZOa18vxS6Tya5rKnW617be67VIJtP1cCavRbx+Q2SZStafjAxaDTOximKC8z7JZPucTKp9ayNQAGcKFjJwqRP/46NJt8+2ZQXgf2kTLbuOR5UfERGZetOyXHHP26N2x3DZlnqmu3HKFufTvx8VwTALGB64DFidzeGO8/xbZb7dEAaAwLpnODMA3Ljg6RgmwLL3pfqJDskCtlfms/eleva+VM/2l+rt/Z95e5QAQyzbEh5cLSsAf2Vqx/TKfMbIvC7rn13AMAsY6OiMWpLaMgh7djXa5zI8MprWiweWF0DgWavjZIIvn94A87QwHHRZam8TeMLqGDI4kPqH9eDTEfAzij+w0P7ZMsd5psJ8l4Fnw9f13x7PZ7iggoEOK/hkZmSsX7eAqXqquCiQzzD59n0OVgd5+NJ7/CiAfR6Rn3sy19/LtTCS3RcznXMgEgAIBBi4NAqMMgwMnL3A+gCu4Ny/PZ4PBRWcOztEKp8zlTLifFhhrusfByDdpSR71y2wP4P5nMMhgNGY97Vdj3WMAkOua5HJWcLb1y2w69MfFQEsYHjYuqZey1sAXHUwWLMAIssNWNd8/ZYKe3+mfDESytRHcolVVqO2mSgvgUD497E+UyoSXVeAgYEhlhdgB94CgL9yKb03gBvvpXSsWEsx1z+7gAEWMPz2ec/7SbW8ZaruGR4ZZVEBUPCI/bPtj7vbWOe5OQPNAbDrSS/ts1Nk3eOvXOoq45m6rqnwci2yIVE9DJm9Fl6WDnvpT64vwu4X+is3EQD2vvSM/TPnfZLJ9jlbZmL7HQC2v/QMwwUV1DV1xkzDIiIiU2PKg1x1R4fsJ4c385tRAgBFgbi//+Mg+BlyBTwA7vORlUGMGbyYWVFO2Ro4/XEQYAi/330856DVzygUFjAyYnVSRoatwfrwwGWGAUI30jp24NF8Eg24hkdid4r8AL7s5IEz3+2eps5JBRTjDUT9AIUFdjAgPCMj/n2YacsKgMBSV4d/4AZw47JrUBzLfT5IdZDs9VoYye6LmS7RNTTXOTInX7qDgVTKSCava6z97312gf1AJN597fPnMwJw44bney4Vyer0yZQ3f4x6GYgawGebdf1CCfM6mnOtOzKUkUFcsuuaqB1INa+QeTlL5P1qHraMxLnnY+4rxfKWqTLi9+Vz5gaci7GMOPLcEt3/Xtpn1/lH7MtV3iBj1zUVXq5FNiSshyFz91icfUWaiv5kOu1ztjnvwZnCntkfeIa6I0MMvx1/FquIiGTPlC5XNE+6UxWvwx1rqR5E50+IlctjupdJmmBOXVMnsV+pnJ3zSjQrKtGSwbSPB3GDRmYQ4PflM3wJfIzCpfcIVFYwMjIxy4vsJNKPzOdgnnwvz+Kg0jmd3Xzv6eTpMAPRlhvAQIylV9OcSzYQWEDvAPaSxd6BUZYXROfdi8yDEub9+57p12I6RA5aDXswUODtXpuOMuLF8Mho1FIbwx+9+YwUM28XMNMGkbGY2Qp7mi5Qd6QTaEw5j2EqzCySM0c6WTZ43l6uONxx3nqTcAp1p5mFtqdj1JVvz5bG841MlTevtj+eT4u/njNHGu3cRZEztsysYXwL4+0G8NY+e7kns3FdvfByLabadFyLbPQnM9E+z3SxPmNkPsBYeR1T6bed6Rhl/eNDnrYVEZHMmdIgl1l7v+ftUeqONLM+MLk8UM5cSImYXEIziW+iYzyT1u3H66xni3NW2ac3rE75IkIQWMofmy7zo2eH4EYoK+f16QhYHVHsjuhUBD7NEgEIB19TzXNhngivLxxKUn6mZwr/j4qgxSzNfXwJw5fei3oSXXd0CP+AO29Fstw9sXi/FpLqrJfpKiPJ+H35+EgyyJg5D/ajuPMghZeOWYmlZ8aym2Scba8pt3uaOqNyimXKyMTSxbojQ5iE4OkEM8wsNOcLMLIlm2+vc/Zp6o4O0TLgzuV5nw8GzAyeNE8h1qzveKbyukZKdi2m2nRci0z3JzPVPs90JhdbIs6cYV44H77HemGBiIhMjWnJybX98XwC6+ppGSDhK3dNR3qmLWv0+/InnQcgW8sS40mUJydby9oi85AZkVPwTQftj4PgLxwiUJDPQMFCGBzIyvJBZ74Sk49i70v1U54fbn0RBNbVpzzdPt5SvEixpvJ7nU1plrKkw+RrGbg0ysCNUfw3LruWUZjvf3mASXfIvV6LVKSyrKTu6BB1uxonvSTBDIyceYhSFSgAChYyMOD+3jzlWZrYxvnvmVBGYvGyRCXW9TSfKZnIazGZ84osb2bfzvxSmZCJNgnSW1K1rACWb9mUtfbMmTvKeS+mE8RI9fMluq6TKW+ZtPfZBRB4xlUHmvs/8tycvLbP8QwMDNnLabO9LNGrWNciFZmohzN5LeLt60yHO99bJvuTk2mfzd+mK9V6bGR4NKvB5FQNAHt2Hcd/o9N6AYACXCIi02ZaglxgDfCXb6nnzI18WnY1E2tAfe4G1O1qThgImw4+f77V8Z5EMlWTu2jPkaGMJ3yPZ/nj+QywgIGj4enZ527AcMdxllfmk+kOuQl2/GfHqOszthwdIsCQndDaPHUeOHKcQGCBHZBrOTKEj6GMd2CyERjxYs/bo1E5bAYGhtLqpC2vXMCZG/kMHI0fXDGDGJNAeAA403R8oiMfZu5nk1A21vLeVC0K5NN7I5/ejvMsD4y6Osum4+4MuLYMwpk0y7mXa5EKc38kexmDM1eQSXieLnNNJrMfs6yrZQDXffafb4/iv9FJoLLCdSxnwvrIZd/TVUa8WF4EwwUVtDR1Eu9ambxCzuu55+gQfjqJlScn0bXwykt5M9fVmTD93A3itoFeZaJNMueX7KUBLYNEBXV7B0Ynlsdlfi1WJoMGzjLiJTCd6Lp6LW+ZNAy0NF3A+d2YwIIzFYFpeyM/p3m7onObZO1zLC2DwMBxlj2xAPOyiVSuayZ4vRapyHQ9POmHH1jl0dkW7Xl7FH/oOM7Pl8n+pNf2OTKQGp6NOjX1WKI8s9PB1OMBhqy3686QFRoiIreqKV2uGMmZo4jBASjKjTXr64tgT+Um9nQ0T2oZz95nF7DHt4m6pmaceRSytSTI5BFo2XXclb8ockp1ZJ4CZ74js22sPAUmH4Tz/Lc/ns8e3J9xuT392/p8prPknE22KJDPmY587isI5wSJzGNzBuw8HJF5FJJZ/+wCWnYtsP/eKdUp5qlci7qjAXAEkCKvhVeushORi8qcfwBYvuUZWpqaYaBxYmZkBXUdAdcr2c39XHekGWh05Ny5AYSf8nu5Lwzzem8GOgmsc5dr641xS2jZFbLzKi0vgPu2bOJMkzsA6+W6erkWqdr+7AL2hCpcOU4i7zH7jVNHUg+IRIp1TSD1819fBC3r6qk70ohZ1hWZP8R5LGf5OeOvd92bmSwjmWRm+NYdLYjKy+VcwmZ/hxPbbK/MZ6Cynl7Hkhuv18KLeOVtz8BSuBQ+ZuS9Fa6XB0g3oJipNgnCdW+8Nnl9EewZfobhXeHrE3mPxRrw1h0ZxdQvqSzP9gPLq5fQ0nQ5qnw7c4F5rS/WF8G5LfXsaWp25UyKlVcs2XX1Ut4yyQ/8aMuSiXs6fO9bdZN7ZpvJV7XnSKN97uFzC2+TrH02nEtFzb0dea28XtdkvLT1qVwLrzJZD2fqWmx/PJ+6kWeoazoOdFpvjN1SP1G+wjLVn/TaPkfWd2Bdpz3Dm1z1XSr9hlTqMfNyhWXrFnj+bNlk3oI53cv5RUTEMmt8fHw80QZjX/+V22ffxixmTdU5iWSVGYAtLxiK6pDEykVxs6k7OsTy0HF1xjIg0b2Uy271MnKrqzs6RGAgtVyB2WKCV+sDo64limbWXeBG54w4z5uVuf571+Vr+ZXMGOrHiIjcGsYZ59tvviPvjh+k9HfTtlxRZLqYtx/Fyjniz8KbHOXm1XJ0CD9DLKuu4GbqaKuM3NqWVy6wlpAfPZ584ywzL0AIBKJnhFI4M3LxiMjUiVwuKyIiEklBLrnl2LkkJvLwGCY/mUmmKxJPyyDU7WokMHD8psy/oTJya1tWAIF1m6Y0x1I89/kgVhJ1M9CdqgTvIjL9zt2AgSPNbK/UzEIREYlPyxXllhQvSWqqub1ykab5ixe3chkRy563R1l0qXna64pY+bZgenPD3Sq0XFFmkrqjQ6zneFpvVxURkdyT7nJFBblERERERERERGTGUE4uERERERERERG5ZSnIJSIiIiIiIiIiOU9BLhERERERERERyXkKcomIiIiIiIiISM5TkEtERERERERERHLejAxybTr/OXv3VQCD030qk3J+GHaueJfWFV3ANU9/s/PgNc5v7SLyVenJ9AB5ZUF2l9UCfVSfDJFXVkvPgdpUT1tmiLwDfeSV1TJ8siHrxzL3y/DJBvteqi6rhZHTWTleay/sXNFl/zd4sCsrx8kWlbfpc2wE8soaoD+Y0vbmu7pZDQN5W06TV1Zr/5eNusNcT3OMY1tqgVDGjyMzz1S1SeZeNm3Q7n50ryWRjTZpKq+7ubfMf17r95ki3T7UiRAs3PciDDRPzYmKiNwiZmSQSyaveG4hAPc/UDjNZzI9qk+GbvpBbbbcD1D+Q4oBfHOycoyaRfDy6XK2ni6Hh+/OyjGm0q1e3jIp1SCWWEGB+VtOU9/Vzlh3LWPdQca6g/hXZj4YscYHY90NjHUHoSbxAFr1cJiuRfrm3QtQyLwHrf8vyeVamzS2uYSx7iCH3wySie94OstbKn2oc+99zq/uugiBNVNwZiIit47Z030CN7Olflh6+sdTcizTqM6jD3UCvTEDQ7ra7Z9drS/MysAwHWObS2Dz1Az0i+cW0g745xYyPCVHzG0qb7ljjQ/WdM+MMg3WjAVa3eW6Cmh7swp8K9La5+9HgK4e1tcXAiWTPsep1gNUlgWBvhlVB0+1YyOwYVUDZtbMZO+LTJuqNskP8OAciruwggQjWT9kzstGm7SjGHZ062GDF+n0ofqBC73HaFy0GLgneycnInILmvaZXP3Awn3NmqqbYebJp3+uBuCx9ADzy4Icpt2elTDWHWQbuTdNPtPMAGNeOSiA443Km6TicDmueof6BvJWtU96GViu3n+d/VBPH1X1Vfz+XIhbcUna7n7YsKqWq/XY98W+7iC7fw23+uyveT6AwpyZlTQTqE2aPl77UGcHYAmvk//IEtfPb5aULSIi02nW+Pj4eKINxr7+K7fPvo1ZzMr4wU+E4JdHXuQ5LlK37SBQBFgV/IO9q3li20Gq970DvA5A56LF5C/9D9c++oHqfc32Ns+Ba19gZbeq+M0p+HKP/bPIfS08MUgbL3D1J5388siLwEUALj+xFgKbUvpc54fhreffBb4B4MmHYen+h4D8qG33t48yErzi+lmi7ScrldlL1SdDtDc2JNzO+QQeoB7Y0V2LczZB5DaRT6fN76/Wh1z7rz4Zorixwd5f9ckQPzvXwLymBirL3rD3Z84r8jiRnOdWfTIEjQ2enpIn+4zO82+Z20DjxvASnrFDJVBcy+5+aNxYa//bKe9AH/WtQXufkTM9Yv2NYfZrdNRAacSTdi/bZNog0LriEvA1YJXGmtNzmHjebBsB9m8domb+FxS9UB5zXzsPXoNT1+1/1zxF1LaRx/MBW1+9G/wLXNtFlrdY+8o0L2UkcgZH5DZ5B/roIMgrDzTQ3thARw18tDZo/02ieySeyPId675IVnZ39wMba5n3Zi0bVr1BPSHWd9cyf8t16GqP2meiOiXWDCcn8xnNtRo7VEjeO4vtvzlcDmuaGjCDishrGvl75+cbOwTVnzxtn5uX78hIdbZN3oE+Dn8QjDqXvAN9VLUGY9aNie4d57mNHSqMex8kmyXktR5O9llSqYed++kgyEdrg/xuVQNtb5bGvJ6ZapOSlbepbpOGKWH+ltMcpj3qvohFbVLqItuRrbWz8VVFz7SPbCNibZdsX/vbRyk5fwXf/odoXXEd0y7F2ldrLwzuCueknIo2KfL7jCxHXr6fYyPYZTXv9Tlx62Gzrde6M1ldFtmHde4j3bon0bVw1k3Oz5BOm+tkxiVtd++heHWn63dmXLOE12letx0Kn0r7OCIiuW6ccb795jvy7vhBSn83bcsV9w7Aa2cr+NVdsPrnJ4icqvvBXfDavt9y+Yn7IdDJ3gGoOFvB5fxmO+hkgmSdiyB/qdVILDwxCPtecAW66k8McnklUNhpH7vibAWdvOgKdFVfg+euVXB520HgP9h0/nM2nV1Nc8EPU2pknMsUdx68Blevx9xu58FrFJ26zlbH4D/R9pmw7UAfY/8O+KxGfXc/zN9Yy1Ua7IbddCKqutoZcw5oT4bYMXLaNcBt3Fjr6gD1AD0HgpRuLnFtY3UcrG2qT4bIW9XA2KGPU+4kbOiCqrKGifOqtc9/bG6Q0uJaxrpr7WPEG5gZ7QCffWxFROIwHa6r9djnn3egD8qCUfue3xiiHnMO1gCoemMDbW+epqJ4BY2U0PNOH6XF4f33ALRedC0zMktCwh3D2EznzNnZ2t0Ppf1B+98mmDcW0QnsoDZrgwrTaXd21geBwYOXKHohtX3tbx/l5X/9C0zs5/wwtD7/LjV0ufbduuISNU997frZ+a2XWLp/FBMs3t8+CsErvOwIfu1vH6Wo9xIsenSyHzsmL2XEDNyt7zEc8Okvcwc8XvkAfkGQ4kNBXtlYCx80cPXNUub/GnreaXfdV8lE3hfmZ22Oe8dr2e0H+PUbdHQ/TWXZRfq3vMHVZbBtWQOdjQ2Ubu7DDJTrW4O0TZSPYyMwf1WDXfdE3veJAjYAeRv76Kjpo7Q7aN/XPz0ZzkPlXKaYd6APPoh/v5t9tXUH7fpv3pZw8CayHnDmwEpUx6Ti8NoSNrQWMtzTg3/liqR1Tw8lUQO6vI0hwLpmzgFdD8CvgxN1U6G9r+pVQdreJKPL4UohpXrY1IGlh0q43wcbykvta2Bksk3yWt68ymSb9FEXWIPo+EEutUmpM30t54OW/QevsXV4yG4LzAMX3/tfuNqI1vZRaia2M23Nkw9/zdLT1oPI88Ow//l3qfmkyxWceut9YMUVXn7pDlhUTmsv7N/Vxctzw+1NZJtkt2V0ZS3QFRnABKg+0EeboxyZZYp2QIn2mPtqB/JWtVtthKMennegwf4uM1l32vdKTR+lTeE2qXpVA21vQqlvhefyZvZ1uLxvop0otNukjg/d92JlK9S3xi5HaS8xDwFfXqC4bG3U74qBzm2bqPjND1l4ZA+Xn/g45YftIiK3umlZrrjp/Oe8draCzkWLWf3zTmKtRb/wJRMBLqtify4A3LWdE92vA58D8Mv/GuRXd10kf+l2++/aVhfxGmsZPf9b+2fNq4tcQSqzr99/cNHeF8ASoG7ddkxwbNkj93CBxXDj4wx98rDzw8CpEWpeuoPI2S3GKLDwN6dYuK8i5n8nflPhOn8v2jaXuBrl9cVAuXuJSEs/VHW1R3X4d6wstP89DDS+ejrqCV8pULq5Nmob55OxfSsLobyKY6/2kc6ylLZD4c9QUQxQwvAnqe3nFyutDnzexr6EyUk3vN7H4fIQ/pWOp5qbS2ikhOGTb7i2PVwOO7obMB2qn5UW0k4hfPYxpQA1i+lsxXWszn6oog9/aWlK539sBGh9I+pp4o5i7H/3AO2Nb7CvPvy9lQL1h2p5pZWsvDlxBBj8z6Gop9FFQNELqQeStlbluwJQS/3AUz56T4F5Y+nIMMDfKPrXO1zHW7r/UZyzIUc++ZqShwF/+GeR+990/vO45W3TvgoInfJ87l7KiPmOrta7Azodm0top4Se1x2Diy4oXWvdJ+3AvmXY3+tHH0AqZan9wxA/Kwd8P7J/1rYyfA6plN12YP0ysO97wuWlH2Dkun2/7jhUYm+3xgdV9bW0NIZIZzmW87qa8pXuUrfD5VC62fqcfqBq2Y8cAQf4XU+IekL4Vz5tb1P//AoaAfovpny8RK59aB0zWd1jgknOZM1jh0rspW5WLh3rWpcCa5rCAS6wgmrtWEG16WSWKlK82F7mE/k9ZqpNSqm8pWCybZLzfsorCyZ8I57apNSMAFz9bxY9Bc6+1tYX7nfN9H2rF3zvfxE1A7imKt/+91vtoxTxNUv3z8G0LUv94Kt9gLdOAcNDrmNbAS6rfXlyEfDw3Qz+wZrVNQiMBK9TXTvb3n8RUPTSo/a+Mt0HHAb44DoVNeAM/ET2C1PhbCPMPeVsjzJZd75yMkQ9fXZ5BqtNai+vSrnsmn0560XTJkXei1XAjjeriFWO0pUs4Xw+cPnnT8H9B1l49nVGz7+Y9rFERG5FUx7kWnhikAu9q7n8xNqopYdOzwEEHrP/nQ9w9zw+/BIgZA2err3DTx90J2y8D+CuH/Lpn+M3nmZfkZbdBRQu9vxZJqOve5QivoFF/yPuNqaRu7ytM+Z/8QKEqTCDCqfGd/qiBsCRTKLj0sfiP4Uz20Tm0Yg1iPSqHqB48t+RGSBW1TfYA4vI11abJ9o/XVaIc3BoEryawagR+eYn8xYy08E/vLaERgpdHTsv1zoW03FMdC3iDVbm3cukO2jxDA4D74+5Ak6Z5pvr3rfPD/B9du76GnovJfy7t96H81uvYIWQozUvvSdueWve1pnSjE4vZaSzH6AvKm9KrMFC5H0ymVwrVQ8UsqELjm2JXkLiPHcvZbcKXPdYrDegxbtfi+cW2oGwVCW6rqmKLOOR2j+MXU9VAdz7w4ycg8k7BKnXPZM93nRqfKfPNeiuf6yE33UBI390bZOJNimV8uZVptqkHcVwtTsI5VVUtkJeWW3UAxi1SanzAcz/v2g9BYMHu+JuN/iHa1EPQZxGgJHzo9z3MIC7DSopy2eE2XD97/bPisDVvzPnMXIVYJTeXvDxNb6yPNe+7puDva9M9wFNf6+ylYSB1FQkq4czVXcOA+3n/hgVoDOfKZWya/YVK2dWrABWOuUhEZNwPnL8Esvl1UUsWXSCit6L9J+oyNg5iIjc7KZ0ueKJEHDtt0m3i2fJPxeayRtcDQFco6L3IvTGqPjvdh/XmWfLdlfap5Kz4uVGYGLSjXnSl+xV3R99BlWE4N7kT3vjDcbtwa1v+t4G1rayEFaGp9lby5asqeofjQCEmN8YgsYYHcIHUzvWT31Aeam9tMwMWNYcKiHVwaY9EyfB3/V/ErKXE8RebpD5Ae6n18HHNzAnL/nGHkTm2jIKHP+7CNh6+lH2bx1i564vgK6YObm2VuXTOjeft3Z18daKK8CVrOY/8VpGEnX20wkEe9G2spDdc4Ns2FjLhjLrKXysvCtJy67HpSbtH1r3YmNZ9HKkqhTOe7qYpYTrT76Bf2WJPWvocAYHP6a+cf7vTNU9EJ3PKmz6Al2mDry/PnwOFcVYy+heb6d084qMt0neytv0XBM/MNa0AlhhL71sLAsv/1OblJ6XX7if/XPvoDV4BU5ZgS5nfiwz28s3H5LlQk20zcgnf8O3yNs53fhklBFg5/NWmxXt+952lKKxzSVUP9BAZWMDtFr3UDbfaJqpuvMaQNfHVHZhn7dLGs14ojpl+JMQ/hRSAKTi7AA8x+vkLz2Y0t8Fr0Fz6JRydImIeDClQa7VhbB6m5XrauHZ1bT96fWohIuJXPhzyJptRSHzCwHun8jHFX9GmAlwtd1/0XWshScG4YsUEwRNsVgJ853i5TOLxwS4OmpCrsGsM1+N86lYaYLO/rx7sZ4AJ8lplUgxWK8HnwHMzK68A3280hqkbe1p5vlWAIUTuSQm3wE0s2A6G9sp3dxHZ3/JxDKd1J+oVj1QyEetkGhAVjwRoJjKV9DfNwcGzRNt/+T25cp/4ngRg8lj4uQDXt5vBbTMix/2P/8FW18dci89WQSctnrDOw9eo/XUdVf+k03nP+dC7+qY57MEUkoCm4kyEn7SnPlAl/P18HkH+qhs9Z4Xxy67n3k7VtUDhRQTO2l6LvjoM7CCC9jBhVgJljNxjNLHSibul8zVPe48VOGlY1ZOr+l7k6GZWeW8rvbvWqF0cx9+SqasTZpJb5TdUQwV3UEqy4Ice7WPNU0h5vmsGVxqk1K3tSofqvLt3Fv7g1+wlXfxVf3YMcvqC4oI53FMlW+u98BUwdx84ErMF6QYme4DGubhnsmPNb+x3ZWXNZMyVXea2YodD/Zl/SUFkL031Y4Cr3Wfou1+cL4gK56FJwbh2gsxX7wlIiLxTUtOrual9/DcE51UX8NzTgGzPHH+3QD3eFqWCNa69yVcpPgn2xNuN9UK5uZzA2D4v+2fmTxdRqanqv+uJ0QVIUrXJp47UfVAYdRykUhmqUvPO/Fz6YSfEru3iTftPNY26ZrMMigjk0uDjF+sLKSREui/GLVMJxXFcwuT5rTI5hKQeMzSQZN3ZDJ6ewG+Zum/3UEqg46lfnjy1R9HLR+J9PIL98NTc+zlI5DZ5YpeykhFMbRTEpUXKd6yJK+OjUBeWUPCfHNOY5tLoKbWXvIxmbIbSyrl0Vy3VPPsZYsz15PJdzXWHWRNk5UHK5bd/dZys2NbavESRDLHMEvfMln3mO/scDlQ/HRaf5uuZN974zt9HC63ltA5r239oaCrfstUmzSZ8qY2KbGZ2iZF8gFb9y+Ah+/mxiffhH8+9w763geGYy9l9wG+pfmufJCGl/QTgwCn/kLR0tlAvmtZYjzZTlnhB642rYDyqozeU0Y6dWeic01lWWKi8mYHdyPy0YG3ZbeTYSec/5fohPNOJh8b115Imt5FRESiTUuQC6AuAL9a18kvv1zM3n2rmegCxFV9YpDneJ3i1db03nzgubKnqL5GwoSMD+bfwwVg9L0LgLvhmE6LFsEIdzD4v78ArE//1vOX8D2cvWMWzy2kHewO/jCQt+W06/XJYHV62ylh96p2nB2AEkmPHAAAB91JREFU3SdDdjLOUqCq/mkqW2H4ZPjpn3mTFYQTjFa24sp1te1kiKqudjvYZjruJtlw5Cui02E60/GSkVYf6ItKcmsS5/6iBvCtcJ2/8zNOhsn9svudPqpaLyYNOMZjXhhQvdH9OXb3Y1/rNT6g5umobbKpCPDVzqH1FIy0v2v/3LxdMRX3zQGY7QqY7Tx4zfV6d7De5ug8FliDDmvZ5PcAazlK69YhnIMTM+jwskQlHV7KiNlmW2PI9R1VHuijnj47WW+qftdjlaVYg85hYPeW08TK9WOWb3gtu16tL4b28qqoOiUWUx+km5A+09LJ+dI4EWhJFpgBXPWdScyfybrHnL/zXI6NQGVZA87rO9X1cKLAkknebgJWmWqTvJa36bgWx7ZEz6p75aRVBtY8by0fVJuUOvOmXWceRpM7smBueDHDk1X5jHAHrc9/gbOdaG0ftRPKP1mVzyB3MHgwHDg5PwwjwQ95snY28V4iBNB68BpFfI2vyppmaF6isn/X11EJ67Ml1n0WL/9iJqRTdyZyeG0JG7oK6TmQ/N5P1gc0wV1TN4BVL7Y3Bl1vFs0088KseAnnwXqoX7GvmSVf7uHyuu16s6KISBqmdLlipNWFMH/bf1C9r5m6gXcgEH6r4S97F/PavnAg6ld3wept7mnZdQF4oKCTiiMvuvJyOZcV1QXgg9ETVPSutre5/MRaFv7pYNaWK+5vH3UNxN8COweQyQNRBDz56qO0Pv8unLJyCL386t3s754D56/E2fPk7CiG/voG5jc22NPGxw6VkPdgrb1cEaxO79XuWuZvOe3KoXO1vhB84c6Fyeszf2Otvb/wa+vDx+RQkLyNtcR6tT1YHaGOphVUln1s5we6Wl9Iy/NB2JhectQ1PvjoUAOVG2vt/A3O4+7bXELeluvQ5d6/87Xy5vznvRlk/qoG13KaKtJfclH/WAmNG+FweR/43EGM8BKi8EAub2MIqHWdv8ndkndgDnmrgpj8Jh01gGMqv8m/kbeqAWcOlEwvtXIyua/27+qCoJVrpAgmXt9u2XnwGpwKDxRa38fOlWLeSLXUD5++9GNad3W58qi01T7kWq5Yswj2f/IAIyvCeU3Cx7MGHT5g0f4F7FxxCWf+E6s8ZicnF3grI20rC6nG/R0dLsd+rXk6TPLcWE+k/UBF0wryyoKAu3z7V4b/7aXseuW8XyPzckXmAnPWB85tI9/alkxkDqoN4KpfUlma07G5hMqyEvvvnWKdV/1jJTS2xk9YvKEL1746aqC0yX1dMln3XN1cwvwPquxcSPVAR3ctlWUXMYNPr/VwKtc1UT3c2V8ykYQ8OqgSfvNfH6Wb+yilJGNtkpfyNtVtUiklfPTvteSVufNl1gNtEeVNbVJqioCRFx9l54p3gXC74XzzodnOzu244jpgtU9ba2eD/8f2NjWnH7XyRJ7qirsvsIJrzv08+TAsPR1edg/hXGE7n7+Cs1168mFcS/QzpRRi3meRdVjegT7Xw09nHqxU62EvdafXe2yND+Z1N1jbtsbqu4V/lqwPWIqpA937SvXzpcJ+YdaixAnng+c/5zlep27bQbwsaRQRkWizxsfHxxNtMPb1X7l99m3MYtZUnZOIiMiMYAZgh8v7ogbheQf6qGoNTkuOIRGZmfa3j1IQvOJ60HIrUt3ptncAOFuh4JWISArGGefbb74j744fpPR307ZcUUREZKYzb7SLtayuKgtLfEREbgaqO8NMwvknPCacFxGRyVGQS0REJA6T0NzkZzJM/pZ4SxJFRG5lqjvDzEsEUnmjvIiIpE/LFUVERBKIlTMGUs/tJSI3Py1XDFPdKSIik5HuckUFuUREREREREREZMZQTi4REREREREREbllKcglIiIiIiIiIiI5T0EuERERERERERHJeQpyiYiIiIiIiIhIzlOQS0REREREREREcp6CXCIiIiIiIiIikvMU5BIRERERERERkZynIJeIiIiIiIiIiOQ8BblERERERERERCTnKcglIiIiIiIiIiI5T0EuERERERERERHJeQpyiYiIiIiIiIhIzlOQS0REREREREREcp63INd4ls9CREREREREREQE0o5DaSaXiIiIiIiIiIjkvKRBrvFZVgBNk7lERERERERERCSbTAxqfFbqf5s0yHX7LOC7cRhXmEtERERERERERLJofBy+G+e2NKZbJQ1yzb79Nr4bH7eiaBP/X0REREREREREJFPsuNM4fDc+zj/Nvj3lfcxOtsH3v/c9vv3uH3z77bfcNmtWOCyWxrQxERERERERERERl/GJNFnfjfPd+Di333473//eP6W8m1nj497WIf7t7//gH998w3fMYpamc4mIiIiIiIiISIaMT8yr+qfZt/H9730vrX14DnKJiIiIiIiIiIjMVElzcomIiIiIiIiIiMx0CnKJiIiIiIiIiEjOU5BLRERERERERERynoJcIiIiIiIiIiKS8xTkEhERERERERGRnKcgl4iIiIiIiIiI5DwFuUREREREREREJOcpyCUiIiIiIiIiIjlPQS4REREREREREcl5CnKJiIiIiIiIiEjOU5BLRERERERERERynoJcIiIiIiIiIiKS8xTkEhERERERERGRnKcgl4iIiIiIiIiI5DwFuUREREREREREJOcpyCUiIiIiIiIiIjlPQS4REREREREREcl5/z8TjdI875yeAAAAAABJRU5ErkJggg==;" vertex="1" parent="1">
          <mxGeometry x="68.85000000000002" y="1200" width="801.15" height="110" as="geometry" />
        </mxCell>
        <mxCell id="BVHzjgU8pjvCvItrUbvP-31" value="原型" style="text;html=1;align=center;verticalAlign=middle;resizable=0;points=[];autosize=1;strokeColor=#006EAF;fillColor=#1ba1e2;fontSize=20;fontFamily=Architects Daughter;fontColor=#ffffff;" vertex="1" parent="1">
          <mxGeometry x="384" y="1330" width="60" height="40" as="geometry" />
        </mxCell>
        <mxCell id="BVHzjgU8pjvCvItrUbvP-32" value="" style="shape=image;verticalLabelPosition=bottom;labelBackgroundColor=default;verticalAlign=top;aspect=fixed;imageAspect=0;image=https://springdoc.cn/spring/images/prototype.png;" vertex="1" parent="1">
          <mxGeometry x="60" y="1390" width="800" height="397" as="geometry" />
        </mxCell>
        <mxCell id="BVHzjgU8pjvCvItrUbvP-33" value="&amp;lt;&lt;span style=&quot;box-sizing: inherit; color: rgb(34, 134, 58); font-family: SFMono-Regular, Consolas, &amp;quot;Liberation Mono&amp;quot;, Menlo, monospace; font-size: 14px; letter-spacing: -0.0444444px; text-align: start; background-color: rgb(246, 248, 250);&quot; class=&quot;hljs-name&quot;&gt;bean&lt;/span&gt;&lt;span style=&quot;color: rgb(34, 134, 58); font-family: SFMono-Regular, Consolas, &amp;quot;Liberation Mono&amp;quot;, Menlo, monospace; font-size: 14px; letter-spacing: -0.0444444px; text-align: start; background-color: rgb(246, 248, 250);&quot;&gt; &lt;/span&gt;&lt;span style=&quot;box-sizing: inherit; color: var(--highlight-tag-attribute-font-color); font-family: SFMono-Regular, Consolas, &amp;quot;Liberation Mono&amp;quot;, Menlo, monospace; font-size: 14px; letter-spacing: -0.0444444px; text-align: start; background-color: rgb(246, 248, 250);&quot; class=&quot;hljs-attr&quot;&gt;id&lt;/span&gt;&lt;span style=&quot;color: rgb(34, 134, 58); font-family: SFMono-Regular, Consolas, &amp;quot;Liberation Mono&amp;quot;, Menlo, monospace; font-size: 14px; letter-spacing: -0.0444444px; text-align: start; background-color: rgb(246, 248, 250);&quot;&gt;=&lt;/span&gt;&lt;span style=&quot;box-sizing: inherit; color: var(--highlight-string-font-color); font-family: SFMono-Regular, Consolas, &amp;quot;Liberation Mono&amp;quot;, Menlo, monospace; font-size: 14px; letter-spacing: -0.0444444px; text-align: start; background-color: rgb(246, 248, 250);&quot; class=&quot;hljs-string&quot;&gt;&quot;accountService&quot;&lt;/span&gt;&lt;span style=&quot;color: rgb(34, 134, 58); font-family: SFMono-Regular, Consolas, &amp;quot;Liberation Mono&amp;quot;, Menlo, monospace; font-size: 14px; letter-spacing: -0.0444444px; text-align: start; background-color: rgb(246, 248, 250);&quot;&gt; &lt;/span&gt;&lt;span style=&quot;box-sizing: inherit; color: var(--highlight-tag-attribute-font-color); font-family: SFMono-Regular, Consolas, &amp;quot;Liberation Mono&amp;quot;, Menlo, monospace; font-size: 14px; letter-spacing: -0.0444444px; text-align: start; background-color: rgb(246, 248, 250);&quot; class=&quot;hljs-attr&quot;&gt;class&lt;/span&gt;&lt;span style=&quot;color: rgb(34, 134, 58); font-family: SFMono-Regular, Consolas, &amp;quot;Liberation Mono&amp;quot;, Menlo, monospace; font-size: 14px; letter-spacing: -0.0444444px; text-align: start; background-color: rgb(246, 248, 250);&quot;&gt;=&lt;/span&gt;&lt;span style=&quot;box-sizing: inherit; color: var(--highlight-string-font-color); font-family: SFMono-Regular, Consolas, &amp;quot;Liberation Mono&amp;quot;, Menlo, monospace; font-size: 14px; letter-spacing: -0.0444444px; text-align: start; background-color: rgb(246, 248, 250);&quot; class=&quot;hljs-string&quot;&gt;&quot;com.something.DefaultAccountService&quot;&lt;/span&gt;&lt;span style=&quot;color: rgb(34, 134, 58); font-family: SFMono-Regular, Consolas, &amp;quot;Liberation Mono&amp;quot;, Menlo, monospace; font-size: 14px; letter-spacing: -0.0444444px; text-align: start; background-color: rgb(246, 248, 250);&quot;&gt; &lt;/span&gt;&lt;span style=&quot;box-sizing: inherit; color: var(--highlight-tag-attribute-font-color); font-family: SFMono-Regular, Consolas, &amp;quot;Liberation Mono&amp;quot;, Menlo, monospace; font-size: 14px; letter-spacing: -0.0444444px; text-align: start; background-color: rgb(246, 248, 250);&quot; class=&quot;hljs-attr&quot;&gt;scope&lt;/span&gt;&lt;span style=&quot;color: rgb(34, 134, 58); font-family: SFMono-Regular, Consolas, &amp;quot;Liberation Mono&amp;quot;, Menlo, monospace; font-size: 14px; letter-spacing: -0.0444444px; text-align: start; background-color: rgb(246, 248, 250);&quot;&gt;=&lt;/span&gt;&lt;span style=&quot;box-sizing: inherit; color: var(--highlight-string-font-color); font-family: SFMono-Regular, Consolas, &amp;quot;Liberation Mono&amp;quot;, Menlo, monospace; font-size: 14px; letter-spacing: -0.0444444px; text-align: start; background-color: rgb(246, 248, 250);&quot; class=&quot;hljs-string&quot;&gt;&quot;prototype&quot;&lt;/span&gt;&lt;span style=&quot;color: rgb(34, 134, 58); font-family: SFMono-Regular, Consolas, &amp;quot;Liberation Mono&amp;quot;, Menlo, monospace; font-size: 14px; letter-spacing: -0.0444444px; text-align: start; background-color: rgb(246, 248, 250);&quot;&gt;/&amp;gt;&lt;/span&gt;" style="text;html=1;strokeColor=none;fillColor=none;align=center;verticalAlign=middle;whiteSpace=wrap;rounded=0;fontSize=20;fontFamily=Architects Daughter;" vertex="1" parent="1">
          <mxGeometry x="-38" y="1810" width="1016" height="100" as="geometry" />
        </mxCell>
        <mxCell id="BVHzjgU8pjvCvItrUbvP-34" value="" style="shape=image;verticalLabelPosition=bottom;labelBackgroundColor=default;verticalAlign=top;aspect=fixed;imageAspect=0;image=data:image/png,iVBORw0KGgoAAAANSUhEUgAABO4AAAC1CAYAAADofrCUAAAgAElEQVR4nOy9fXBb13ng/dvd7DCznmG23gVqYkJcdyolGpvKkgTtpURqbZmeiAaWAeHGttjGsZVQpkxWF21ImY0sNVtLccuYbMOrkDItemXZqSnLqUGEA5jK+iNbfUSj8GsjOiNHytQA84IJMZu+5qxnwnm7w/cP6IAXFxcXFx/8kH1/M/RYwMXFwbnnPOc5z3k+/tXy8vIyFhYWFhYWFhYWFhYWFhYWFhYWFhuKf73eDbCwsLCwsLCwsLCwsLCwsLCwsLBIxzLcWVhYWFhYWFhYWFhYWFhYWFhYbEDyMtwtAI72IJOKVOTmWHxcCMyDQ2pjIdi23k2xWEfEOAi0S0Dc8BprrFhY3DyIeVssPaB/GhySRL8kAVNFuaeFhcX64FCmcEgSTB9b76aksAC0tgdhPrjeTbGw2PA4lClD/d0iFaEX6cm9ScAhHbP2OhYFkZfhbg4gFC1KA4QR0IxgMHtttutag/FP7OagWEK4NRinVZIs5WeD4FCmsi4G/dOsubG94/UpuhnHNxgAbIbX2L3WYmZxc+BQpgzlX7b3s1GMw7HWYNxQ1ueyFqy2cT0wDz3Nbbg90EMjC8GhVfkeIzLpDcKguNEMEGpu5sOP/mksXeImwWhTqqZ/GujzMdYJVO3P+Xtag/GMY1lvvOQiLw8G44RDMguXwzm3ywxic56PvMhnb5LNGCDkl/p98RnLIJOd1mAchyQVfKgk+tzMGDV7bbbrCt3vLQBuoCMEC8FDed2jWGQ7KMz1ILFY646RrNpo9E+TdTxMAv3SMbKNcyMbQP80n1gby1rwqUI+XC41FqsdReXCPBAKU6c0kslYYLGCQ5mCPl/W68Y6wSVH1qBFNycPvfQezpOP0Xf6KJSt3dwQi2ulPM4Mbdi96ZveSaCn+RhXgOGHglDmTfl8ZXsQQnLBbekG/JEAUE1gHugbogfokfTH14DSBX2zGa9xA54fKnR8KQyMp70/ozRSGWkzNX4HPOAbnMCSCRaFIDalw6NdKfNIMAnQd4FnlUbd980wNw/uLdDUB7Edx7JufieBJukY0JvyehjokGqS/xbzMzBfjbtvCN8lBTPzIXQ5jptx7HcrOf+WbATmoaO2jQHPOL7BCfqnbVQ2S8Sc2X93azBOWK4xvMYItbzKtb168mi9ZEwdQKebSlk21W+QeczASr9MUp31mlz6zuLjT/809DQnNs9NfUCf/kbaaPyEI3PQN87w3cG8ZagegXkIy4eYURqTelKx9d/oNOCZxdE8zowyq6uP6bEAhM9exOOB/unyZB9qyXXe9Zybohs2xMFoLrrmmNJI01m37rVuYPiSkhwbha4D4tlmkokbde9zfhqgF9eOrlW5vx14Vq4mfFVhRJbxe6cwGnfquV8o6jm6AHQcCTLgGcclT+heH7ocp5txXHIg670XgJ4TQQY8QNn25Otm2q83/4z2XhuLOB2hRmivyainNClTQC8tQfOyS42Yi2NKI8yXQ1nhrbZIJS/DXXQeYJZKeRzk3CapELiO18tTFssOUjcYRqiv1ROoKx48geREjI125XXy90nBaMORXGwp3LAjaA3GeZZDqyrowu8v8sYrrxE+F4YPEpZ/J/DDFx/Bfv93ivpdS8n/rD12YFiuxkGAStmnu3FrUqZw05ui7Kg/Hxv0AsYKshDI6gU1E2Kh7WYcfySAQ4EZaSjtcw5lirHOXsrlCJXtQWZ2hXXv7Yt4k9cPXPWljlVlKmX8io11bLQi2Q8OZQquZlfOLdYWPUXeDjRs20S3fzf2bXvXrW1atEqdo7kXoeCrlTmhTFfK6K6PYv6Y3TCqv0eLWE9dZV5ikf3AyrxvDcbxnNVX0EKX44QZx1E7jlauazdFk0BYPp3wniniJhpW+lS9jvurgNEIjmaJ2ChZ1+18DUitwTgUsNlT6xSrsUaqyWXDazRe9NZ5rTzX65ds1xhteLTjyWJ9MTI8AwXpymIcGOkIQo9oURrJNGdn5GoqryoEjsj4BrdTDEP4JNBRe4yxznHs3pU9Q0yuhhyMMtn6T43RHkm7d1E7HPiqbPgjEV1dJhfE4Wl9J2wEA7tW12wNxnkyUgNyhCbpWJq8j3lBq5f2T8MVHVmjXQf01j+HMsUYvmS/a+W2C1LWUaFvao1F2QyFQuYtlHnT5LaRMVuL+lrtnEoxPlXtTsrkXGSt0eGNFqMDeEisLf7BCfyRzHMp1zZq1z2tnUD0iTB6hzO0UTs2RqbBHZJ1Dy6N1iu9tXHYa6OVCSrlmsTe6zaNTqCzZuvphmthHPZX2WB0iI5mCadSk/Z94lDazB5PD7VO2ySPk0lGblRD+M1Cfoa7X4Ob8YKUsZgMyJHk4B5AznpSbeZasVD5R7sws1CpJ5elYK4N/dMQlmvYCllPcPKlIzhHQPax595PM7CnmZLPy0R/tsCFuTlYWij695UAr7fdCW36p0FrwZhczfG+Liajs7iqVl5vDcYNPYTMIDbvAx6we49mvf5gMA4hGf9oF5NU080UlfJ40qgoBLwbcF1SEl6DW8pTrvkksQj0vDJFy5JCRetLBd3r5PQiS997jn0v7gbuLEr7Vhv/DqjrGGKJUibejxN4d4Iv7j7KjwavYPcU38srX/TWCLUyJ5Rpvc2v2NTanRXJ1wrx0NJuYPQ2lFqPuxmlkQt3D6V5nUAGozhwPBgHejNuOPL1qjE6CPBXgfNSBEdtGzNKfifZYlNixutFbXjKdIjoaO5lwNMLh9dRxuep8K62YdFfhe6GLdMmeyNTTFn89gfwzsBRvv2NmjX1wjfCVwa+SPp8WJEf+WHmkFzoftk2hnZg4LCXjtowdcHCD3gXgKb2IAOe3oweO7mSr4Ez01zU82oWey1uc6dc2xqMs1WuyXpgIe7pesj8GhqYB4604Rs8ihWdkJlMa5taH1AbKsV6NNbZm1WGm7k23fhkHA6rNtKJtruoTjvwg4Qu0N3nK6pHtTCu5XMAqF33Vn7LLJDoiwFkfJFU3UXMNScyUJ58redEkJkbERHimpldYXDmJ2eGvTZaIwEWuJB8Tc8hIhedZLXwV0FPZ4Do1SFcrOy/RbqSsU4yts2hTOk6YKRETUSMHYDcITkneWSRTl6GuyvROFsBysqL25oCUbvTUqVvXBAGCGGZdwOxSwqtuyYKOn3fyGg9O7Qei5DdtbhY6HlYFJu3FyEgv8BYZzku+TQJsxqwDfatyjeuPUYeDuEMnj56nhhmlU/hsec7nD20TswxcW8X4JKruSJNMHmuBlfVfrp3VNPTR9KYKFzyuaowGQ2nGB4/CfwOOPmTOR7c8m7B97oQXWLrWy8DN4+H4edKoX6bC7DRsA1aHvdS217DG9+T2edp42YxQB4MxhlAhqr1Me6oDYtqj4MFbFS2B5kjTMeRIG4PjMjjyYMTEd6rTS8hQsv05IRQ1sY6x3OS5UJ57aaXYYONga8MnJEhKqVjDJyVVjUE1V8FLZGI7sGg1iARmF+VJuSFnleJUJDHtshrdqq9ABxsDzJ8mJRNmdAVF8rKs3oMOmplQM77tL9YFFMWz/4z/ObMCfjG1sIbVkQcyhSxHRdS5rTaSJTNG9jRPA70JvU49fVGHp8CrSea3oGIrww6OtuAIV3vFTFe1DSFSPNQ0jvwL2bEh/Aa0841IR9nlMwbYYEwamhD93rOTaW9ZpZ8PKWFVyKM45vOz8tvvdDzCNMeXAE0QfpB05bVbFnxEalvjJ6tcGIR+71uIBYJ4FDqDOf2AsDVOZweEMauYiA8Sl17ixvWK/oiNtqFGf3gYDBOd0jGPhhI/puQDLsKO1gZlqsJzFerDk8rsn1k1THyqEyMi3SPOL2D2LFOKJcjuIGD8o0UBiRkUuDX0NEsvIKHbqwtp1Nkh2hHpqgvi9zIy3AXjsxRbDWkI2Q+VBaP/ssj0yQmoM77QpnoBtyKwlZZe1qyMY2RxUCEAmT0WFTWJoGkmTCKYjD7S4CXb+R9KFm171lPtB4O2U5yzJ7Q6iE89szm7FoJN0hl2GsDEm1uqYIej0LghIxvcDdgS4T8mgjZ1UNPfojNRZIMcsNi4+EE2FLOUgjWLQY9R8RG6dkNnFu1SR5nwDOOc3CCJqmClmDi9PR4MI6b3hRvDzMHYbmg3nzHRrsI3BZJJLo3CDlLHqxdnqBDMvbUyRTCpg1LuRnDNLSn9+oT7rrDE0n5P+DpxTc4QWzQi0MpB2llvc2UDkEvnE+r35m5Jgz018r4I+WINSYcmePJTrBTTWywWvf7hVeepdCvDSInbmtzL8OXnMk+vxKN47lhJIrJNt3w0UxpKMakIZo8SkZjsZE3npFXZkyuBhLzXYxfvfFiZKwWhynqVBph+RAezzg+b5xcZbXWY/FZr43KdoVuSTKlX+l54ujtXYQBRavbJAwUu7O2U3hKm81Fvlaba+2hcxiShgJHM0BvztFPw14bePVlei7yRe9AXOuBPdYJSPkfzOUSKpsJ8Wy1hFkxaA94gE6FgavjmkOvqaIb5dRkyxOXppfrkIs36/FgnG56oSq7A4qY+8M3IvLUxm27dwimTX2lLiJiYeDSBB21+d+nmGhDvyFzZAXoy3c1T8rVNPV1Mfm6nJwDvttW5OEC0C2V42juTXqLikMdK8d48ci5quxqWeMHPBCLTBCLRDL+zUQikCFsSrh5qv/tkNqSAiQ22kUsErlh7DB3ehX+5RIPHTiGo6YBhyTR2VzP4vSJlGsWgf6z17ln91M4pBoqJYmnv94AH4wbXtO5u4FrZ4+h3pSqK2Nd+wg6lXEc9/iS91z86cu67Tz500Xu+fphHFIN99RInDz0OPw23RgnTjz06AiBQ6pJVk9S/1VKku5JuVgktNfrVfVRK26rfZpu/z2AnUSvTma9Vl1ZSN2PTfdIhJWn4KPrKdeLql/XPpri0WeDOKT65O/VVgRLeZ6LJK6vaaBWkjh5wAeL76W159riynN3SBJPP1bP4s9ew6FMrUuVHrHQwY3Nm8lKaaKSWaY/MaaMxl0ulRzV8mPgUgRoTM75WCQCnea8SsUzXGKK/rPXqW1+Cock8egXa5h86TCJ2ZxA/XwDv1yi9rGjaW0Ov7+YIkMe+mJN2rhqDcaT/dHUh+5vX/gXePqli9Q2t+GQJGoliafbfSkyQci8sFxDD+CQEmPokiJR+Z2LPC1JsJjuRTLyATikx1k8+1TOfZD8nb9counAMRxSPbWSRP8BH0u/zJ4DKBOLAHMLVDwKsCmv79L2fWdzPYs/TZXf6op85+PQdOAEDqmee2okws8+Dv8yZ7rN56ehm15GnOaqe8bkanyDEVqDxnMl05+fYwxHIimbEbVMDss1yfklxteM0ohvMIILG92j+zkojzM5HyQsn+ZJzel9pTJFd0g2rAhtlsA8VEptzOwKJ+Zj1X58ZRCLDBmu+eL3DXttxCIRKiNtGeWg9n5jkQjQxYzSmHLPbEY7rUzKtAlxNPdmXSOLjRivoVqJ2CU3vsEIF7DRJB0CelOq/8XkamYiESrPug1lqbZ/3Er6pnRGaaR7NJKUqdpr7MDYoJceugi0+4B40osz3yJmxZbF5+PQeujl5NradI/EyUNtKbpSsWSxeE49zVLKnAy0S/T85P/BIdWw+NbhtN8cBRyPvUb4gAQsroosTiac9yj018rAVNLjy7kFcp3rMbmacgOdTnjEiFxca82w14ZvMALYUnLvFkOuwYoh7ooygUPypc0zdWoEPUTonpYL8+AOhYldUohFInSPJjxeuM2ZtU3CIGGWwDw0SW1Ab0EpVcwivL/cygRjnSRldWy0K6m/mcWhTBmuk9o5mOmvX5LwV02lrR/avWmhhz5jnRiueerv1kOEm6v/LdZ7cdAVi0RujPn1cURRt0Po39p+FPt5Pd3dLHMk5Fa90kh/+xzZ9kfRXwOMJ9fuJklKC583Git6eQ2F3j0jDSXljPY98fkmSSKR/3g8bezdDBVYXUD36H7O9wFcTHvfDvi9NgYuRWjqa8QhSXT3+YhFAml9Y5E/eVeVzclD7garddItFuOxznGaCMBVX/JULN8qN8//HJ5/YDfdrZ/Gf+wQi5QwErrO76KzlN4I44sCX/rzIJ9+Q6a7sxGb/zmWKOGNn8ZhcS55zcMHxuFMW/KaRUo4GbzOPU8ojHW+kxrOCUT/P/juoSB/9gdhfH8jE18q4a9eucjPvnyYH4x+SInKEt4RnOOC7ONbHRXYWp9jbqmEnuff4foXfXz7Ry/BrTuT14Yux4FxokBr+2mGD6+ctuZTnMLoVCyqCicS3l6xNapA9+Dt8GqnzJf+wsezsRbce78DpcYLWP/lD4mOtPHtPQ9A6wME3l+k9VtDDPzTbnx/F0C9AEaB578TYOCPKyg9eD5re87/bzj/xDH2PfghbceO8ObcEk8fUPj0gpuWU+eT9578CJq+egz3P/fyyje6KLEfYHJhiT/Zfxp+z7wSVixE2MSAZ5zQrgBhOeFe3z8NNGc/XS4kZ6Q6347W3Vt9Apo4fa7L+f5G/A74RnCOz51V6P0zmaWSZl46F6fpW0cYW5xNm69vzEHF80e5dOwxKD2UfL0zNMdIewvdHvD3HoASW2Jcfe8U3e804P/7ANxSzZ/dXcqDp0doHbjItz97jM3ekcQNJHvi938EX//6MTZf7+Uv//QRSrtHiC9Bz5lJQl8+zA+VCZxehbpb4cxpmf6LPpxKG77TR4BN3GGHfUvbeWbgTrovv0Pp/SsyAeDkW+/ht71L6b0jefVB//QSPc27+fbD0H36EIuU8swr7/HWfW2MvXkI7sitwMTCEvzVyBS+dw/RMKoApcn3zH5XYB7+6osH8Lcs4j92gEVKOTg8yS++fJQfjP2Oki+kniaOXIcrAzLdnVvhwe8wNLVI63cOceZTPuqfuoAZz11/FRBJnDBeyaEiopG3QC6oPUHMnHL6q8DRGSBc66MbUqqxBebB3TeE/5JCMWR2prxauZJrIvl80PZZJh1iLYtTwErupNglBcoiKW0TOYtag+VUyjXJCnfCqBCY9+KobSM2upI/1MgzesEbwdEeZGyLj1gk4a1/RQni6JulGykR4qwZsy5g4NJ+OmpncSo1nN8RSfHizCd3VrFkcf/0Ej17H6dl0zXOHJShNLG2Pv23p5kY9zEwqsBnvUWTxZuBM6cfIHDdRfRQC/7B/XDrdj53C2z+wn+k/442fvrjozTcfwC1fAv/HOw/PkXD6f03Xo+viiwWhtYmKYqz3ZfI26gKY5sEzkvH8EfqyGX+G3kTGe0Z1Bnc1GG3xc47fTAYxx2S8V9SWKDadMEXgXoPo/VOGfba6HdG6G+Wcuo3kass7GlE7S3c8fpUwtu5LOHtnEuKIlEZ0gxChqxHju9wZI4nDd7PVARCPV6yrQn5evSKIlMbiWSIrKi4i5yMvim02JJgDiAUNVUwcr3zwpezsr71yG3UK8ZpO9SRSmJcaNP/5FKcIjAPodo2YpfcutfXlUG3x41/sI2NUBymGAg9tzWYmlNRm87gZoxsuFnI2XBntgKlGjNVmAoJlb0wDwOEE1ZzxbyHhBHPv/seLUzRcnjFOOHeth3+RdXm4fcof0PmB6NdKca0hm0r1zwTjGM705Z2jXvbdjq27eSbso8f3f9yyub2uAI/+sE1Su5a2ei47t1O7WPlnDz4FPvevA+4k8A8BOSjXPo7F84HV6793F3bafryp2l54zkqWhOb9AWAsxfB08iV0Dhhzyz9tb03wlpWj0p5PJEDyaDSULEpAf5eruYbpWFav9XG5pF6/nKvl4aWA7oGvDDgOXsY/+kVI1r9NvjMH+6k4yt1NHheoPT+I8nrR4Cr25co/fwjptrz1kvwg1EoqTqUvHf0/27i5F/U0/LzcbhjL0vAN1+cwver3uQmAqAecLp2MtmcOBlfK0Qy52568Q0GCAVX+q3ltjgHlQkcUk1Gl3Yh3APz0JElHE6N2DT7ymzJjb7a3VvXzftccfulHxi7PoRrMIzYEDVsg0fLq/nmX9SnzdffnYGW6TooXfEMC8zDSPtRxjptKRur+m1Qf38jHc0yDd8/REVbmIqyEuxl2+GVOF9wgGvbikewGBd111PHBYD73u18WamjX/bRt8ON/dZG7Nvu5KUFO06gflsFSdkFPHPvY5w/+xRu1WZxFpj9h4v87d47oWTle832weQS9Bx8gTF5CVdnIHltxbbt1LbbeftVmYajj6DenOqhlf97tsFfvpz6e3P5rlLgH79/H6U7VuZoyRe28+gdC8z+j15cGsPdL0bGGVb1713b4D9/WMqbAy3U77sIpanGTiOMKiKa9ZjIF3XIZEgJ0CH7MoaYihw4kMgPVK+sVNsrlqFNSyYjmDA8ZdtMZ5I3RrlcMlVwKyTcaT3QGniFgUOdJH3YC/3OCJXNUkpeQO3zNFtNUJ0zTKDNJaUeW74yCClHExXl+qS0/FwdIXSr2WWiGLJYyI2BHddSDuHqgfr7d9L0J8fw9Mu4n9tJRVlpUWRx6a2N1G/bxOSnN/EhUF+9OdkPdqBhTyPhA0dp+MZFuHXFw+SNc++x7473KNn2XM59kKssFt4THc29EErkwKLqhqfwPPR4wNmuH1KVCe1mzUyKDm2orDDEFMsQof6esFyTHJNGexkzhfDqgLHIURzSadwkDEP+Ki/c0HWFd49Rrit1ovxwpA2uJvQk4a3qU+XtCkfmEqHMWbyohFwfULrokGcNr+0IAaGadTXAlEuNGO3atEUgMoVWZw3R1MmJCJkNDD039Eo9R4dCKCRU9vw0jHX2Uu6NwNl0L81iks3wUuz5WQi+MoiODtHULBHbkV7cTutJnJIXr4BnqqcnqV+7MA89oTAtwex5Lm9W1Aa7sU5wDaaPmfXIu/txJudQ2UIwCpkoJFTWVwa+wSHydcNMhgmoFsWttlLOA4s/vZB68Q1T5yQw+fw7/PXBO1MMcmqiQPj1d3jyYSipeizt/a95y5m1Pcbsu6kTes8OKLkr1SjkBPY8+gATPwd+lQize/XHc+xjHKcn9d6uW4D77+Pa1HuISkMj0+BBhi1uPB6YGTyayDHW7gPDZbMwZpTGdZmopcDw43fyP6+cZ/NXh3j02Skeuq+exXP6GxV3y160CtGDO0rgjjau/a/UEGU3UHqneS+vr+2CkqrmlNfq/lM5s9wJH30I3DCgvHyBJ/fembIhAPB9Fmh53PT3FYoQst0hWVfhtpfZGL7hDu1oniXQLpGtopU6bDXTn9lwVj3U4W0dtRJqd3iHJBkm49VSB7j+6DG0XlaPe8qZ5atEr6Zu+Ot3AbemFk949cdztDCO6yttaffxfRbsX32ct0+8B6SHS6v56RLM9oV1x0UJ8LWHqhmhkYWf6IfAC5yA+8H7ePsM8NsVF/e3p6Hh50NU7EqVIWb7IHR5ibqf96Zd6wTc91cz+wpAari5Hv4dcOb0EGdOj/Bt5SWim/bznx94jvN9LYhwsFy+q6GMFKMdwNZbAE8N0V+Cdrx+rYWU/i0BPHdX8BuAxZVwNL0wCq1HgB3o3utNbIqm18ZTVoQKNkkSY529yTCZAQ+MRSaolCuSaQxEaE1HrUQ34wlP6M5AMjRQpA6AlZA/vbARMc/UIYVmQt21YTR6oZnacKJsITTCuJ9NxpgJdzIbKrteiOdHn4+xTuFBsCKj/VWJ0LOOUBcOqUY3bNuov8TzmFEaoTOQ9ry0f9oNybNeW1JPq9u1ku/RVwbdo0OJjavJFAjFkMWhy0tU/LwX3942tGu86xZw79lN6AwQTw/9UVMsWQzw4I5yRmhk8afvJF+bBGZPvIN7z07UxXhWUxb7q0iuu/WdIMaRqwwGDu+nI9SYDL02QhjBxLwSY3SrXAOjAVolX1KmqBGGK22YvpbWYNww9FEvvFktf7SpdIqBvQxc2IhF9uO5FMFRG04Z11ei8awHNXPAAFHs3tQcoseD8UQF6xuhxcniQbuM86eqo4+4W39fIg5lhdF+wAPDkYk1N9qJ35QtlFiLv4q0FBGCbLIql9RLyUOtEIRDvcmw8kIpJFTWX1WYF5Poc6OQ+ES01GzWFAfhSG77Ru26mkt6Ce28FiGnalqqAI9C4EQv2fYjTcoUM8rsqhdf8ZUBnW0clMd15d/NijoUX8j+YoSRW5gj71DZjwNaT0D16Va3p5zWHx9hy5cPs+fe13h8zxNsrm+GTyVOK6PzQHyWzXdkzpcXBzi3QMXfbEfP46Qc4G4n0etxKlhJkvu5quS7Kdj/QyknAeJR+CxciMe5ADz/uRbd748CMMcCNnpOBInt7aLjXOK+IlQi2h7N2P6PA5tLYVhuZPYrjbT+9Wv8l688xT+++GGKB50bKPmD9HIrdoA/sBP9JbhUz2czwGfNeyom9JLU63//9xKvLcSuYcfEePq3K/9r5MGq510iEJWU1WhPWrMZ7dT4yqAuMkRle5CQVLOuLvPq8LZMCbS5as54VwNw++a01/99KYCd+K9eRq2KOz8P2ud7IR7nwR2kbSKT3yGV84s4EJ8DW+aKqfHfAsxlHBfOMoAKFj44lRivBjy4w0Yrj9B9LoDd28gScPJ/XORbnjjcfl9q+8BUH0R/u8gFwHHPU8BT+l88PwdlxmEC6qqy9cAe7056vPv50y/7+EfXc5TeeyTn77r2Wzh/7iLXr7/HL6YnuLawCO9f1C1SUr4pXUnVylvQD6PQO3n2V0FPZ4D+Zp9u2JRelcR8GeuE49IE7pCsOweFkWaB/TAfp+dIMO13xGRYkBNVVZ/cIidf10tuLMi3quxGJ1uorBlPmtVAK/eNEniL59Ya3E2lXAOycVEo9W/shmS13xgQeCiCo7YNkE2Fv9gBtpRDCC6cTS0AkG1eaCmGLI7+dpF6gD/Ul7NbnbbEPJ+/BrbMm9ViyuKGMuBhH28H2/DtOgDYeOsnS7jjp3DuSM19t9qy2C2VEwbO94FLTlSZhhXvyYNyjamwf7VMEznMoDrh6fcroL8AACAASURBVAa01soMXwLKvMlr3SGZ2CWFBSJA5kIRam9TvUIXRh4d6qJolZGAaT0gF/Q8b8KRuYQXo0FoqwtwDYo5nDCEJIscjXbhaL+YskbYncYVOdXRR+p0NQKtDFnPhPHHg3PJogIugM46HM0+RHGK1IBYc6iLM5hGp6Js6HKcbsbp6exi4GrvjWJOp0Hy3dCLb64ihmr57gZcD+kbLGFlfcs21oCcCjpqx1ou6SW0686Kx/iKR6kdGDjspaM2TF0wc8VoUWyvEpJ7paQ+lGNhvEyh3FrMjMtih5Ya6ZjZwqD1Coioq3SrDf9mvfch1YPfCqXNH1OGOzOhrpmIjXYRZT9mBcFaYhQOVHELXBr8KuGfNzPy6mvc89gLtNx+mL6/H4LPrih3JZ/+dPEb9m8zv1WR+NLkv/13QV1naoy+4PcB2JSsqkXVBJxbOSURSkOHMmUuVPkmK5mupuJWOPPcI9R+9Gle7ZPZd/9u1Kfa/JvMny29FdQn2KvwxJOYGU9647YYVWXFPbrpNV19Vpy2tAa346itYUYJ636/qOqclTwqvyYqzxkvAGauEWR7AiX/TrMBNJivG4mGW8He0czbb7TQ4p3jp0vlLAy8Q8MLj6CVH7n0QQsk8+lp+fcAt6ZvOs1w/10l9PMA137Wi+veIzl9l8gv2FIFmx9o5IFH72OptJxHT94HFF4h1QwDD1XT0deYrNyqJlOYlt48NZOjZxiY9EZwSMeA1Ip9enI9kyI54CElUfNGRxs+lk2R1oZdFYKuTFulytUiLHasE87viNDTLJmXqST0MMe5umSV2cpIW4oXstrQokW93vRPc8PbYQWtAq72VukIkbaJEvPCP30Bqoyfw8dVFpcC/gd38sZuG74P3mHp9kfof3eS4YfjUJYalr+asljtOaENlwd40mujSe5i4XIYu1df9oixKbyduBEqpa0i7ThXh6PWh5A5Ax7wRRIb+YSh05zx6Eo0fiOs11zUQ8+5qRWjtVK4x5TZzTqkh5WryRSeKsIh7VURYoMQmPcmK0hnK+7hKwMGMxssRKhw0hC1TjncegBk+UYF9oQMECHSIm9YPuQS8pvJcKSuDt8TqQN6cQFjkf00SdASHGKtdIhioc7tlo2ec1M5za+NhK8MOjrbGJF9+L0rhxACEV0H6B9k/Tq7kU3t4mGUn1ht0FoPA3kmHbOQqrKwUrTsiqKALKcc7rYG4ww7T6d91gqVLS6mDHcF57vRlFjWs9CaSYSpd20xczPoDVr3HaW4j+7lbf9eHv3qUeqfbcM3OEHpLTbAzuz/eoeKu/QNkjaAHXZmpy7ibFlE63U3B3A5inPfnagnUPRqqoeX4PzVOe4C+GxCKav4dyUs/RTqq20p+anSiEypEnDquzfnU5yiEMwIiGLjBBrurWYpBOpqvhMAv45CWer1v1gCQlf4/cN3ki1HV6GUfAqghOj1SZx3pb63BPB/fmf4eZFIN1/juDiRy3eBGfbaCNwdobK2jZgzPceEmfLuuXjFCYwOFfROjcy04wroeib84gOAizhvd2VtV53NxsQ5aPnte3Br+onkRGSOfXcANuPTStutAOVc+/lFKnakvy/CGpyffyBrm0qAff91O+GBO2n54CKB9x/AbzuRUpRCYLYPfv+WEn4B1JeVwO3mqnXni9nvmgRGvjXKmFyakuspCnDSOISimPjKINTZBs5EugUzycXN5jHSw8g7DtZH5q4HmXQCo5w86s14Jl3E0dzLWGcvV6SJjJ7Kq1WcQp2A/fy0eb1H7WmhvkcMmJQjST1Ma2AQBs5JqjOepusZQUWo3oBnnLrBCSrbL3JQllM8tnLRJ4shi523JtKe8Mv3QMdb7ko0nrC33m7sQVlMWQzg2VZC/x1tRC+/yWzpI9iHRlVFKVTtg1WTxU3KVPKgzqFAU58vJUdUpgImavSKA6QUx7lhnBO5aGeURi7cPUSotg3f/MWcdHdhVHlSFdabjcShXfHyS2UrJqT2Jsxnb+KvAqrS7+/buxIRlCsOZQp3n+9GYRtvImTSADMHvYVQ6AFKpkI3xfC4Ox6M000vdm8AVI5pKXMhaE6P0NNPc8lxp762mIdOmQ4DRShtfZb5tQBwdS4lvVQ2MjqHFPmwa+ChaqAR5suZKwNCUcp3JZxtzOToz6U4RSbUuYbFOuibTjVorYcxKxkq3Qn5yJLWYBx3nw//JYXWy/prTGtzL8OXipMP0kKfNclxp831kGs+GqO/TLkO8mElBIaUIhQADTbgfje/+SeABepLwd72AMeffw9+pR+77gQavrSd42dgafpU2vv/PTiHK36Kiu2pxoo3QsAv30x57fxHcKHvFPc9aoPShKL24PY7eZ47iYbS761mWK5es0nkUKZ0c+poSenrIjPyM1icPpH+ncDbP57Cfi+ohdYC8PabpxC5tARDb8zh4kTa81kNKmzAvXWMvHwRPko9FX71l8DQC4afL+SUTOR/mVEaCyrZ7SuDWGQob6NATK42/f2izHrd5TZikSHdfFh6efXMtC0MXHsrNd/eEtDz6kX22C5SWn2f7ufUPLitnBF2Mvn9IdRGYoDAr2Dh5Zeo/6NqUrw+4YZ8WVEK7yoBe8d9HD+RLmeWgP/++hR7bONpbfoFQHwhrV31d8Dbd/g4/5NRRoLv4tEUpRCY7YO66lIu8AiT/3Aq7XcWSujHi9g5xeYvfDWn7/pNHIhfw/YH5ag9ZS98AJzNP49iPgzL1dhNzgfhqZQtj5FA5LXrlyS0uXccylTG3JPq3I/qPzO5KjciRvl6zDLstaXkeJtRGolFInSPRlLy77rkCOHInOkQIYcyZZjvbyMgfqtRzkEz18BK1U7fYQU7NgYOewnTSOCITD5jqxiy+L67S5i17SdwYgjtweXkRxA+eTpFrxIUSxZPQCLcXkMFUNG8nQs/fJc3zl1k3x2vUbIt3ei3WrK4fxro8+Ef7QKqGZOrgS76m3vJJ5eXWJMdksQYiWrEvsEIk9hwSMeYkYagM5AIny6LE+5sY/L13Azdolqqa8fGit5RU6lMQUhOGpHM6MOZUBvCs3nbGRGTq3PaK4UjcysG41WgB3BIPsPcqUZEfw2h0DjMp+alLDTHXWAewvKh5JwoFKETF2Ovq81lWghXovqy+HgwzmrNL20ee6Mcg4XgKwOfPARlax/+DSte6QOeXnyDE8l1sL95FphK6m2VksTYFpnyh0SagNVHOHjk83zFocmwQUGPYa+NcGcg7/XewhxrluPOjKKbySNAL6eFWZy3gTapdaYTM7ULfq0yRduCwmbPbqCUd+aWYOQF3J2JxMElwIv+7TRd7mKhWWbPn16g9PPNLAKhd+cY+K+L8IW9fPvhcr70E4V7mmW6O2ex3bWbRUo4GbzOtRGFHyrbU6qiAZR64KGvTbCvI0pJ+X3MLsIzz57CxzgN+xTEieyeOyDUeZQv/bkP/+UWNnsfA0qZW4TwuYu88kefgarUe68G6lOlxDMaAp38GmoyJe4Vng/5PGvBwv+FLc1Haak6Rc0Djdi/UMPE+0uMjF/A9ZPXeHC0C/UpUR3w3fh2rrW7qXj0EEuU8vxbc1wYfo6xzmq446t5tSMXnEB3ZzM9TadZ+BMfviePQOkmAu8v4hw/BY9vh5fe1f2s2PC3qMIOcmG1KkiqySWsC/Td2MUpfgcwQA2xyOq4nruBR6dK8X/QQvn9T7BICc+88h6EjtKmeOHW7BVGW26H88oRmmQf3VcbcD18AEpsBN5fZOR7pxjYcY2K1pXNmB2wbynneB+U3nuKa5/Zzp5bFyn5QiMvdmyn6WKqnIkvQc+ZSWyhXv5ytCulTVudNnqwcf/JIUp3lPL7v71OhScxhitIVDTsefUoDdO/o+Kp9KI5ufSB+1bwKfsTv/OXK78zvgRvXbzOt/7TLHbPd7L21y8W4fxPJoFSri0sEf7JJBdGTjP88KcpvfeJnL5LGMGffvYpHv83vZTYt/PO3BJLb7wAu9JDyDYC6nxxdgNvDj1yOfUGc16nG43Q5ThuxuG2lbxH4tRfnKYXAyFjnuxsxE4c523QEepK5vCcLPOa8kiAxFrW3ZfIidQaLKe1ueZjfRItqnbOKI0p3nXR0SE4kV+Bj2LI4voS6D6xn47mC5yf9+HbI0PpJiYXluj529N0/944Dd8MIPSqYspi522wQCMnT55i88MVLM0t0vDwSqXpPbvu5NVndzL5f57jLzVFKXLtg1xksTisG+skxbtu4NJ+okdmE/pbWVpTdFGHYCbW5KGU95Brbnh67U8JVR14qJqm2kbdKpCQMB6ps5ypw8U3ovzShgZTlQgdEzkm85G7SUP4pdR0ONm8/gpByFWxZxO/a2aXfhqUfDDyHiskVLYYHndrMb4yebyJ+ZKPp+ZWpy1hbFWRKUVMODKXVvFbGGYGPGQ1Es8BhKJ5e25tBLQh77HRLjJFK5hBHUnoBlWUW2IdDFwawiEl9skpnsiAXh+qvfaKEWYrCgGZeb56mPG+BhiTq2mSugzzDFoUxqob7sy4tosB6qY36cqtpuW2OC2RCI72IISknJIaioTBk+d6cRkIY9FOEabUche81G/n2u5D2InTsG0Tl3p347x3xYjjugX+58v7ef6lzRx89RQL77fguh0e3NEIn00sPE7gH//Oy3e3baLnVYVo3+M4gZaHq3lx7DClX0gXzl/bAv/vQYVneo5x7Ycym21xvt24kz3fCMCtK31YAvy9XM3Jz7/N0PEXiI60YQdqtm3i8cbt8LlH0u5dTMQiOeCR0xQ20e9zkV7dRM2ZEvcmXy8gv8KeKrCfOs8boVOMnHgX4ieo+7yN7nvvo+XYCNhSPYw+A7zY2UDPxTae+Yvn4IN3aakq59kXHmPzrifQVnNbLfxfKGHzO6c5/vwLPPzEC2y2zfF44072DB6g5/ugZ/iaBDpqjzHgGcfu3bi5qcwqrXpJZ4XhfqwTXCbzdBTCVuAvn3ucnsEPCew/ij1+Hc/9m+j+wRFK7zJvxB3wllP/B+/w6vMKPY89B8zRUlXOjw4/QoV3CG1I1Pe/Xk3HtSM8LCs03H6MPS8kNlmuW+DS3++n//sVHHz1BRbeb2GzDdoad/LHF16i5LOpm9d9VfCLvzpFx/dknAMtvPI3O4GVdrfcX07rgUfou/c1uF3/xDOXPhjwllNjf5OXhhV6HjsCxKmrKueP79uOfZu+YVBL/znoP7eirK/Mv8dS+snMdzmBsb97hP/214s8Kp/CyTH8j+6k7oVDnPyL60Bqlei1Qi8MVr3ZSxir9cd3GNLC+W9W5Vlvc5VeGii9KMSYpvLkhXkgFMa+NzXE0Wjzpvc9kKqDqDdNiQI8+6lsd7JwOcxxtuOmN2Nyb7X3n/p5e+620UGjbkqGjwNqr22tsu6vIpn3TI+kt7jOwW6xZLG/qoSKC6d5vv9lHn76FMSv0/B5G6/seYCGh87DLanfXSxZ7CuDKy8e4ukjh7G/8Th9bZuAlWs8t0Pnw7tpONOG87v6BxzFlsVCZ9ArKmOUIw30Deh6RiRhZJtRGrFHVnLecXXFg0sYdVubpRSDtjrUNOxpTHjlyV66SVS+3Yg5ksTv1RqkRN+0BuM4mmvS5IsReobwYlEO4NGvdivkqjicmJuH7l3lVMrjjEWkDdH/mdJOFJrjzlcGyOaMDdnyF+ohDui6GU8WAFLz7N0wF1nJVWtUUEiL8zboodEwH6VoA31DaXpDkzKFm94Ug1MmRFqAjY5op6hcrHYymVEaE16oaqa1d8iONpdddO8EV5rTw2l9ZeCMDNEkHaNu1yxm+9hsBEY2KpUp3UOAYuMC3MpuIHs1cos8WS4SZf2Ty2VOp+7fG086l5eXF9I+892p5eUyp3P5607n8nJsNOfvmuh36r6n/T7xPdn+MrVzrfjN8vJy2ZOjur+rWOj1j9GzU/+Jdk0sLy+XOZWs/fX10QXD+y1PKSnXr8Xv1/LdqeWcx996UNY7ufxdl3N5eXk2+dobseXlMucTy991OpeXlycNP//10QVT1xl9Xu+ZZUO00eznxNj6zegTpu9tZuyKv2zPutB+uhkI/e/l5TLngeUPxw/ovv9J6IN8MFpHsvWXGKtCtqnHrpm5kUlGi/Gcz1wwmiNvzIwW7X7qvtGTt+rxlssaoDdOvz66YFqeqz9f1j+Z9RmK5y/aJtqaSbao759Lu7JhVp8xWmuXl1dkrdEzM3NNruu23ljWa98nQQ59uLy8XNb15nKoy3njX6msRh/o6YCZ0NPhMq3N6nGp9zzF+9rPq3ULMZbEXBHjr1hzx+xvF99rNKbVMtfsMxJjX68N6rZp1wsjMulY4vVMz8tozdD7PeL6QvdJZuSXeN7iWvVvU8ubYq57euM203gxmpd6sl6M8Vzmsnp90T7DTDI3255L/GX6nBm9e3k50S+Z5mQ+61Om56BdY83KIjPt1F6XaxvfeNK5XNb/dlo7tDqOXt+K14zmd7H2puo+zKZr5rJfy0WnyWVfZ5Gdonnc6SWozYTaBTSfcDfxXQ5lim5JypqwM5eKOp9UcilOkS0JuiBXd35x0ufau3Hzl6wHswBvTVLRCMJbRx1atxFOQLORa6isNrxdj7UI8f04MvLWHH7ba7pFKSyM0TvR1yYs1iu+BKkVW3Mdu9nWVx/Fnwu+SPFDOv1VgGYtzifsS135T73253IvtUdcTLaZ0F/iDHgaccmJioLZEl0Pe204IoGkV0bMIDdMruRTnCITWq8OvQTcRteYSfitJhdd8eNO6AOwnzmtW5RitcilwrqZ+aQOYVXr2XrVV/U8iERhK0dtG2OdEt17I/j3RqHMm9Q1W4O7cdTWkGvxF7Oe/npFBNyg61mbVkW3LHc57lCmiEr6xR9EXjsj3U7bt4koldzCS3Ndg3xlwKUhOmrb0hLt54rZUFl/FfR0BnA0+1Cvp92AazCAi42tA6r19DTvriwIubqAl8r2IANnpawhk/mspWIs6c1NdURA2ncZrGf5Fo1cmYepaKPs9CJzMlV7NmqnIN81yQdpn7sSjad4/et59onnpK7Srv2NPeem0sKZc0U8v+6QvGqFZjKhJ6Ps3rXNMf1x5V8tLy8vr3cjLBJ80ksm908DzdkNscX+Tr1cExuJjuAcF2Qf//jiA5Tef2S9m5MTuVayFAvyjDK7LvkRVrua2nozC3zxgRP8qDlARVtY95qPex9Y3Pzks1aIDbeamzHf3yeFT4Ic+uLQezw46mbfm2H08tt9EvrAwsJifSgkf7yFPg5lioGrvoLy0q1GXkmLjw9rVpzCwiIbet4YnySePhunfPI5KlwuKC0nvgSvjr/HhZEhXnm8nNL7cztt3gjkeqprNgGqRW6M/DjOZ0ou8swrC/g5SsVXrJMvi5uXfNYKy9PLYiPw9jyUXH6Nl379GXj2KHt+sB89o52FhYXFamJFoxWfXDyaM5GrF7vFJwvLcGdhsUGoKS/l1bdKeebZ0/DBFE6gwVNN3ykZ573NrFUojcXHj/MfQeAxmX33ltN94iW4xfLesLCwsFhrlj4Fj8oXaLg9yPCLeym5y0oNYmFhYWFhYZEdK1TWwsLCwsLCwsLCwsLCwsLCwsJiA/Kv17sBFhYWFhYWFhYWFhYWFhYWFhYWFulYhjsLCwsLCwsLCwsLCwsLCwsLC4sNiGW4s7CwsLCwsLCwsLCwsLCwsLCw2IBYhjsLCwsLCwsLCwsLCwsLCwsLC4sNiGW4s7CwsLCwsLCwsLCwsLCwsLCw2IBYhjsLCwsLCwsLCwsLCwsLCwsLC4sNiGW4s7CwsLCwsLCwsLCwsLCwsLCw2IBYhjsLCwsLCwsLCwsLCwsLCwsLC4sNiGW4s7CwsLCwsLCwsLCwsLCwsLCw2IBsWMOdQ5ki0C4B8Zw+Nwk4pGNMKpLu+wuAoz1IqyTBfLCg9i0E2/L+fDHon8ZUHwXmwSG1wfSxtWnYTUD/NBnHiPa6fMahhUWx6Z8GhyR94uZx/zQFy2uLjUOm55nvmr8REXPVaI35pM7nQmgNxovaZw5lKutzslgbLD01P8SeZiPKTvFMN0rbxP7QzBhrDcbplyRgatXbZWFhYWGWnA13uSwS+S4oC4Ab6AjBQvBQTu07Pw3Qi2tHl+77I9NASCYMLFwO53RvwSRA3wUOyuNF20zmYwisr4KOUBeTSk3avbL1+cdpk2REJmXwSnSKpr5GEwp7nI5QY1ofW2wMhIzJx4gulLhcP6tV6MwagQul59wU3QBVdTl9rjUYz/gb9Ywook9v9s2sMIwY/Xaj9wWtytQnxmgonr1DkvL++ySsK0YsAD0nggx4wCVPZL2Gqt2G98tls2kGM3Iv2wGoHmLsaDe7+RrbWoPxVTXYtwbj0OfD7WnkeB/rMscz9XO+v10YIgv5Uz+nwDwE2ttYy/nc39yLGWPJAtDaHjTVR4UYYYQOWYyDevG8sxmLxZwxY1S+MA+EwtTtagRsBbfRDGb2DwtAx5EgbsbxHVaK2ra8DfjzgMf8GMuGQ5myDM0bnNUwwFqHyRbryafWuwF62IEn5WrCfV1cONuLzxvHjNDPpgyL92eURkacQxxslhi+Owhl3pza5wIGLu2no3aWhcth7N7cPq9FGAIrGSfmPAZV+3NqR1PtLLEd5j+32vRPQ09zcTb9M0ojdu9QUe6lZthbTb9ziKZmiTEkXHJE9zp/lY0rylGOy+MMP5T7WLFYXebmAaJUyuOMRTI/Rz2EkR9nF472IIRk3euMxqCQKT0h6O6T8EcCQHXy/dZgnLCc2eg71ompNgsZUd9Jyv3NEI7MQd94XrJuLQnMQ0dtG7HRioJl2STQ03yMsU4yPruec1MMeMDuPWp4n3DfBfr7evFHyoFqFoBKg/GiZcADvsEJxBqW6+cFbmD4krImz9DsuNTiUKbgqm8VWrS6OJQp6Mu93dpnCyuHgx1Ah5Q+993AVkUxvKYbkrKkfB7odNLfLOOP1AHVTAJN0jGgN2sbteMmOg8wi91ZkfEzx4Nx3PTiekjJen+BMCC0KI3kKqO0LADhsxcTulzZ9oLupYeQy0K2O5Qp+mt9yTlu1K585q6afOaWkU6lvZ967OSCkL9qor+O0xMC2muS4zzbmpatfZnwlUF0dIieZomW4FBWvW9kGsIhGUcIYqPRVdN/O16foptx7N5Azp/V66vEmEv0x0qfj6dcM9YJw5HENQvzkDCQ6e+BQpfjuBnHfrf5ubraqOdJGHDUykDu+lWxcZXBwOH9dIRm8U9fgKr85dQk4L46h6Ovl9goULU/J7kM6bK50L3TavVlsfd0I86hDbNHFGM1tjc3GZJtXOerQ1lYZMO04U6r2GZSOPVQXzvWCeVyxLTy0xEy/h614jwyDe6QjO+S/unOwWCcAWTs3gn8gKMzkFFZMyuoKmVA1r/O7EbLBYxF9tMkQeBEL77B3brt18NXBh2dbUye8+HaIIY7fxX4I5kFllBWxjrHTQm2TMqNIDbalZfS5q+CK8oERA4xSZwm6TRGC66ekF5LpeOTSC6KUFMf0Kc/F/U22MKDzV5VR2ywGvDiUKYYuOpLuzYTdiA26KV/2ktPs8QVyZc25/U2UknFVjOesskdo9+oRYzNGbmayqsKgSMyvsHtpn7XRsNISVI/W+140faXkBXCEJppHRP3dGFLymZne2Jc2LERG/QC2Q1oeoYsMWbMfF7QPw1XiqToFoJox1oZENcSPRlhhN6zFQbjAQ/UDU5Q2X4xbUMg5v6M0sicd4gm6Vhy46eHvQzGZC/nicI0UJXQGWKR/cD+ZFu6+3y6BwdoDAfRX4ObcbjNrft9k0BYPs1YJzk9447Xp4pmQBDGT99oF8WWV0KXVesNMbkaBwGQ0vtQj3w2ZZlkvlm0+mSuRoJ88FfZcF4aSuhfSeOdOeOg9vfmYvCrlMcz6tWQkOP+qv20RBJ7CUezzIwyW5AuZmS87wF6JHOGfe1zMtNXRjqsvQwWsGXdMxkZEdSI9jgUMv7eXGWhGvHcu0Nyxt8txm43vdi9a5tyyFcGvkjqOMk0NsOkP3cx913A8KAXh1KOo9mXIsPN7AsyremZ9o1Ga++KLJg1/M58Kfaezo/x/SB1jJg9iMg0h7XPUfTxZJmXJukYbnqZ3NWIqyrrV6Td4+OmB1lsfEwb7mJyNciRpFAeQM4q2I2uzXXjkg21hwVl3jTvjf5pQK5JMeoJZU1syLS/JdNpiBlDkZ5QNqNoGRkqxffqGbKaAPputI063fs4msdTv9tj+BNWjeivAcYzhjNr0VtoQf+EOFeGvTYgcW/1RijXhWg9OTm9yNL3nmPfi7uBO/O+z9sfwDsDR/n2N2qgrLF4DSwChRhIM22wtR5sCwBX53BuAbUsEPPWaGPgrwLnpQi83gbk7yGipyAVOhbtwMBhLx21YeqCh25KQ3OuSpJ2vGhlxfFgnLHO3rT+FM/auaUXMQZcQPfofjqae3EqNRteHmw0WoNxtso1eXkBJY1cu8I3xbhtUqZw04vvsMLkvA33Fmht7mX4kpOFMm9y890N2AcDidCtTietzTLDl5wp41tvne/p6815LmwFKCtP/vtKNJ72mprjwTjd9OKSVzyMHMoUY/gyjn0hT5/M0djnUKaI7biQZtjsOZEIQXI096KnL2V6HTIb1cRYcodk3f6LydW0ShO0SjV5b8hyMWyrjQWZDmQctTJjnTLsWD+Z4ysDLg0RPdIG83NA+rgx4y097LWBV39tm1Eye0YbIQ5BHEo5c5EhIE5l+0VdA5eeEQZW9GqxxxHkstdZbTId9jiUKdx96YeFZojJpPxe9T3z9ZpO6bOIfp8tAE3twZwMMoWS6UA0KUvZnmZg1a5bQjcol1KNYzG5mlYCTEaHIIPhJ9cD4ZuNXPd0ZjgejAO9+Ee7MDtGtHMYMusfCfkrZV0vCjGW5+v9bGFhxIYKlW0NxnkW/Y2lnoKnRhvaIdzbqWpLGvVmWWaLngAAIABJREFUlMa0xW1GrqayXSEqGW8sAvPQ09yWV44pLbkaIbSbzkyGLEGsCt0FWc16hjTlk6tL7/mrPQeyhToJo6XZk3IxftSbFzAeo+vFhegSW996GSjsec7+M/zmzAn4xtbiNGwV6J8G5wkpTQESSpWeMUYPvVyYItTLtde88hGYh2htG/5IG76yapBXxoXwXHm2gNAxdZ6YXMLWtAjPXBjSVUj0FJCmEMnN5MfJszQwD8iHcF0y35/+KrjSGcD10FxR2pBruBkkNhmfJNSeGxzeOGFgmQjMg7tvKLmJdgHDshcH5SxcHsLu9eLetR1C4L+kANVJb7rjfVEWfh3FXrZyP+06L/rDg2w6fDQcmWMr6ZsQrRFDrItCZg2rNksLQLdUTpNMxpQc+YTWihxzgaukRBkcDMYzeuuIeZOrl73YuI91gmsw8/ow7LXR74zgqJWYUVbXWDzstTHpjeiuW8JTUoylxHq1fvjKgEHRF8XLdyc2/HZnYRv+mFxN8gBWx8CVz+GB8PqsU1Jzx20Ug17/NNDny9lYLgjMA0fa8A0eRZ3GQRxeBuZthpEuwltdGL8CeJPXm4nI0vNiXK3wQu2BaD6y9Pw0uOnV9SgevjH+JovU3puNfPMvZyIwD2H5UMIRp8iRZGI/7WacmAmDt96YNHNAo+ftbmFRDPI23GULYU3BhGdX/zSE5Ro8HtJy2unlEtD7rDDMBeaBviFalEYmqU4qRnZv+oKgPrHrkVbCJ/xVwA1BPwl01B4Dxk25zI91gl+OJD9fbMSiM7ZFxqXyghT/NkNC0Vn7U1yhGOSSq0sUKxGeC0JQXonG8dzIgROTbbrGynzyZgmFSJurRywmHs+46byLFoWxEhKWwF8Fji0BQjl4RWjHutqjQ43YRKg9Uwc84BzUTzAPifwyYcbpkcZTNpPCkDjg6cXuTf+8Heje66WpWU4ax/QUhIPBOITkvJVzNXqbGz0FJB95cjPR8foUA55xKMuc206PhHJenJNTPe8TIzZKqOxakWKINzC0bCQyHaip592TXhtNcheTr8u45MR8cwHDkexr08FgXDcVSHKz7QE9byhY0XMW8KZ4MGrDGZuUKcY6e6EqkvJZv9dGTyRAf7MvmWdPIIx93ZDRi0+LMMBpZZ5YYws57FAj1v9uxolFArQGywlLxvNowAMzkUSYs1vOvjnTM8BrD0LyTedRKNlSLxTiEaJ7AHRj7ewGWiK554TLBYcyxYyUPRdePggdoRsKDuXU2zOseHrlt6YLZwQ3FHSg1xEixYt8DiAUxbW3C5eBg4DWg0wcYHaPtnGleVx3zhgZPAsNI8+V9FD87MbopHHKpIzTzj21MXNGaQTnx+MgNJ89nRFiv63nOJGJbHJOz9s2U/qVYsnqcGQusT/NsCZbWORL3oY7MzkQzApjMekyeXWIXAKtwe04mmvSQtactwE0puTFGPDAnHciuXnOVN1NkAyTaK5JMQ5pw1UytVFsNHI9dc4HO8CWcqJXwUWcOWwQilK+qzHnJNurFaefNVeXypsnE0KA2oFnb+Tp6q+V8UfKWaCa8NmLPKkJazSDuo+0iqu6wIk6ab3wfBrwjOuOe7UB5OSvdvLS889x7a03cd0e58k/egT315+AWzYlrxcnwO6fB3imf463h55jrHMuqUCdj8NL/S8TPheAD6Zw3Q4P7mhkzzfa4NZEW9VjU70wqTdDi8DJs9d54+QLXPvJO9iJ07BtE/v2NLN51xNASVoIt1jMBjzwi0cv0r/by9UXH6D0/iMpvzkK1D72GsP2p3A/d4X+6dKc+gDg2kfw/IvjjPzDEHwwRUtVOfuefCTZNj1icjX9O/S9Isql7CG+QmnT0nNuKtl3QnY5t8gYjS+114SjuZcZZTaZeDfb6bGZvCFhOVFV22xuu5st74bexjctpF+8niUswYzCJUL6nKNdBNpP55RP9JOGUW5R7bNY2YiaU1K1SvNYJ0Ag5XsThy1rZ7TL6TBSoDmUNOtJaTSf9eawkAWx0S4o8+bt+S28iu17E4UpxEa9fFcj/dPQ3efjuKJkNG71APVKasisCGkyi1h/tVV3xYZtrHNc95A1V4THQ8KrItFPw15MG8xjg14m8eKQjjHWqV/4SGuAzzcHpN540HrYZkuGnolMa4KRR4jWKKen76vDN/UOSBeAGyOs6KgLug2cTffALxShIxSj0IpWxyzGIUyTMgX05jQmtPqIKAbS1CwxI7Vh9w4lvcq4Lbc9jK8MiAwlDr0zIA4hi5m30ihkHvR1glwqeqfcSxWGqd3f6H2PWr/TDZXN0FfZnqnx8169FDfF3NMZIcZ2D2RMY6Ulmy6tbnvRDHPoPwsx37UOA4tAz0tTvD06RHR6nM026G7cifvoEdR6k97e7789+giu1kNAacZrtPtD8bvXYk9msbase6isurrXwUgbw/P6lQ9bg3E8Z2vYOjpBZXMNM7QllVb1SbdQRnyHFfqnbQx4enEOTuDIUnhgrBOG5UiaEtbTLCWVltYgVMo1adUrxXVrGc/ulsqJ9gHMEZ23IarExbzpMf7FrNaYUxtJzxGoVWr18gbq5a6zA2ODXpqkKM52HxyeSAlrnATOS8fSvAH0EAuwnuKq9WpQb8TckLHwiaD/8odER9r49p4HoPUBAu8v0vqtIQb+aTe+vwugFtBR4PnvBBj44wpKD55fucf0Ej17H6dl0zXOHJSh9ACTC0s8/benmRj3MTCqwGe91N0KZ07L9F/04VTa8J0+Amxis33l/g8fGIczbXR3NmLzP8ciJZwMXueeJxTGOt/BJZ9mMyWcOf0Agesuooda8A/uh1u387lbYPMX/iP9d7Tx0x8fpeH+A4iFAyD8c7D/+BQNp/envG62DyY/gqY/OUYLvZw5eARKD/DSzxa554mj/OjwO1S0rpy2afPMiZxyB2vbcqqWKpQ2twfCoRUlR3jpukYT40m9oc229RDFZc5LwN1O/GXZE+9mQ+3lazZRtN6GQG2k3ohGvVw9zwpFeHD2T0NPSKIumDlvodZwpX4OOVWXvGHcKUYyeaEorsWzzJTE2zjkbMrUvXXbr0zREYLuUA2xdcgLYzTP9H53pnQThegBmXLjCg8EqtrSohPEwZ2ZyAZtYQpRYfYCFfQ031hzZTnj5qZ/GpqapWTIrPpwIRvqOaN3qHE8GDd1yGqWYsgWbRGQ1ULbH3q6yVoWp1Ab5VYzrcqVaMLTKZsBBlL7SDyX1uBuOuSarKluciHT4e1qkosBSoSYa1/PhJEDhSjQVinXEHMeo+dcXUol53wOCLIanox+6xbTXwPkZ4QphgFRGIqKkWdby0YsTpGpbYXs6fQQY3tstIumZoDegvLcqtecQnQmI4cYvTEonoeIEFwE/suhd6k59zi9Bw9B6WNMLixxbSBAwtszsSfqn16ip3k3Ldvmknu/a4vwm8k3gaWVa0zsD9Wsxp7MYv1Y11BZdXWvhar9hNuDKSEkAhGKsRXwD87BaITKZinFeKe+ToTM+suAG2E2uSpfIqed2sNu2AuBuyM01bbh7pPwjCp0NIeB8TUv/bzVaeMK3EgWbKyshC7Hk0r/zYw6STyhmhs5FW78pnno8Zg/odFDbaRTe52FOxXokxN5f8q8GY2EYcBz9jD+0+cRgrB+G3zmD3fS8ZU6GjwvpHitjQBXty9R+vlHkq9NLkHPwRcY2HEtRaDWA/X376TpT47h6ZdxP7cTe0kp9m138tKCHSdQv60ipT3PBOPYzrTxg9EuSlQLi3vbdjq27eSbso8f3f8ypXfspX7bJiY/vYkPgfrqzUnFzQ407GkkfOAoDd+4CLeuGLveOPce++54j5Jtz+XcB0vAN1+cwr/US/cPAnBLdfLaVtudjPx5Pd9++F0o3QlA+TzMRHYnEk/LCaXAV7U/aVgQG9BsjExDd0jGeSlAOLQiO0KX44nwyaqjKfezOytM+Qy4AJcq3M1sVWpI37QVc0NmZKTOlZyMVSYwmzevkOIGmRAbloNyja7ht1xqTAkVyrR5zWZUVX/OjBFgvQ5ZzLLa4R+FVDPMl0xFadT8/+y9e3Bb15ng+dvtbDHbrmJmPQu0gTJxnWo7cUlUhi+rKIqq2KY3ooFhSLgjWcxObKtNmRLZvOwJZTMtS+lNpHjCNtkRoJAyLaZl2d2WbPcIRFiAqZ5Yzo5EWivzoVnRLnXs1BhgBrSJ2uxGtakKa7uC/QM8wMXFvRcXD4q0c39VrJLwuDj33HO+853vfA8R4qr0NtNKNyGMRfnMf0jLAGWKDtG2lq4gwgNBy6taoNd+ZQitMr0EpA153q1uvCbCdRurYYCDzF4apLa6JxV23n1vco00oqptULftsHZGfL1Nl2iHkWepkRHW6BlrVqAfPwi48r+BDUpHcJGwnNmvGWkm+gBye27l2lAbrYdjrTY6mKGRw7BUAY6sj+SNMOyoc9utJcrNv1ERvEJyo+biuVYb4Qt+nG0yMJh131XyJDGXdm5LLfQMzEbFvW5VqKw4aBDedoElcL3RCdIxzZBmdYilWZ1lCuhWjVllqKwb2OLf+HlbbyXKlFeL1T3AidR7E0caqKqP5uVdq54ruQzKRnJIXfQiV6FKkfNVeK5ejsPyKwG++6NmXDv3Ack9HZ4HUt9569cwsO8Yw48sZu392Jlcr/PZHwpnirXak1msH+sWKuubJ6Makqh8eLI+zNiuzI2UurpMbzUwHuFQm5Sx6RIntlo5pfJFy9tAhEuK0MRwW2GLTK5S9/pUpv7lugMGaIaPo0TJPEVXtzl8YTqZI+szUNmmtxoG+gIw5M3IqVDrgOEjPXTXLxRcOdOz1YbH05yRrFco/df8zVDdk7GRatfw1nG370O9qX1kRxkvbOrkg/9yjFqF4c4NlG/OTOYaurpC5fuDeIcOZ12n9jZw791DSB7E/cw02PTd4qNA+I2LjO2GsurHs97/89YKWo4+zsLbo1Ru2mfYL4/sqKCbZv763YuU70z+5iywcOoiY888gLqSrZk+eHcFFobCjP2wIbVACDxbk7/3g18uQHVykUgmbbdlhC9d86cN92aTXF+PxhkbP0hAI0fTmOIENl9jt/qETcgoo7ApsfgrC2SI6/QzSHskQFXXIt0h2fQhiZkCBprhqTmKU0BycxEb6aGU1cDViDUjti9qaqPQEYxzIJJd6VVfxqZlqFa+sVKjZdyZBU5KJ7KqiGZ8ZtUwov6ecozdakR4WjeU1MNlvVF61+pRCwxf6aGlfkG3QIMaMyf8RjqSMtfkyZ0zINcR9jRDKLN6nzhkyJUmIKULKAx8uSrMqlEan4UO573ip/sN7e+LzZjAjIeMGaOnnteOnqFN01s2R26jXIcducKz1CRDR7Nzq4K5UNmNxlhrhaGhdRmgS/t+BeHIYs68YbkO5cZabegVXcr4LbTzUyvnqdqD1OiaWgUY1jLqRhmdJNJxmPFUTKHjzZaqOh8K42YS+9b0yBtrteHUyW2phfLgIcPD1t9M1QV3VrSS4Ow8uEMytWtYhEgZxdAdgqj/MANDIk3D6jgcD3C9LbtKrzDu212VmtdWs53ch3TJsOJbk9Nvo6NOl6U8LLcDdoeNWKQHp3873ZJxcSLlQcw1fzNVkc6SV/QV+1Bnmxe9+acshlleDthczF46h+vri/C5VXmnsMCcvRSnPf4y3iOj6B2MFro/XIs9mcX6sW6hsuqTZUhXPgwc9eIdaQBsqU21Oh+B+vuzAPI5zVBGs3nfhDDQO9VyQzJfikaybN88tGjkhdFS3outKgvgcgBUshxd4Dpp5Vvv9Fgv/8B6JU0uBrdUQRi4PAS18hxCmfA6IOQ/putFkwtl5TTlKa+yj6r8cxDSDiVyA2VfzK7Iagf4op3oL5M5CcX4vAfgzkxhGv31zeQJy59mGsMEW1w2TgMsfWBouIsDXFqm8ocNKMNYBRUAW11EP4xTiXGhjSYHsNvLW8FOvDufBmz87J0V3PEzuHYcyfis2T6I/9oGLFL/nWn4jvYmbTkK9urs19UFKyC5AXUD3GHs0ZBU8ntgKf2aMPj7mGFAMYfz8SwSVWqXo82pNrdXw4DHT+ConJJnApFcWl01q8U/x7BnEO/IDMsk+6iYUFktlJ4tWieH61WcQpm8evmOAPYcnxdGgef8B0E1htUyVkuGCg/elrZB08aYUlCxBFvG9+Csr9OtXHlyiIwDLNH+Yc8ks/ipvSUtVbVp9RT5uSt+qo4CkvczYbxTeteCfhJ1kRPK2SbdEuPp2XnSczCYXOPHRjpx+jtxtnlTlUj1Di2EJ6FA5LcTBkr1oZ5ZL0EhKwYuzaVy7mmFSKv1LrO6hpFBrNCqshudXKGyIqT0s4SZoipK9AzTykrzWhVllZE9RmMmVcHdM5lKo6EMGVZ+Lp+qsnrFKfIhI8dldU8qP1qxobICsZ8IM8ny1TD21vT9Tsg1tAwdzMptqYdSjlzzN2MfSeYM5kKQliGYIG28U1Z7bo9EYGltxrk4cJ/oG6SF5MH/wNBkWk8IJn9XeBSr++BWRS3le5DyWSBXjnslqfzWbVJWJW61wc7emvSmRu4sKCw614Ge2gvPiMYy2P/DR+n+zizH6xv5y8dace96gjKHImIrssjQDuB27b0fFLY/vBV7Motby7rnuFMzIdfQIh1MeU0JbzvvPuOJJxJaOutBLFDpDa+xh6B6U1dIyIaZ01f1BsEsWt5/FQAeF4uRQZCOZSk/IvxYmRtA5An0jswoSr1/uhCGXNBOlC28aNQLbz6IhURtdFV732nyR/rXLb8dlMk9P19Q62495UDvIw9wfo8N70cXWbnrUXxvzzK2Ow4OjdOXPPrg9e89Cl9u0/zsF+76Qt4hZ0au8HqJirkwjfeIHxw2eiOR1HPOJXOUiIpjygp0qZPs+nBG5TalV526atatrvZ8PRpfDTnfnuuja4qyCq+ZzVCpNvAp4+op+ZYVqrA7oNdhw3UlQlV9p6YXQhhSBt+OYNJAuR5hpAKxcZzoA7ujlWsjUNXFZ8J4p7Upix1poOPqDN1SXYYXjfCkdbZJhqFfkGcxAQ1vmN5qNItziEJaRA6zTJyBU9Om5rDXAa7IKFXSCYYvSFl5YlPX15lTaj0pplNlWX3o1RHdU/LwvvVCvZkzkz6gVGlUCi1OYfS97O1cfugdck/0QUWOexaG5GJDUgcuzeEOgXdpWjMvWE6dbZUq/xz9IZnGSICwNEWp8oWp5bbygE2dc1IPvYrVpUJZYOaQPJlx8F0LuP17uCwPZhyUK1EaTSb6MvdCylzhXJmhpf5wlid/6tk41mZtm1qCiXvDyXnon2PYA9F9MxxqSx7yhyMVeDxQSwX0bWfqwiDe1uRhYKFRS3oh3rkqCmsZepWsV3GKtUDpRWrWmaW3GhojyYJw/UMSvZEATj8K43xmChyY1C14Bvqe8cr9uhjf1/xwiGOp1C1Of7Kgk1oH8s0DbVLG6999qIL9U2d5ITjN98bO8b0hLz95poHa7pcQe6LP/7GpLsifEu7JLNYfU4Y7LQGk5Sauhzq23yh8RISkVNV30h85QXhoMMsrRY3yZFl7c1N4ZatC8k3pbbDMLtL5Eo4sFlRd9dNIi3+OfgZTQrNlyJvhLaPljWUWpfKhfoZKo53eAjMD8HE0K8/KL1aA0HX+5MhmtLzflLhuL+cywC/fg00NWe9fj8aTKSPvMjb+2gB22FmYm8bVfjPrdxcBrkZx7d+MmXHj2VaGb1Mn0atvslD+KPbR8ayiFGC+D8pvA7DjKvsQ17bs+xSYKfRg9kRdCzvJitVq8qk4JkIIGzUUO2XltgkkkCMpo916GzyEEXy9w+jFvJvom8y5wRUbZXdIXq0WWVyIqx3o39eK61IYKPxwpRCEIeWkdCIrPYRIzizWzVudQ1WJcuMlCgcoiwWttfFuLXIcCrQ2ZXYAhy1VgdQ3D04pXXyqt7qG9kgkOQ5l/VD4YkNljRDhgYFV44eW7BEoc9/VAtciPVR1uaBelSe2BGjOZQNvMTP5rz4NaOl8uZ6t0iNRr8qws17mmj9MONKZFYZpVjctpKqsFsvA2a4g4XujGd7oynbloy+HrsZXQzONwyON0mCItfdAH1n3J/JUK4tMLAOHuoKMHSErFNI9NErvFT+z1JDMUlY84chiVopvZbTQ9avr72ElDmWu+ZuZ2jpKd31nVpRALmcGLcOiUp8WullgNdJBjBmnH2YvebPSQpQarwOQM9vXWw3OvgDLV0eBtAzs31FDaChtCBYVhtUHHGp888Cl5HWUuZGVe4Zccy4c0Y+w2AjFKUqF8sCjEL1d7POc/u24urzERmY0vd9yjVuhW2jNP+V+PUMGRdOfGd5VQ/dQc5YDyfVonDDQOz8F1el12V4G393dwF/ubuDbr8g8ebiJaw0vQnUPlX9cxswF8N78EMq15UEh+8NS78ks1p//3syHxCSJRSJF/41FIqY3WwNDgxmbBT2EO3ssEsE7EmEtDFjX/M2m7o8+/aorpXSDtgPcW8HlG8CNqZz5bT4LiNNTketwQq4BDuJrG8RsNUMjoh8nNxix8YOpcbQMOLuCKQV7MZKdwFqwDLz15hmShb/TjJ5fpJZTVDbkDtd+cGsZC7YeAqdGURucZ38L4dPnePBbNijPDJb7BUB8OfV/F9D09QZOvg4r82eyfufvgovUxs9ktWkGIB7N+nwlUNnWwNRP3+b8pWn2b3qNsm0PZ33ObB/cVw7s3s7Zl6fht4U/O2WFNWfbILP+QnJHphFjLB9vOxEmq8w7paS3GvrHI7QMJcPpJ/oGV42R5owQ3SFwSnU4JcnwLx/PREh7Keu1+1Yg8s5c8+sbpsZak56QvvkaqiSJYWTGIjMlq6jaWw218ihrdfDREYzjkyS0ZFQtMBbpIUArTqkTrp5IvT58pQdozmm0CyyBU+rEKUkEuiRWA+WLRsg+EcqkXltFNeUBDuKTvJr3t9FJ5VbapW886K2GWCRCYySSClETOofnSgRnfVj3+eZCXKcQo2wqtI9Jw/Zr/aZ7Ndl1usBVafA6IBYZNX0/wlButK5uREph2I/JNRl6Y2z8ILFIBLd/hok+0u+1juYVUqqktxpdnVvIVaN1SByKd4egSqqjfV8UbrjYvrM4LzlxaKQslFIIemuvmBv9TOIdCaTaurgEYaL46mWU89XrgLHIaEmrdIu+0+srcWhgZHTPhbNtMKdeUCVJuh6hop+GPZPYW4/hdYDbf4zuECwHzVWLzmqTfw6nJBGql4hdcSfH8GoKomi9xPCVzmR+7vkphnfVcHKoGZaMcyGuFTG5Jj2/Vg842qsh7PEz+4acUWFY6yBXGHScbYO4Tkmw49iq93b+EQxmiiR9VhDerbFIoKiIiZhcU9SePxzRl6sDl+ZS+3URUaN+rl4H0NfJ5SGAOQJL0CF1cmDrNHCQwKlBtPSxcsDzwN0s08zN/yu5b9v70GZO8wCzL/kRFWTVFLI/vNV7Mou1x5ThTg+xYWD+RMbr4oRa/boZnP45uusl+plkIhKgO3SQWb/5U0GxaDgliQ5JWrcFQU0pFmk1MbmG9pEIpa5U5vTPbai+g/TpqdL7MrW59TRn5CwrBF8wTu8d08QioxnVvYTSExs/mDK+6BmHtgPH4w280OXm8juTvPXONLuOvsZb3/Hyv/XVwKbHcrajsQz6T/XQfb6Cvj1eLl94mcvvTOMLvk2Lu5N+Bmn6qxdRerptcdkIYCNwepS33plmIfQyAD/YXcHiI36+2jZIwN/J5XfeJvzONLu+8zJTspdhfwMoClO47oBlmjl9+gyX33mbt14Polx09u7czKuXHiB8+nnce7OLUuTTB+XAcG8zvngrHW4vbwVPcPmdad56Z5rvvxQk/B2ZXAYIp38u5WYfi0RSz8cpSSwH8/ci0cs7Jw4u9DxC9BZ1gRi7gpYh8troD3sgFpnJeWjQP66/WQ5HMhd54e2Ry5t5rcnVt5BeT663ScSu+NfscMYsvnlYzHN8aRlIhGHMKUlE6yVikU7Ymn4WXgdMREZpGTqoK4+Vhs+JSCTv9dKIKv9cyrNRzxCjNN4xn5+XyizglE7knK/qsSsodp0S813prSP0By3dpRYyTs8hbajSMoCIEMVcG2vlXz46k6h+qeVtBOmwTjXK6n3hvkAy9KoAXa0UiI3vRjt4FPqaelMXXQI3CzlzqebzO86uIO4hL7PRpLfMFhe0DDWn1ohUSGmRxrJCEL8t8jufpQd3SM4oYDAAOCUvTklazfOc29vObAoc0M9fK4wq6rVX6ZXde8WPcl7WOuDaSE8yPUKXl1Idcmgh5p+ekTflyVXEwZkw9hr9XYtEwKNt2Bcy3nsknRt8rNVm6ICghVKWx3ZMZThpiPcOROqy5KTXAeG+pIffWj4LI8QYF89BpDhpGWrmUFdnVv8oGbiU1OEm+mD7SISBU9l7vCp5MiXfjVIGpHKQllgWiv4v5aFescTkmrwOr9cCI0OpMopmmRq4sai7d1fei1jPRHh5KAQsTSe9T78mp/Y54XemGXjuFPttk5SvOkC03wVe/1FahhbxdTVx+edBLr8zzQvBtwk/dwSIF7Q/XOs92Ua0F3zWKSjHnXDLdTOoGa7Ufkec9kgk6akUkkyF+ShzZShdZ2ORGjqCewhL+skrlXmwYuMHNVxm1996bNbdOl+EclAVSlZRHPYXd30hzIo9CS0lYnOqFUqnLCihhQjH0AtPvg44u0YhNJn05HNkhqBk5DcCGI+kwh7VbfkC8JO+JgamO/n+d56Hj96mvbqC5158nHt2PoUyj4ARvdVlVE6d4wXfy+x+9gzEP6TpyzZe2fswTbsuw22Zp0P7q+EX3ztD949lXMPtvPLDB4DHcAH/+UetHN92NwOv+okOPYELaN9dw08mjlD+lcx563XA9Z8c5tmjR7Cff4KhzruBdA47z13Qt3sPTa934jr+N5ptz6cPvHeC7U0/o7642BNTAAAgAElEQVQ6vnX0DMQHqb0LHtraQOO39PONCVmhDgESeSZ981DVJoGsX65djUherJV3zgijMFllKJQy94YYXwOS11Q4XTEoNzFhTzOzb8ggt9IPNK5j+GUu1LmjblUy+lzpDJz+aYZvyFSMzMCFaVPXFOEvQp5mjQuNYkcCYdjsCCaLWfQjZ4TLKUN77QB924neGMwoglMoZpMvZ6QnuKS91mrl7dlSv3rivlp5zx2MEx2C5KqWbLve/CrFOnV5noz5vgzEdlWAvJrnUplgvYAwznzmtlbxFCOEDOwHXXkljCNKw4DyAMzeOkoM6JBm8LXVwfja5Lnc4rIR1nlv4NIcbsgwBK0F3SGN1C4aeQXVBTXUSc1DV+NsYRIcmc9K8/oGvwPpZ97PZMac7q220RgZpUU6Qe/8FN2XoJ9J7K3az3ktjZ7bHeD2uBk74mbZ0crA0WCGLAP9SqrLaKPMl2lGpocji5rFHKY0wsSV+4ixVOGUJOpn2w0ZuWdLjZAvVGc/t1yeXLeCjmAc91B2BVUQ+Su1ZZ6Qya4+UIbgq6uoKse3Us4L44ao8H5NrqGqy7+mz8IIo8IT4dBkRnVQNf07amgkqUf5dPZ4uuvHx9ntMBM6ni9CR1gPw/9GxmhP3uKfw80gtbv8us9VC2VUnWerjW6aWb4a5p7mVkJbt/Otvz0HHyX3Ob07m2k/Fobb0g4Qw60V1Nnf5PwrfgYefx47izRtuxt3RxvCGJfv/nAt92Qb0V7wh0Behjtl0v6kwU5byNpXE4yKakxO/xxI2QY8s5szEafeEYwTVuSaSSs6ufNgGSpWKfTDH6rkpGHMFKqkFmKRLpV3i1bl2MwcEoXnrBGGwGITBheDemEXlTZzhUyDdrJkvYVXeHL0h5KKc2Cphm4p3a9a41EkJ9cz3pX/Efxg92Z+sPslw3bmyr3QdGcZTc/vA/bpfkZQBgw/sZnhJ97Keq8c+O7uzXx3t7mN53cfquC7Dxm3vX03cFd2mGzqN032AUCjDRqPPQbHjL0RlcbUtPzRVqaEPOgIxnG21ZnKJydOntUn9FqEI4upHD/qUB11kuZaDbmkVHJ98+CslwC56DxmKc+/1VB8pdFu7IqfWUdr8sBlSORJ0ZHfZFfSuxWo5+5EH9QaGLWM0JfX+jI+w4NDkc5AGS52bWcYu3hG91ZkGZrUBJaAoVFcfTCLjRbpRLIams56pZZ9AiEvhPehMAq5HK2I6uKL1WRtqApFL+eWKVbXP+WcNVNYQxQWUhv4tIxTpVin1JXpRW47SBstUzqKXJwRr5QojXZKuaa79q2uYXq5JJVjC5Lhd8ZeU/mFifZWw0BfAGebV/O6z62uz3qFDrTI1Ua1LFWOP6Pcc0bGaqMk9fkWjlGGKGp9L22wj8NQHe3+ZrRyyCULImXOjVzJ7XOTfr7KHLCHgvGk99EVlXeWjh6T8vhUGC7FIWw/k6YOyIT81PIqFYnnlYbpA602wvJBYDBrjKgP9X3z0NIm6VYUX8S48Ihenm838NwVPwOnkuNQS5/Q6su1Ql1NGlRVanMcLGjlLdQ7MFDu6USkgNIAqOUlqcyXOnxDUhXPMw6hzy2rjOemVp7fjGIaR2aoqj/MNTo15b4oIKQVrZEr37ayUrRox4SO93QujHLzisPIUhsE80FPr7kVGBW409uTD++qwUVyXbp+NbOA2xaXjQGy89epx9J2B+BxA2Eqy2Ds2KPAoznbu3ebjb3bjhp+Jp/9IazNngw2hr3gD5KECWYSiYTD5U+cP+BKJBLLZr6iicM3mzjuciU+ScwmHAfGEw6XKzHjc+V9HdEeh8tlqk0O36zh587HEgmH66lEYs6v+1ufjD9lqm1av3V8LpE47nIlEolZU9coBqN7Ub7vcLk023R8LpF40uVKJGLjRbUj3+scn0skHC5X6q/YsZaLTxKJxJO+2Yzxd3xuOeFwPWXqWav7uVT9tpF59b8mEv/G9Xjid9PPa76/Fn3w5PhyakzojWkz11C3S/n8crVbKW/En1l5UAyfJBIJx4Fx3bmg7Bu9dh2fS2T1m9b3zPwV2v9GKOd9KWSknrzWkosO32zWPWqNg/OxROJJ11NZr2uNC60/I1mmdY1810SlTC9WbooxV8i6nEjkXmtLxXrIW9HPZu5PvZ4VO8eeHF9OzY/zseXEcZc/kc9cEc/VSG6JNufSHbTeF7rdrdBxSk0unUlQ7JjLV5dMJJLPPZ+5WMxzMKMH5+oj9dqi7C9xDb326c0ZvflWijHnUOmAynYWs8afjyUSx11PabYtV1/mmoe5PqO1pqz13BRjRz0/8m2Lwze75nJduUYpx5CQkWo9Svm6kXzOtS4YrfVm9ohK+aNsk5l5Uoo1+Vbu6Uplc1grtHTHW7FvzZe11pP+EPa9G5H/LpFIJNbbeGixcegIxvFcqMvr9NjCuOLTZ4Wvjb7HI+Nu9r8ZRiu/3R9CH1hYWKw/G32dylcWCm+42HjluuactNDH6Z9jAq9pr2g9T6X1ria+HghPrGHkDTtnLf4wcPrnGL7hxTUyQ4t0jtg4zFb30CKdYNgzqDs+9ULbNzJi3l3bGV53T3GLW89a78k2uh72WcUy3FlYlIDPqtHqrSUou/oaL338BaLPHWPiH9sou08718NntQ8sLCwsLCwsLCwsLCw+DVh7ss8mRVWVtbCw+Gyz8jnYLU+x8monYz9p1jXaWVhYWFhYWFhYWFhYWFhYlB7L487CwsLCwsLCwsLCwsLCwsLCwmIDYnncWVhYWFhYWFhYWFhYWFhYWFhYbEAsw52FhYWFhYWFhYWFhYWFhYWFhcUGxDLcWVhYWFhYWFhYWFhYWFhYWFhYbEAsw52FhYWFhYWFhYWFhYWFhYWFhcUGxDLcWVhYWFhYWFhYWFhYWFhYWFhYbEAsw52FhYWFhYWFhYWFhYWFhYWFhcUGxDLcWVhYWFhYWFhYWFhYWFhYWFhYbEAsw52FhYWFhYWFhYWFhYWFhYWFhcUGxDLcWVhYWFhYWFhYWFhYWFhYWFhYbEAsw52FhcWGZxlwdgUJdElAXPdzHcE4PkkC5m5V03LSEYzjlCSYP1GS6zn9czgliVm/VJLrWWwcfPPglCQ6JAmWgqa+I+bGcrDT1PXzufYfOk7/nKl+XUt88+SUewCBJXBKnSWTMxYWFhYWaR1uvdeCtUboH6XQL2eBDumErq4h9BZLj7WwyI+CDXdO/5wpZTJfhPL5WReQn1ac/jnDjV+u95WYMbJsREOMhTnEXNZbmHO9r2RqCQiF8e47CNiApJJh5ru+eTTlSWAJfFInpRxbHcH4mhpGOoJxGPLi9jRzcoh1McDMAk7pRFbfF3rvwhBZzJ/SWBFYgkBXJ6Vem9aawBIMtCXHaRiYfUPO6/uH5MmSjIeOYNxaf0mOc4amStavUJghsLEaukMHmfXXZV0rlw5m9BktQ5/ZA5JbzTLQ0RUs+jn45inKsGlWtlhGVIs/BIoxvpRSPywEs3M0sARh+TDDHrC3HluTthSKmUOdWcAnnUBLzxUGSfF3vU0idsVPLBKhYleEjqA53UyrDy/PQ5hBAkdlzfYJnb5Cai74/i0s/hD5XCFfEgqtqw+WsVHVFYRQ7k3GRB/UyhHDz3S/MUc/k9hbA4U0zWIN8c0DQ17Gxg+CozXrfTEunvM3a76/VnQE4zzHYeytoxltaZFOAIOmrnHN34y9dZTAEnTXdwKTRbdr2APekRmEoakU5HNfE+MHaWlD87P9QG8kANQAyQ0eQ96C2yX6T7AMdB8NMuyZpFae0fxO6GqcfiaplXPPdSEXqE5vel13xGkZOsgEkq5c8c3DQJuEywPe1jhgYxlSMmvC34wvWMGAnFYOY+MHobqHjmCcsFyXdU09ObYMhC9MM+wBHA057ylfRHtEXzv9c/jqvfRGKhDPUYt854IW6udrBtH3Wqj7UD0ezZKer2miH8cZCAFddan5p/cs9Zjogwo5Ynpty0Wu+xP3MeyZxDsyg2/eRkubZDi2BXZgYqSVFinK8tUw9tbCZe8yQGSRqqFJrtGJvXU0Y76YRcwhcc1i+rHQsVEstcDwlR666xeK7ldIr49VTBJznUj1j9l2tNQvENth/nu50JKpWm1ukU5wzb+Q9/w3s5aafbaLSxAmirN+kGv+cN5tgeS9DLSdoLFvkMv06MomLYT8C12NEw5NEpUm6Y0EmKXGULY62yY137vmb6Yq0qm55vYDrisBuutHMaOHKOeahcWngVLrh2uFUoZ1h6Bb0tYh3MDYFf8t3fckidMdas7QddS0+OeAQdqD2TJ8rNUGrUn9wjcP1xUy0e6AsdYaOphhi1ynKadT37nDlfW7vdXAeITuNgnv/LksGRW6GsfNJPatfsM7LFZ/EFhy0uIzQ6IAnhxfTjzpciUSsfHEJ4lEwnFgPDHjc+l+XuszDt9swuFyFf0n2mGxdhyfS+j2/3GXK5FIzOb8nMPlSnwy/lTGdZ8cX059X4yRfJ79+QOuxCeJ5dT3lNefSSQSDpc/6zfVmP2css0OlyuRmPOb78A1xOGbTXwy/lTifCyReNL1lKm5oOx35XXOH3AlEonljNeUc1Y8I6N+zvUczX5O2b7zsUTC4Xoq6zOJOX/qPdFO5b2p31P/rvoZis+L19X9lEvWifGvvm4pxoyQl+prOHyzWc9STb5jPNd3xWvqflCuC4lEsj/U8lnru2buQQ/1M1O/Lsa01pjXwsx6pkY830L6V6utAjGe8mmLklzyWC1Llb+tvKd8+kTreRh9P9e1zT63Qsmnj0qhg4jxr+5vM6jlsVpma/W9llxXtkM9ZsXzEN/5JJZInI8tJxyup7Keg55cNtsnem0zQjwv9ffOxxKJ466nEnrjRH1feu0xM9ZE3xl9Vk8umf2smWeZz29YWKwF+a6XpdYPjWRQLp0r1/zR0h/VFLtGlwKjNoj39HSTJ8eXUzJFqa8p9xN6a4WeHqjkk0QikYhly1sz8lj9Wb3fMdMOC4vPEnl73Amvkok+ijpdiMk1oPAkEFb1YeSSeymtNVHA99zb9NdexL7zaMHXuQkMvDJH+4qfyo6XSta+UqB1otQRjMOqF8syMHAqqHmqITxv7K7KrOteB3xdo/SOdBIbaQUyx1RHMK572iOIjbTi9FdQJXvz8mSwWDvUHlVpr68FAM7Ok5zrkcy5LuSACxmoAJKeIRN9k5qeR14gOj7K5TaJWnku9Z1c35voo6TjRIx/AGfbIFpeFnqvi/boefFVdQVxh2TNE92YXEOHNEOHVFfwia+ZOab8rPBcaxkChrK9Vpz1MhN9Muww9hRbS7wO4Moo0aOdsLSIclwIxGl6bLyy4LEwC4TlcwWH0WR6UWb2V281uK5EaKnvZPiGlLUuGnk0xcYPAj1ZcluckIvXUvPtXjnj2mOtNjqYYTFymAqdMJx8xs1GRquPBtokUyf0ai8FMOfhauS9IX5X6/m2AAytto3tmtfJ8vLyZP/GyWCcfgazIhvsAPdWwI3V/zvAiw1vJOnhi+RNPW+vA7yRpAeH3lzSe30Z4MYi23c2Y6TrqceYmBOpee2wpbx33EzCkhsc2WPxUDBOf0jGGwlo/p5oT2Mf5BrLtcBEpIeTXcD8Ij5qdL33tDzu1sITf70ppe761kdwcfgYP/h2HTisMLr1xow8awmhqQuA9ngvlX6olEFKtDzx80F8/5qfrHVZ+ZmBtk5TkWRrSW81DPQFiN4YpZY5hPxStk/PQ9mz1Ua33Jz0iCMtn7vfmGPYMwmOY9QC/eM9VLVJqf3VMtDSFWTYM5jhMWkmcmeiD6K7IhAK003udTAXJ4Nx3AxSu8vYc2+9KZWdAOD0/E1Wfvw8+3+yB9hckvZZfHrI23B3dh7cIZnaI6WdJGfngZDMdn+mIvdpMOjFgbOjC/T7l4u6zu+A0+8s8si9b5ekXbeSQ8E4w8hQre32rqQjGOdApA6kGcJAODRJexDOukY1FeAwMCBlLwZKwX5NrqHqhp+ONpmxK651cFn/9KO1CRQbRSVVIUBWPyfzCrYIWUpuPo3nc2AJ3EOj1F7Rlze91UBEKE5pI0NMrgG0FSphdBr2QHTfDANtyvtOGpjDkUU8HtAy+qgRG0MtI4YwzuTrqi8MCBN9UDuirxiOtdrwuSI466WCw8jMMtZqY7Y1Qot0gom+wQyFVRjyhRHk8vyaNcMUXgcwIvpibfJ1tfjncDOI94iffNYmsVFxM0jMwODqdcD2yChVXUG6pcwxpLVpcfrn6B/yQvV2MNH/Is9M7b6DWe+NtdqAZKjsHwpis9MPyT4sgnzDy9WbTb1NqSBWTcbhpxZO/xzcyFw7hbH5gIGRKhoCWEQ5ptWHrUpEWJs67Db6MUmD2h3ujNfFuLPvyz7My0XmvE7KXkKybgoPIZd6r/jRu1+jeaBFLTA2kpyHvUBvJLNfSnEo8GmilLrrwv8Nn7x+Cr69pfiGWZQMLXkm9mcT98qaxist+ZOLfPRD8RuxHVMZ80wpd3IZk4RxXRjglIeTVTIaum4mWgeYaxWWaWRETRrBsg/xtNon7nW7A/C4mb0kw46e1G+4h6bwXknrNCLs1dkmMTEOLW3Qz2DWQYhYI9QHhFlt8s/hZjLj/VxjKVcfOOtlIDucdr1SbagplZ0AYCq6wpafvUzSdcHiD428DHfCq6TUOZzEdfsBe6uVFPvThtgIPOc3Pj0XhCOLHFj9dz/AeICzbV56I3NZCrBZrw47MHyklShhzBhaPs2o83VVAZBcmJ31k4Cc92JltCkrtWeN8PagOnfuktDVOM/50c2pqLWAaxl61ae+6lPS3kgkY+Ns1iME0smLk+O/+P4R7ehnklgkQEewgrBkrDwOe+BaZIaqrmncsr7CBNqnouo+W7+cLca58aA4RUwrX4pQ3PuB9oj5fDqiUEi+OT1F/5s9qbeT9Cr2zbfibJNwM6j5bAJLwNAo7XmMQ5FnRm1Y0UPtBaYcNxN9wK718zwoBKXRfxborj8BTDKA9mGRkok+6JUjikOD0qLeyJjd2CjROrw4GYxj5D3jlipy3r86h2H4wrSu/NsC4Mhck/UMeqA6AMBYzxSyV8+DWn2YsLwEdkcy16mWHNTykBPzNLAE0fpOeiOdqfvMlTtTL8edWa87tZe2todK/sZPC4tSsAgQilKxs3Sekfnoh8skdZWOtsGMA/vr0Xjy0NXRQEy2aeq2WsZ14VQQ7gswfMOrOUczvfFGNd9bK2qBWKQHpXec0z+Xs616Bwh2wL2zgegFYEfycPPkG1EO9A2CQ+fQu22wKB1M6CnFYuZgTBkVZmHxWSGvqrLiZFOLliF0K85USZJhYknhbZfPhkONsrrRB7+FPv8kzq96qZIknn2yiZvvvpzxed88dEgSN38VpHt0DmddU0Z1npuA78KHfHXPMzilOqokib49TXxw4QSwkrqO0z9HiyQBg1TJkzglKauyYvifb7Lr6RM465pwShK7vlZH2P8M/PbD1Gc6gvFUPyn7Mjp/Aufjr/HCwxLwXtZ9D7yzwtekOnj/VN59IO7z2ZfmqPraEzgliW99rY7Zl46svmOOy/PJ05ezrtzVgIVBRFlJqLcarvcFVkPaCsfrgN6RUc1QmVLTcWpBt5rSrWDYA7HIDPQFuOZvZvhKBDfNxK746R83v5EUY8aoYlRYrmMAcEpew8+ZqUS4SHKT1+hvxte1SK6KrmOtNqa2juKUOnV/65q/mVgkovtHX/7JjQ8F47hDMvat6Y2lUHLE/Jz1S6nN/kTfZEk83TqCcUL1ErEr7lUjdg1jrTbD+4tFInhHItixERtp5UAkgrM+qluNLSbXZHzX7Z+hH4hFAqnXxiKRnMYotczX2sCGSZ6Eis8IWZkLN6Sqm6nbqod6LGuNR2EEi0UiDF+JAM3Exg8Si0RS/W0GYTAAqJInTckB0b7+IS+xSIBaOZJXRd1eThCLRNgyHsFZL2c933RhJ/Mbh7FWW+pZiyp74ve0ZLnXAbHIqOa4yWVM0tIRtNa8XGNqLQgsQYvUiRibejJlIhIBDuKGNQ/NEWGr0RsA8fQmWWrOuxKz0EmU41bct1q2ij4Xa4ymTFVsAs/OQ39I1hx316Pa68H1aFzToAcKT+cch8NC9g57JkGewSmdyKouvUU+zFgkkJJlVW/MEeiqQ8gFo3u8FomAJ/2MQ1fjDDCJU/KmfseMbNaT12YOOYVsEuuYsr1CfinpCMbxSRIrzOG78CH1bc/o6nVKfTHwyxXqHz+WpdMUo7tmVCv+F3j2pWnq25JjrV6SeLbLm6GTimrlA21SxroR6JIYeOe/4ZTquPmzI1l9FAWcj79G+GkJuJlXH6Tu85crtDx9AqfUSL0k4Xvay8ovzRUoC/9yJaOP+toauTl/KuMzWvuJZ59sgo8mDT+jtecoRM8HOP3uTb765BGcUh1frZM4ffgJ+LWx/pWL6BLAgmYanELIVz+0A8/JNYQ9fnz1MjCXOkhw3Qv5RmiNtdoM1zERlp/vOruRGWu1ZcijsV2ujD7wzSfntIj+iEUiXPfP4JS8WXvdXIj+g0nCAB9HU+8p17e1It+5I2RSNNjJC+/epOprckH7ezN2gstx6Dj8Ms6vJvdZLV+VOH24M2OOivVavSe74peo+ptpnpUkuJnt9Xz2I3BKT3DzwjMbSn5YFIZpjzu1wqfGyHsg5eWg4caq9OIrRant6P8Hxw8H+csvhvH+UCa+Usb3Xpnm//zGEf5x/DeUqU4dvv3CDM899AHDM2+lrwHsfnoSXu+kv68ZW+/z3KSM08EP+epTfib6LlIrnwPKeN1zNx/cd5Zn94wzJi9S3tDDvwK4/R4A+kKLnO1qp98DvYNPQ5mNwD/fpOPHZ+i/2ETvPwTgthr+cms5j5w7S8fwND+48wT3tJ4FwCXZaf+mnfNPPcP+96dhUzqe/SbgC00zdH8cNqWFndk+iAJf//dBtlySGTrSQ5n9KS4urtDyNy/yyocP0nTsIlCes8+F14LTP8f1oUnGtgZ1N/1CONv3VSYbsIpnVw3O+lG0xoheqCysX6Wg53YCO2dwttUx7BlclzBuYQTFwBlLL0xABKEIQ4Y6t6CSfDzucjmBV6z+XmCplQG5k0a/dg46JV4HuCKjWdUNZ3P8lhF6+dmS160kLJ9Lji3VOFZW4YJk36jzfBSD+vqFoHUquxaoZb7W6abac68UFW71UI7lQkJ0zKI0GIR2BgjLyd/xzQNtku480ZprRp6uevRWZ4fmiYrfxRx+idBMdb6hUqGlI+TyIrsVJ+bCw1N4QXUEoUquYyIiZW1gBtqkWxp645YqiA4BLBJdsiE2ybHW7HFjJjyz2z9Hv2eSAQ4Cg5rhuOI+vftyh6opc3sq12jhDaGXbkDvdVF519XH6m9rG/5EjiURpj67ZAMPBE4N4h3ZA9iSIbWKe/PNQ/+QVxHelXlQmCu3oTJNgLNtMCtVQL6ovfWEd96wBzhS+HryO+DbwUW+dMHP4F/KrJS18dKlOC1/fZSJmwsp3VVwfhEqXzjGlROPQ3laxy9Wd0WyAzD7W3jyyRPc8+Eg3/2LRynvP0t8BQZenyX0jSP81D+Dq9XPPcDr5x4m8GEt0cPt9I70wO0NfOk2uOcr/zO+TZ28+/NjND30NEq9NPw+2H9+hqZzPauvx/PqA9/8CgNte/jBbug/d5iblPP9V97jZw92MvHmYdi0T7evX3gfXnh4D/0dn6f3xGFuUsbZ0If8LrpAeXXyM0LP/vx5ObWfWKGM8+/G4eZi6jNm9xyCfPY63cFFpmQvf91dia3jeRZXyhh44SIffs3LD/7pJbj9gXyGWIrQ1TgwSeDUZGreFUMh+qGyqrqry5ucO4qw91ngsnSC3sh28pHZRnlIc3tkfzq8YDW9jlUhp+IQVakLCz1VGLZAyvKAC2tcq7+vGXcInrvip+ooLEfD2MU8ydMIXCVP5gxjhvReR0m+doLRd+HB8qe5Fj4Gn0sf5piVkbnsBL75FQb2PUH73R/w+iEZyp9mdnmFZ//2HDOTXobH/XBnK9tvh9fPyfimvbj8nXjPHQXuZpMd9q808P3hzfRfvUj5Q5nz+fTP3qPX9jbl95/ldwX0wVrJD4vCMGW4E1byib5JWgiUdEMkvPjUue0K5aQf/ukfP6DsvrQAqb2/gfrHKzh96Bn2v/kgIpljGPinilns94czrvH9YBzb65384/jBjMHr3tZA97YH+CvZyz899DJs2kfjn5bzP/5pAzBL3d2/wb4tfUocWIKzXceY6LNlLLqN26DxoWa622Sa/v4wlZ1hKh1l2B0N8EqcrzihVnEd7/1w1tbDwqUAlQol4vKvgVfexPPioygVYLN98P1gnLrzMmNTSaEg2lb2xQYGvuGl6ZuvGSotakSeucBRGe9IA8rn6Qa4w0V0CdwsJENkFIa7XPl8CsWscM8nRxuA3VXJWHVakQ8VURygWHItdOqwHL3NsFHYj5HxNN9cTpB83tHxUVraJGI7sguKFHJamg9aRgSx8U0bvnJTCkObFnoGV2XYll5hAiPDgt4z1nq+buCAQW7BTyMdwcWUoU2gDGcb7gPQv2dhMOhnEO9IgFAwLXfb74hzyD+DU8o/n2ExiJxAItXELBDtOgH79mgqz6heMxuyGyV570rvefW4GfabyxG2URA57ZQybKwVAluTRUHcQxKecT/dbWFg8pYnIt/isnEdVr3RjTedennmBB3BOP1DXtojAQa69L3bXXcANLMcXUhtqvQQ+pvoFy2jr94GWIR9Ko37ybyYg9Tu0B9HynB3kdeuFujf10N322Ay0bpq7onnnMybVbjBtRa4FunhUJeL2l3pa+vJYi2EbBBrh5bBNbBUcBPxARMfjlI7EkbonE3b4FsVNfzVdxpTuqvgd69D+/x2KL879VqpdNcV4K9+Msf2DwdTm0+B+/4GvuHfjk/2MrTDTfntzTRuu5vZz9/NbyKyeYYAACAASURBVIDGmntSXpd2oGlvM+Gnj9H07Wm4Pa2vnb/0Hvs3vUfZtufz7oPZFRg49CIT8gq1fYHUZyu3NVDfZeetV2Wajj2K3gH2C2+/RztztB9Jr7fubQ3wL+nPdI+9R8V5OWs/0bQt/Zl89hwCs3p+YAkC8jGu/KgW1yPpz37pvgZavvF52s8/T2VH/htvkSLH7YHuUDNRqXTpVPLVD0UBhe62QQjVreYoXZWDSzDgAVeXdjipHmq9OVfeNlj7UNlSIw4OcxVBEwj5Lg7QjQ6JlXqo+F67tECv2OfdO8fUhUm8rcnUBdGPMVy/1BQTKpuPnQCgYnaSpjfDqIuDmZWRRnYCIYOGd3yA90cBxF6+EWh86AFa/tcTeHwy7ucfwF5Wjn3bZl5atuMCGrdVkpI7wPfvf5zLF57BrTjcWAAW/uM0f7tvM5Slf3e95YdF4ZgKlZ1agmHCJfMqEai9+LTC9oQLfncInFJdxns+SULtSr13B5Td92jGay5g77ceZuZ94FcfZrxXWfNgxv+jQPiNixzYDWXVj2e1+c9bK1iwPc7C27kNFa/+fJF2Jqn9d50oT8oAvHeC/bEneOvUe2iFwCppLAP7Yw9yeTzzs+cvxem1vUb5/W0ZnzfTB+I+n+gE7sw0Wj10XxkLPMjyB+nnrQ550wpjsgP9+1rpDgHz5zTvxeuAscio5sKgFbaTT1jmLBDoOpHx+jV/cyrkRbh5949HUqdIIvSpUMTCFe4L4KyXc4YKl5KpJXCHwnCHK6/vjbXadMMC1SGTRn9GfacOfdMKkWyvBjx+AqcGKaZ4gHA91/tTGsCE15NmhdrVMMDZ6h6c0gnja6pCI0U4gVG4n7NtUPN9LTkGmWFc6rAtgTKUKlcoKeQX2pUrXNZMqOxGY6y1wvCet+cIk6nqCuoWIbE7bIy12hi+EsHZtmAqdLxYhCERBhkAfH5vhkejG5IbZkVIsHr+mg1NcZEOM9YNS9/66UrEL+a8cgOgDufpbpMxa5RRkksuqf+666Ws33HdAWGa4eOoIi9ctrwX4WFGVVHDkUV6TRiuRMLyxYjxPeeKwoDssPxcaQwGLs2lDvm0UBrt1MZxvfVEPM9rfnIa041+W2AHxkZasyt8q+aX+k8rtDUXyjWDIW+GHqw1XgC2A7V/9jhqnfMJTwULPEb0RuYa0bgTuD2zMmGpdNd3V2BhKMyBfZszjHasXvXPd9VwlmaW3wlrX0DBIzsqOEszN9+9mHptFlg4dRH33gdQbrTN9kHo6grb3x/M+qwLcD9Uw8IrAJl7BiVbbOVcBm6+O5X5xufS7Zt94SL/4dDmLC8eQaF7DrN7nVd/vsh+JnF5Mq9dexvw0IN8MPcehaxTLf45+hlkbCTARGSUAQ7SIXlNhU6uhX7YW01KnijlYK0Dho/00B1qZjloLK8EMbkmFT4q9iXX25KHOM76sG5qjFQ11uo9pn5noyCK8wA4j4aL3sfopUhQ4pYqFEWQkrLfZbIYXLHkaye47yFQV28tlYwMXV2h8v1BvPs6Ud977W3g3ruH0OtAfNrwOi7A/ciDvPU68Ov0Z9+ah6b3R6ncmTn/11t+WBSOKY+7zCpexeUhEwhlyu2ZJBxKKjNaoUT5VpX9UjVoTXz7vy7nNEA8CncmX3MDOO7J+Fwc4NIylT9sQOuUrQJgq4voh3EqiRu2Zyoe55EdZClFgjqpgl/Egfgi2IxLOu9/qIYXhjazf/4iVG9OLvbnLzLxmC3Dig7m+iB+Z/I+d18CRr+k+ZuLkdU8O2gnq9c6zRClyX1t3rxd0wW5vFX0wuAuz8NAaBDvPNRW96S8pmZBN4FuPt5Vhm2Wa/DtiFDVJjF8QbolobPdb0ynSrZvB7o97pQnTX+B1zSTlD2b7H5Ve6ZoeWKIgiLd9WG2Bw9rnp5lFeJQVPmaGE8aDXOdvOUbNlkLDF/pobt+ISvsTIQNqytOaoUvqu9hvcK614pcobJmlLdPC7mMdkqUlWDVnrj5eufoIbwBqvyLDCMT8idDdgeGSIXw+Varym6/g1TluFrF+Ls8D24GsW9dW6/KtUhgXgr0vE9ToUEalZx986xuMrO/o14fi60qC+ByAFSyHF3gOum8cHrjqCWEZgqA2PhBYnIPZtZjkVvv8hDUynO63+l+Y47hvkm6b/jRSnFhFnFPIvWDXn47pdHumr85S5amDg7b5JTXnTIU274GntFrjXLNUCeh1/PuqQO4656s1/9VOYCd+K9eRmmadH0Z1PpiqXTX+K8BFrlnk3a+wtT4/uhMStfUo8kB7PbyVrAT786nARs/e2cFd/wMrh2Zue/M9kH01zeZApxffQZ4RvuHlxZ18yb3eyro+PlR7v3GEfbe/xpP7H2Kexrb4HPJvUN0CYgv6N4/FL7nMLvXmYrHmQJe+FK75u8nA18yK0jnwumfwz3kTVVqFp6oVV0uOuplxq5geOhXKv1QjVuqIAxZssvrgJD/GIfkOsNUPup7ZMirCBUdXfWEDeNsGyQ2TsbcZMhLbPwgy7sirIUhQ6uwlkC7aI3iXjSK5CjXp9DVOP19lQwMTdJ/byWH5EHGtgbpuNqguUaqq+1qFdvRMsIpo4M8W21000x7cJSpraMwNIrXoJKw+oCxmFDZfOwEALYvZusupZKR0V/fpBHgT7U/s8VlS7Zp6QOwGetQj+yw0cGj9F8KYG9tZgU4/Z+m+WtPHO7KdFJaT/lhURx5VZU1wihnVIp70/+s8s/RH5JpjAQIS1OULJ/O/6D/ViVA2eczX/yj0vzsWuPetOoG+5+ep7H6KaY+KqPy5+PU9mucjOTRB8PdNdh2PK352XtyaVI6DO+qoXsoKZBLkbDfDCLXjlZ1uVIn0NWjtxoaI8nQWZe/bk1DqrpDQEhOLXRKo7fItVUI+eRvKkUuLK8Duvs6OSt76W3N3iQqc2lo57jLrziImRxr1/zNbG8dzTJ2CK+WAwZeLRsR9fg32welmLt6oZrFfE9LEcsHPYPNRB9UaMxZ0V/9DJqeG2I+dgQbcNbXcc0fxt46qpsSQPxGPvkyZ4HhG+fwjswQCibnrutKgJb6UWI7TnA9uoctgN1RgXtnBZflzM3MwKW5vCvEG20eYuMH4Q59w7SRoq1ncILin7cehYS5GxnoBYWuN1pjowLA42IxMgjSsazNUGz8IMvVPVR1Bbm2MznGOoJxPBfq8I7MEFiyFRS65ZYq0iG6OkaLmFzDMhHoMp+c3Ajh9aGVNkUps4wOQNqr4brHz/LqdkIc+pYyWkS0Rblxh+wKsPrkHhdmUofofebzGp9VUvbHqg2igb64kSgHeh95gPN7bHg/usjKXY/ie3uWsd1xcGSGauXTB+2QyhWlRpmHSovK2+DKyGOE32/j7Kuv8dXHX6T9riMM/cNoRiRL2edztagA8tDze++D7X1+tNaVPwG07l0Lo7VQrHlOfwUd9d6k8a5I76lc+qG6bWE5GekzADT6vRk6+IFWGy3yQZavhrG3ahvulLpBbPxgRh5RYZy75m/mEMn81mK+K/Xm5Lap9EYMvXzUxVSVhWS/bZHPwfh23EOD9O5y4SRA4KiXsZGZjDVSSw/XIhxZxKP4v1gTlbJPeHZPXZDpjgR1w2TFwR87M19X6qh6uXJ1c+TmaSf4/KfETtB0O9i723jrfDvtrYu8u1LB8vBFml58lKwxuQ7yw6I0lMxwl09xisASuIdG6b3iZ5YaYErze4UQvQG1Gp5wl28sch/AncYDzAaww87C3DSu9puoT8AWAa5Gce3fnPUbarbbbMxcgvZfvwe3Zy9gM5FF9m8CbLkXNxfQ/s2HmXr2GRp7Zzl94QvsvX8aNv1N1mfN9EEZwKbPY/uXORq31aJ29S0GrwNCfZ3gSj5XowpyWphSgD2Z/z07D+6QTO2RbO+RdIiRO+u9UnOrCgNonXDlg28eGi9JWXO2VB53+TC8qyZ5jaUKFh2sqXeO+vkYFd5w72zgpAxju5IntIeCcfpDMrUj+Vep3Yhoyexcxlhl7j29wxpnvcw1f5hwpDPLEGy2OIWWBxPkX6xgGTjbFSR8bzQjGb5W/hWtNqkLFxRSpS6wNUJVfScxV3auHkGLfy6VaF/8Rq6k2rVA7Yi4XvKEX3gWzF6qAykdriNOt3vnp6C6Juk5MDSaM7dsYAmib3RCqDJjTirHjugjPYTSrmVw2QjFKaCwoil6Y2Kt1ptwZJEDa5z7UyDGi9EmNxd6eToF1/zNQHqjJvpN7QGqXJOMxpAwXI6NJNvrmycrUkPIg96RbF3ErJ4i8vCp00Tk8qjOJ/+VXt9pedaox6GewfUXHwFM47qrNufvl0p3td0OUMEH709TuSP7fSEbXF9+OGebADzbyvBt6iR69U0Wyh/FPjquKEqRxmwf/MltZfwCaHSUwV3mDzDUuDeV4z62j7d69/Gtx47R+Fwn3pEZym+zAXYW/stFKu/TTitS6J7D7F6n8o/LWHkXGmuyo3Py4WwEBqROJvqMC0bE5JqU4Yd7i/fmNqsfitDd3kgApx9ahrwZ+fHMRNdoHeYIY16GLhNMrrcTfYCcPKwXa+utJLuYT/6cDMY50DfIZcWeZUKuIdpVXL7aXHmqlR7ShGTdNA7qgzDxHJ3+Oa4FOzUNiL55cJ2SsgyPqWsWaSeA0slI1+3JcHt++R5oeOZej8aT2927ch/4lAH7/20D4eHNtH80TeCfH6bXdory+89mffZWyw+L0mEqx12pMcpzViznQ8Av38x47fJvYWroDA9+ywblxkqLC2j6egMnX4eV+TNZ7/9dcJHa+BkqG7KVquVfZda5fGRbBWd5gNm/H0VZzh0g8CtYfvklGv+sBnXs/Cf/FbRcrZvuK8cXf5TL71xk4dRFPN/MLEohMNMHlUBlWwMvjQK/Ki5sS4sxuQZ7gWGBuXLFqPPiCG87rRAbo/eU+Oa5JTmpSoVWzkfxZ7SJFlyPxrk8BOrcaqXKcZcPXgd45VFwFKZ45JPjLh8OtNoIc5DAURnffFJ5M5MjaiNiJneTGZQ5q+gLpOaq2z+TyiEZi0SgdRRuLBaUs6S3Gt38ekb5GQUi5K47BFVSHe37onDDxfad+RVAUhYuEPluCkHkUdPb1HcE4zDkTSXaT7GaVNsnedHKgajHWKuNWjlCOJLuf68D6OtM5QvqfmOOfiaxt2YbEoSiXCVPEq2XcO3qxM0C9q2FGaKMcrMVgjKf5Ky/MM9iPa75m03JPvUapCTfgyojUmGrN4AbU6bzERaLGC9n5UmUY0/kITaTAylnfjuVjFDPe988Ke8XsS4ZGcbUOfl6q8mat1X+OQZCMsxnHhYLb2oz8mrg0txq8vvthp8rBKd/Dp8kEZPRHHPKvKfiT32PYeCDn2WOzxVg4NVp9tqmKVflddaiVLrrfWVg736Qk6feg19lemauAH/3xhx7bZNZbZqBZKiWCqG3Tv30bc5fmmb/ptco25Zt9DPbB9trypniUWb/45ms+zTFv2T+t8kGPORe7YdlGsvB3vkwJ1/Ivn9BoXsOs3udRxo28wKbiYayr50P7VJyHTMTSZLOEVe8DDSjH4qq6kI/m5BrgIP42gbJZ+0UiGqpTknCc6GOWGSG3kiEZWpwdgU5EKnD7Z9JhuQyh9u/p+hczYVgppiPEbMA8jlqd2UaWGsB70gPheg8Qv8ys1Y1VkOuPUS66FJa3oqDjcUIaPW564443aGD+KQ6tJ5/sXYCKFxGqu0ED24tY8HWQ+DUKOpUZLO/hfDpc5pt+gVAfDmrXY2b4K1NXi6/M87Z4Nt4VEUpBLdafliUjqI97vTcd/P9TKko98CuP59hf3eUsooHWbgJ33/uDF4madrvR686lJIf7K7g6+/4+WqbTH/fArb79qRKs39w1s9P/Q0Z1Z1EOMvJ03HaN7/M4m/upn3rCu13PcBl/1FaZC/9N5qo3Z0uF332x2cY3vEBlR1p5cIO2O+t4OQQlN9/hg++0MDe22/CV5ICULjBDhyX6cVO+f3aiVbN9sF/+HebaXnzILvaZPb+xRTlX04WuZhavMkXQlPsP+NlPYwU+XrcnZ0nI2xUiah6Z5Q7AVbzcaUSpa6dR4PIDVJsBVojD6BiQmXXw+OuWEqd406grlS20XPUic2nR7X5jH4MW5gER2kKpygrkM1KzdRWwxYXtMjN9A9J9EYCTC3V6Ia9rTUi5E547fk+bsUdkrArvHHNjPO1qnStRBgntHJ21Trg2kgyb9B1KT+ZIU7ilf0/IdfQIh0k1HUYQpO6RujQ1TgwmZIxTv9iKpemwFRqjFVSho4SGLKU1UEDd/TQUt/JNUn71H09WItwehGSOtAVpGQpRUzQv6OGgSEyUl6IsKXFeyczcpJlj4fC1wR1OHau9A1mcygKA7mQ47FqgKQRQsiMbkjlpbQ7WrP0VjGvtIqAFBIqq8xV6GybTIbfFpliww18a66c3o/aqXjoKW5SxvdfeQ9Cx+j0t8LtuSsAtt9FSXTXsq8085PuBlqmD7Ks0DPjKzDw+iy20CDfHT+Y0SbXHbBMM6dPn+Ge3ZWsLN6kaXcDQo7t3bmZV597gNn/93m+qypKkW8fuG8Hr78neZ+/TN9nfAV+Nv0hf/1vFrB7sqNaBPUjc3Qu+7nHswco5+LiCpx9EXdfsl1lwE96G2i5mnn/N4HQ24sM/9ub8JV9ee85wLyev3cThPqO8fV/76X3ajv3tD4OlLN4E8KXpnnlz74A1ZnX/jQh1gRlmhyRpzh6dAGWAIe5awnv8dRBgcILTbyXlB+RlNcdpMNwjXLxibmey2PRLMIpYdhDwcUwhLcdjgh8rN1erXy86hx3kPbCXwTcoSj2I5kHferD41TYtWcwWdikbZCxK64MHUdrPRVy3Ejv9zpsuCI9tEho6k6lsBPkKyP17ASNjgfoP9VDd9sUl5e8ePfKUH43s8srDPztOfr/p0ma/iqQ0aYtLhsD2Hjo9CjlO8r5k19/SKXnMSC5ujTtbWbg1WM0zf+OymeyC97k0wefdfnxaaRkobIbhT+/F/6fQ36+P3CCD34qc48tzg+aH2DvtwNwuzlF2gX85x+1cnzb3Qy86ic69EQyVHV3DT+ZOEL5VzI3T3bglUOtPPvsdQKPH2H/l23wQLI0/XBrBY1fvMirL/gZePx5YJH26gr+6cijVLaOohYQf/9kDd0fHGW37KfprhPsfTGtNAg32O8P2+nvXoYy7VMBs31Qexv87y/38MJL99BxehQ+auceGzRubaB978NoKUSFEI4sZhkTjMinOIXR4iVc3LU2xcW2sRByJd++lejd763OcafGTH6oWeCkdIIDV0rjwaM24iiNogOX0qd1WorFWtId0kg4fG/259RhVWojdSqXmepZGxtftDfBQpnrZzJjnPRW22iMjKZCRrovserRpe2ZtJaeQ9sd4Pa4GTviZtnRysDRYFYuN71xnn1+uXaIjcBEHxkKqFaYXBjw1cv0RiowMzeNCk+EQ5OauUAFnq02PJ5mvCPHCCzZYOhwlgFWNzXGUuZ/jQwdhaAMQ01XP5VzJra/VYhDpNp9xXsiKxHGqapQMk/gsL+019dCFJo6JHtTCd2FfFZ7eIjxkM+aIIxlyjAvZdh1bPwgPnq43iYZ5tozU2RFGMj1Qm27jwYZ9kyyfWSGqq7pVLi/emNo5OGST6is8vBDJL4vFVuA7z7/BAMjvyHQcwx7/EM8D91N/z8epfy+x0xfp1S6a+1tcOUfevD9fSWHXn2R5X9O6pmdzQ/wzamXKLsz05DodcD1nxzm2aNHsJ9/gqHOu4H0Zzx3Qd/uPTS93onruLZRLZ8+GG6toM7+Ji+N+Rl4/CgQZ3t1Bd98sAH7Nu1Nr6D9vgpe8tn5YM9h7MRp2nY3Vwb34Lo//RtKPfvQq2dY/ud2au+CR3Y0w53J8ZDvngPM6/llwD/INZz+8luMnnyR6NlO7EDdtrt5orkBvvRo1rWNSCQSpj6X1HejJFLfSZD8ZoJEIvM6eq+riazKH1vFZhKJBLNAd/0JfvrtSWp6Psr4btsdwPALyWtrXDP0f8RxM0niTx5OvS9XgfzRR6S/kmBfME649z5++m34bx99lLpe+KMolav3VkOCH7/zF1Rt26+bEiP6McBkwd5xaqr8c7hDMt4r2rnHzLAlskitrK2jaR1cmslxdzIYx+MZBEc6r6i491XzXUoWDnsm8Y7M0I5Ns7DJoWA8IwWSMs9grsO6WmBi1Xinvm4p7ASQn4w0shP0VpdROXWOF3wvs/vZMxD/kKYv23hl78M07boMt2Xq7vur4RffO0P3j2Vcw+288sMHgLTMaX+ogo6nH2Xo/tfgLu11cb3kh0UJSOSJwzebOH/AlUgklhMO32zC4XLl/ZeY86euN5NIJBwuf2Jm/KmE48B43td60uVKJGLjiU8SiYTjwHhixufK95Y+VZx8L5H4X1wPJxLvvZj13lr1wfG5hG7/H3e5EonErO53z8cSCYfrKc02PTm+nPF98Vnl+FAj7lGMQfF/5XfEa+qxpvW+3rjU48nxZdOfVSPG+ifjT+X9Xa02GP2Jfn1yfDk1R7TaYfRsC5mLn8TGDedxrnt3+Gaz2ptIpMeGcs6b6U/1eFH3nd53hWwT39N7zcyzMPunnCNKOau8D/EZM3MlkdAecymZa0JOKL+v7ks9RJ+I3xTX0JMZha4jZuau1vg3c79mZWih8sBo3mm1V/S9nrxVylKt5yTGy3GXKzGTmDV1j2aft9Z9if7I1f+51iz1PFCOe/HvYuVpIpE9Rs38qful1OuvUuapx7myH8Tvin54cnw51TYtOZFPO9VrqXrNVl/LSCZr3Y+WLFV+V2+tzmft1rquQLRX/SzFOFb3kdb6ZFYWq+eGHoXIQ9FO9fP5LPKbRCLhOPhmInTQtfq/TD7rfXAr9zq///3vE+/+/vcJh8uX+DjwVOL3v//9/8/e2cdFWeb7/40P0cMulZ2ZZI7MWOmpLSp5yIOAPzM9G8ESTG0Wu1vpiURlGbbFojWtLc1dDE4xLihKP7X2pNUWEAtip6yOYv6KB8+RdiusdaAGmzmnTpxtExXm98d4D/fM3DNzzzA8BNf79ZqXeD9e99N1fa/P9b2+X5+/EwMDjuiVNV5t2cDnNX63kf8CnSP6mRa3Y0Y/0+J4ZaXeMTDwhd/9BgYGHPfVfKH6fK98PuCqq5S2kda//4zebfnTrQNe+0iE670M1L+Ro7Zucjic9VMgWymQze3ZFklEl7e69UmU6lZpO+m6PI/leS2e7Ymvsrc4HI779GbHF7JjjnedoOG/HY5o/YOOr5se9Fo3Ue7BeGZIwl04CJeYMRFexpMOh+P6kmbHC/foHQ5Hl9f64RTulCpFz4bIV+fH1/uiVrhTMmR9NUTBdryDZSjCnZqGUW0Z/H2Dz7Q5vDrxap/JUPH1Dip9575EL6V7+6rV4bhPv9ynACnH831Re8/l98rX+6Nmm5FArUE2VGMxGMNPfs5g7o3cqAtn+aT3Q809CuV9ke8bSn0QLC0Oh+OZlWaHw+pfuPMUy6TvQUmE8CVoOBzu9YgvlOoXz0EVNcK6VDYlQdPz3sq3Cdc3GKwdomQHqblf4SLQdynv1HiWKRQ7QV6nhkMoHSnkHUFf63xdj3QPpefsS+Tz9SwCCZXDwXgXrRwOh+OFvzgc1+vvdZw89JTi+vF+D4a7rxNIAFP69ff3q/r19Pc7olfUON57Ru+2/L3+fke0vtzRU3O/a9k/15xQtA/7W8pVny/Yn3TOV1boHf39J1zLn27p9yqHp2gn/SShUy4oSoLlUJ9ZoAE8T0ZauJN/e55tuTTwE8hekvYbjnZmIugEDofD8bMXuxy/TdA7HCebvdZNlHswnglauBurTISX0Z+K7nBMjHvwXSaQ4CYQhBM1wokno9HZFAwdyWD+wtHqeuZqjHzJEA/HgIJAMJZQGuxxOBx+PT48Ge6BwHAz3kUrh8Ph+KetHY4taXqHw9GhuH6834PhsvPDIcyJ3+BPScwbaC1388IbSwxVuFOa/TTWmAh95KMOhyM6bZvj6NZbFNdPhHsw3hl3Me7GIzsaPuDcC2yUbG2mIuNFom4+ONpFEoSAUqp5gWC4CCUp0EgkZBCEH3ndYq2MR3rmgZ5/AmC1FCAPwi0QjAd81WXBtMPi+xgbvNkDke+9yM4TF8LGDSz7QwHhisE80XH4iCmntNzXtoJBIiIiAPd7lRARwefHB+sQaZ207VigMA6w+K8XB+tDbwbtTcFosPttOxdGHuKJ520UsoHYnynHLhR89xHC3XeA8uPApqUU3joL428bGc4ECgKBQCAQCAQCwVigbwrcbWpm0cw6qp+9n8gbhj85y0TAU4iT/9/fOrXHG2+oEdocDofbdhEREW73Rb7Oc1uBIFQOfgM195pYcWMMxdt3wgXhyWovGHtEOMZ7TSsQCAQCgUAgEAgEExw1gp0/Ec/XsomKkvgmLfMU8XztIwQ8gUCgBiHcCQQCgUAgEAgEAsE4xpdoF+hfpX19LZsoBCvY+frX3/EEAoFAjpgqKxAIBAKBQCAQCATjFF8inMOZqNBtufzfQOKdmnXjBc+prp7r5PHr/AlxnttKxxPinUAg8IfwuBMIBAKBQCAQCASCcYi/6bCewp2vv5WO5W/ZeMWfp538b7l45+9vX/sLBAKBJ8LjTiAQCAQCgUAgEAjGGWpEO/nPc/nkyZOZMmUKkyZNYtKkSUJYUsDhcDAwMMDAwAD9/f309/e7BDrJu86XF558vXQscY8FAoESwuNOIBAIBAKBQCAQCMYRvkQ7f8KdJBxNmTKFqVOnjkq5xwOnT5/mzJkzbqKd5w+UPfA8/xYIBAIQwp1AIBAIBAKBQCAQjCvUTIsdGBhwW37OOecwZYqYkBUuzpw5w6lTp4BBkU7yXFQ7fVYgEAgAJo12AQQCgUAgEAgEAoFAEB58ZZCV/vYU7SZPnsz555//5f1gxgAAIABJREFUnRLtenp6RrsIAZkyZQrnn38+kydP9imWeiYBkZYJBAKBHCHcCQQCgUAgEAgEAsE4IFAGWU/xaOrUqURGRo5GUScMkZGRTJ061ad4J6E2i69AIJh4fHeGVQQCgUAgEAgEAoFAEBBfsew8RTsRy25kkO7z6dOnARgYGGDSJHcfGs9kFQKBQCAhPO6GSG6dnVyDAXrqRrsoI0Z5O+gMBmjfrGr7mh7QGfIUt28FdIbNtJoNYS7l6GIDclfVeb0X0vXWrDIA9tEomqsc5YbNQJvfbcbjsxnvSN+bzmAY8nvWCuQaNvus32yAblXdkN4R8Z4JBN8txoLdMxHtCoFvcuvslBsM2GhDt6pOtX061gnFZlTy4PL1E6LdyCPdc6Xn8YXDwfTHjtKy7R3X9p7Pc9kfbSxb/g6cODrSRf/Okltnx1aXN9rF8CLY/rRAMK6FO3+GnRyduS2kDq4NaNx3iIwMIDo5pDLqzG1+DeBA678LGKOhuLYKXXaplyF9sB3SKSXhDrPq49X0QK4hb8zfk0ZAl2RSfP/0VwFoRrpILg62Qwml1KwyMpoC4nhAqmdGyyiQGn7pl59kwFobi9ViIWWdxWu9r59S+Q+2QyOl1Kw3ofSeNPcADY3EGNKG/0IFAkFAJordE267QhJIJnoHqrwdv++FJJD5G/TztV8wtmxND9SsyvNZDl909wB0Kb4X30UOtgOUknJzGsHajErTLB0OB20OB5dfWcnknmYh2o0SU6dO5W9/triJdgAHTwAnetH//RQxTTZMSG3WGlNT0P1GNe2k2jZXiZIDbRQDxKUEvW8oDKWsgrGBmCo7BKROa4o5+AYVnAYSZUaqa1dDdJbX+laAsmY2mtMU13uiM7dBmTHoclRkgLGyBfk12IA5q+qgweT7fNmlQKmq4xXGQY7FwpxVddSbDSSYLLQCJdnOykOXZAJ8nwvAWrsa4gpIARrMeeiSjNQXmUgwWcits9NoSlR9zQDpQPVhs6p7GyxawFqZRW5dMrrsRI6YO9BmVYV0rFCfqxzPZ1IYB/rDFvKT8mBVotfzGuu8+SUUGdfx+58cIzZvJzB6sVlSAIrSmWMyYdVvhriCgPu0ApmGzSh9P8VAoaWGVuIDbgPxFMZBocUCOBvl/KRBAU4bDYXRGqi1cDTboPi+S/to9bFe5ymMA2ot5GcbMLbv8bq2hvfspNOEdq76DrJAIPjuMpbsnnDaFTE9UFx7F7rsRCoySjFWtlDerqEkO3jxRzpmuChvJ6RyKCG1HTbinfftKqcNJVFyoA0aUKzv1SDZYkp2oCdS25NOk1fb1HXCTkkDNBgSg7LTEqLBWllAbt1ddO1bSwJtQLzbNuXt+GwPJdvX874oMdTncsScFtAuLDnQRjqgnZuu6phqvO26jjgw/MxGRMyCUIsuCAOXxF/Ft99+jsNxCeB8Vl09cIvjNJr4S9y2DWbqbAuQvrwV+KvXusYEqPj7H9Dw2p8DHudXwAPbZgBXAKCt+gRaP1Pc1rbyexCXoGqbkUYL1FdmkWnoovVlEwmm8Pf5QkFq61KLwLOOGo2y+OpvqEHeJxnqsZSOKRgkKOFOSUBIj4uheFkas7NMQFQ4yzZmCCQKzTEBJnWNt7V2NeUUuDX2cgFM/qJKI22+jq/U6KsxliRc4pwfw7a+CC/jRTJWlIxTnbkNPlQWmSQxC5yVZqa5zWUgS+WVDDlrbazr2Ll1djAlwnS98zjRUJ0VT81cC5lJeRwx5AEbFIU4f2UdCaqzNOTSAqwN+RhWUzwEMCCVkL+3SqO1xmjoqq0iP9uA3pwY0Ej1h+0MbH31EG++Wkvnu/uRRqcevVLDitd3AdeEfGwl+voA+sJ6TF+oEbElfInZoPxten7DrnddRqBtytuBbINXAyc1ntZayIkroCTD7GW02ID89XVUZDRB3AbFcufEQeHhFoh2f3+kUcyKIXjeCARjhUHRu8m1bLYGchYms+KhAtBMrHf8u2L3hNOuKIzWkGqxkGnYjN6cCPMtrvLL7QfpeEfMhDwgFwzywZlgkNquCkyq7UKrKR4dNZRnGym0pBBsp6k6S0NrlvMe+hPdpP6EL5u1ME5DoaUKnbkNXZIRa21XUDZcdZYGfDybkgNtYWu3fA0A+xMHBzu2HW7LfX1zrtkbfmx1bzvBxt7CuYMbOBzIJb2K8nLOOecc/xcXZvocZ2j/22dMZTKXnXMJ06aeP6LnD5bj337F8W+/AuDGaZeH/fgRERGcc850Tp065Yprd/RzO9cBTD8v5OMmArZtToFs2R9tXPfan90EOP5ocxPlJKGv49aTaH+U4toPBXFvy3S4/Ykf4Kx54ZUTsPLR5qC3CTdqnTcyy4Ay5XZruJw5Agn8/srkyRFzGs1zq7xsFTmh9HcTAKulAFDeT2duo+JDo6p2xNexlNrh0e6jfxcJ2uMuBzDuWQ/MoqO7l90HWlhgquX1z1qJzd/DaHq+qEHJOAfIB/IN7h+99CI5DQBl8UrNiJkX7coVhLxDbgNKttcpvszSuZU8ZL4L6MxtFNNMxYelXpVAw3t2nM/GeW2tQKNpD/VFeFWmxmgwWs7e+7pBN2alStJTUBlJJb86SwM4y9nVA9Ax7FML5SK7vwqxMA6OmltI0O8J+Vyt30DmTzcz+7NScm7LInbZg3Se1NJ94hjs7WQ4BLb0aEh/Z1PYj+sPJRFbDWoE8qGQGgeZrCanrgrmDtZFW+rsFFMKcTVogYp1WWQmNXLEkOeqs+aY2yhuMGG01CB9h2o8POuLoOsOCzQ0KtadEtK756velePPeAlmQGI0ePM47K/YwJO/TITo0L/tLqB841sUJ+xHe/P68BVQoJpqUzJRyQXY+6Cl9RhPvLafo7fkUFFfNaRnO5pMBLsnXHaFvNPhFBGdKN1DT3FxOL34R5KKO+LJL0sjp64qJGEyAThiKUDbc5fXgI/EEVM82ju8B4Q8kQYu1XhxNAIlBve2y7PtqOkByqrAnIbOsMfn8TIbUGyPhtt2DPb4vkRAgIeAgk9fYWDgereEFADnnRe6MBQqvf3f0nPqa+x9f+OTyV+yRHP9iJchEMe//Ypd1lbe/uoT3v7yU9fypbpEdsTeEfbzTZkyhdOnT+NwOLADe9//gr04KMn7DCI+d24UEcHDwC+3xeAS3wReDOXblIR2NfiykXXZTcjrE6nucQ5CuLelUntSX9QUdL/CiKzvq3DMYFHrIefP1gfhITdSBC3c6YHUebFAPKnzYNmSNDJnprN7k5En7z4EUQvDX8og8fyopI9J+og8X/hglGTANRWjGNBmDU9cqzV1diowQVxLUPvlN/j/sBTJ8L3KX2fap3eRj+PJR39T1tWgjfY2zKURk/LsUgotKRxsjwdKSZi/OuBlyPFnQCt5NYUTNSM/gbwVQhUq5N5hajsRTmEx9JGOX+3+AONnpVTUmmGG81ypACyEsRcLNmzk1tnJ2Oc+zTiYaTbhIgGgKIXmfaUw1+4qR+O+Q87paGcbUWM0cLiKOUl51JNH5r500htMFB42I29opY6SP48BcHq2eE5xCnT9Sh1yyWioLypV3MefF+9YoeMr+OKl7fDLa4d0HDuwu6qDYrMtPAUTBE3irCi085yeOMYbk0m88x7yU/JY2WAmNnfsCncT1e4ZSbsCfA+EBdPxG+sYoyG/KI/dJiOFWd5TTZVQ6/Hiz3PMn80SyCMkt87OtabEgB3H/JfbKKYJY1YNxqx4r+ONRhseLrymySotO5uQYjSwfvM1XX/9is++7aXzf/+bSX8d4MeXxY1KWTx5/JM3+PUn/+b6/8zzLubXV/wTCy6+nF3WVnZaW7hXlzAsnneSeNdsi+CWL3qpfmwaEdHXEhERQUREBPc12KHe2/vt6Rb4Kc0uLzlBePAcpJELVtba1VhNBW6zoJQ8yfwhzXRJpymoOKxydOY2rPOb3c7XdQLSaYLp6QEH4CX7oL4I17X4G5ALZC949qv9iYGeAqdzmbueMF4GwYaDIce4iwT0s2L4AuCb3jExW1bqeAb7Makl09wGlJJjTmM4lGVpNHhjCDFkxupU2UCdc8nok86nM7dx1GCk+rDZbaRCOs5QYsYNN0qeChKBPBaG4p0lb2zC6aGkJN5KlaotOouOtmOsnAvMGJ9TyTynYkn3uSKjiZR1La53UpqeZa3MQmeOAcPgc5bvL2eOqclLwPWUftRsUzw/nq4y0K/rBmD3Afx2gDNNTYpxhdTi8loQCMY5+hkAsfT9zbe36FhgIto94bIrvitijRrP5ZC8IRWouCOerg/ToAeIVrfPSHm8hIrUbg3XOzyW2H6rBkfmp2eFO+9MsiPB8W++ZFfnezDg4O3PPubj//2Cq2ZM56LzLuAk/bz91adjQriTRLuZ513MUl0i9+oSmHnexW7b7LS28M5Xnw6LcDd1qlO46+pxEOs4A9PdpxA3fP6/XIsU5+7sMqDhtS/5DdARgnj3G+A3yz8DBuPRxb4GvDaYzfY6hf1WnoCVy/8M+I6Rp2abcCPvdwU7KAVn4zmfbRPkHm2hHCsQa+rs0GBipYLHtxpsOPtgudmlVB/Wu45xtMvuShplNWkUQywp2QetsvVKM9astas5G81bsQ1yrr9Lsazy9kjtVNnxNAg2HIQlq2zXCRuJVwPRs9yW9wKP7Gxjzg+XojMYuPuHibTuXHd2zSCdvVBkbmLOD3PQGQxkLjDQWvWQ23Y2QLeqjlazgc5euHtjHbrERSQZDOx40Ai9H4TjUgIiBVYGZ4daTbbGYDNwHWyHYkrZrR+9TJWSWBGsEWs1xWOstCCv4Gp6INOQxxFzh9fxcuvszlTYpkSsh82u9VZTPNfWWtAlmdzuX0wPVBy+izkm/N5XKSaI0vMINolFODnaZQ8q0LBacuvs5CcZgCaOmNO8noF8u2DfzfoisFosbr9qiwWis7gQ0M7UcPQ94JtOVeUsNxjoo43yfcdIyn7IZ90gZfnrqstj6/u9zPmhyZWVTlon/z7K23Gt3/qu3e3YXfuU47fteNfOgvvWoTMksiDRwJtmEzWfdStmiZXO2ZBkwHo4HWOlhWY0ZBrWAqXkN4CtzhnL0GqK54jFwpx96X5TvR8xp7nd13Szt9B2xJxGca3FOdLnY5vBGEjOzkjhfNzeASmTVH6SgYqMJqyWFtf3FWwqemm0EJpoBDjR5VrXDdDQNSpZZuXvROuXcPfa51xtRPmDRvo+ce/sSu9i5zdtzvbEkOqWhdB2Bh7ZeYik7Dx0BgNJBgOPrDLS+/5zXucsyTa41TmeWcgaP+rljgc3o0tchM5g4I4fJtJofgi+OebaRmduI9NgwBnfy9m25BoM7H6/Dp1hKR3V3nVGHzBn0yG23mIAPgj6HgB0fuNsf3ULjOgMBoqyU+nctxk1U9ylNl66RwsSDTSuXcrZN8HFjnftZK5ah86Q6jpHb/t2t23U3CNw/853vN/r+n4zFxgUtx/qNX7xJUA3s6++x2td4yd9ZD64GZ0h1e899ry2ouxUet93v/5Q6q+RYizaPeG0KwDq1yWTWbY6YOZTXXap4vWGK3mEGqS2QP6rt1iA4D0IfWGMhsLKKoh2F7gaLd3oMwBi3JZXZ2nc2qBgKYzDZVd42ilq2qdr9YE71fkvtyHvcErtovxccwwGaDCRWeadjV0pu6QvW9OzTZD/pHp+uChvczDjssuIufxy9Fdcgf6KK5g5ezaXX3klBQ88MCznPP7tV+z8vJXHP/43Fh7cSsTLRVz22gZ+/Z9N/PpIE2/3HHMmV4iIYIAIBiKgf5Szph7/9it2Wls48r9W/u6c83nsisUYzrvIS7ST/v/2V58MU0kimDRpEk+1fMpRwHHiG4/1DvTTAb7vWpIBdDwxDaZPI/a1M9j+GFwMuV8Btm0zsG1bQOO2BcD36Lh1CrZtC7BtW0DGrT9Q3G/LdLBt+4Fruy1PLMDTB2jLdGjc9gMaE77nc5uxglQHjFRfu6YHGk3OfoJSHaP082yTtMBGUzyNGWbKk0xAm2uWjf4qCFZglLyZtVlVFMZ59/fkA4DGaLBaqrzWD7X+F6hnSF9S7xnY8uYxIjeuZVntauQB6LuAWx+o49oDJsrWFRCpXc7+7j4yN23j+WM3sWjDfiAKG7Dg4TpyvlzP74pMEFVAVVsvmRvX8vqZTq+4eQf/Gw4u38yK274mb/N69nb38ciDZs61pZOz6yCexoQcfwEifc3dlnuc1fRASXae13J/hDItU1L+deY2jpY1UT23TrUqP9SpsmpGdCX8BeIH54jAysNm8pO6vII4ywMTV1uURzIkMaK83Vm5SaO5RuIxng1ajMF4doQ3xumFFB0DJ0Z3qqwvpIq1GJzlDBNSQ6DGtVg+KhWO+xAJPPaTZPJfyuLr9ByKn1mPNs67gyvnJPDLum7+YZ+Z0l+Y6IvMZucBO5mPrae+t4MEk/s3X/U+3BT1IEcaN8CUwG7l+S93cu2HZkqLH6SXbNZUt3Lr8lL+355ziZw32LHJr+um2WSkMGc2s/dsoJcottYd4+TPc3C6Dg8+I+leWQ+bIdp5/6T6RHovc+timGNK5AjOGHKS+F3Tk4UuKQ9r7WDG2cFpP+5UZ2mwZVnQraqj/iojVosFG3DUXIeurINiDFRbatw8OpWmKCm5ojtHtAa/Qen7kgZFaDB41WtKQbGLi9JIb4CNh83MWQ+2rka0ZwfNpRiOoxl/s7kXXli1mWVp3eRtXk9nLzyypZaP78xzm84NznZq66YaKn4SS9Sag67lrd/AffdtZvaxUh79+Z1EFe/G3gclL7XS8ON1vGZuQZ9lZjbw0p5bqDmWQNfaHAorC2BaMv9wAUju50UN3exelUNxBhSWPgiRGmo+6iX3d7so3r+Iwn+tgQvieSljFp037OaRu2qpNnUTlVzARYD+utkULYnk4Ct5xOZ+gLydPdgLtoq9pD+10G252nsgxafMoZSX1qyHqAfZ+Z+9LFi+gdfX7Sc2t8bnfe4F/s/at0g8sJTSNWsh6l5abX10VtTg7NzG0Af82NxGd5mRwpxkivesBaLY+1EvJ20tLgd9tfdITvl7X9O1O48nl90Cubc4t3+sioq/3IXxaWebMNRrbO3pY82mF6m4bT9Ri923K2/voyT7Lp5cAsV71tJLFE88/wFv3JRH/d61cPX9gLN+fvyHD1KY00vh5gfpJYo11a18/OMN/KH+JJHXudcDausvtYxHu6cVyE/aHFa7Qhsdj9XizEaam5RI9WGALNLBlcACJsZU2UD46xyqnTIrx9N2keyUYGM2HQXo6fYSG8FdfPZE/kx9eV/6mk0SzuQUACV4x+lTx+BgmSkOTH/5iyumnRTfbmBgIOzedo93vcGvP30D+oEzwOkBOKMgyEU4p+4OOBz0M8AZh4OBURbuLjvwW5co973JkTz+yRsc//YrHv/kDf4y/2HXdjPPu5gbp13uSlQxHBzvmwxtJ9gb4YCeUzimO7PItgC0/g/zb52ClOxBQgvYnrgWbdUnxL72mcvzzgbEPnoUTnwJOL3zJO+6jlunALNDKqMt7wo8Y+zdPh1u35biTIKx5R1s22YAC3j6jzZ+8/lJWP4OtpXf4/ZtY2s6r9QupgPWw2ZsBJ4xFChRnZLdLa8fpHYrmFlRvtoVeaZc/SojrGuBhkYS7nfaCK3AQcPmoBMMhexxJxJLjBhBC3eejcqiK+DZ368m0uOhPVFnJ/FVE9XNsrhX8yDysmRKfmxk0U9edBm2L90YReoSp5AHcMM8uMwWScOmpcTmf4D8pXtjJ/yhFiLj1rqO2dU/ix0Pp5LzpybXMZUINTMXBCdohYsjpnjmfGimZr0JY2Uy8g/c05iUGOpUWbeED2HCqnDLg8mU6uu5uR/D7rV+rCF5I6UWgY14dq+qo7AyBvn7LW2jL4JgR01CdbseKsYZEFlrZs1qLbuz17Hixm2s+EUB2rg7FbcvB+qPVZFQ2Ygk0C2aB3fHxPOrh1N5ffFzbt9xTGsTi/Y2ouZ+NAIVf9mDsXKw4x51XTJLFnzNwYbNLJq3HIiipgdqTBuoL4ohwbRTVo5kfmyOhXYjcuHOc/qz1EGUTw2qzoJyvYU52QYq9hlc36HnN6U2EKxScGzP+veIOY3qrCq3KQKUGf02pJ4dE8+pwHKUUrznGDoolK7nqjaa9zVhzLIDGrpOQDFNEDd6wQ0b1jbxcnM6zHBefyowOzWZJQuiuG2riUUbFiK1NbuBD5P7iLpy8F3tA371bBspx0q9hL70G5P5sTmFcpORsvnpRE1LI3XeLFrPncXXQGr8bLdMhTU9sHvVBuqLNG6CdOo8SF2cRn62iUW/X0tsXiOpV0Rx3hXJQCuJs752xVkDKLxtIa++pGHFnw7B1YMCXeO7veTwHPrF7nW2mnvQRxS/eraNwr5Siv8wKIylzoNczTXsfiCVJ5e85TNu7UE72J6v4dGn09DffL/rPGQMbv/EG710ly3nNXMW+qxB0T11HkgdzWDukeu6gYx96yjcMzhYlzoPLrxiIfk/S2FRxjaiFq93PctgrtFzanrF3ckYf7ULeX3Q2gcla7ZRb+ojoajGVebYeckkrdLy5gsmFm24E4giCvj3399E1PzBdyzyumTuvtpGx7+VkiAT7tTWX8EwHu0eXwMf4bAr3Or6E8GXfzzTClDWTIzZt0e1v1AhQ8VX3KZigFo/AjzO+IwV5jTyTbEoCWZjhXAlp5Bi27UB2bMqebXwX7h+5YdMmhSWiVYA7LS38uvuNyAC528SMCkCJjk8/gUiImDSJBwR4MDBgGOAfkZPuJNEuLcS89w87I5/+xULW6q47MBv2XHNEtfyLE0su6zvs6fnP5geOej5Fraps6f6Kb/0DIV/fwmt7/8PiXHOZ2g5AXAS7d/7TiZiy7uCZX/8PrGv/Rnb37eijUvA9oQzoIqvrLLBoq36BFo/87uNXCB023fLXwHnFFzPjLMjjdx2t8q+MzWl8WcrB0Kt3R8MCUBxbQH52aXQkOisByXbuwdKMkC/Kvgpw4r97TiAs1OJg9AIlEL9qI1xJ1BmSFllu3vhYOsHzHlgDxULX8S4YTdExtAFNL68n5fygBnuDfziGyIp5yZsnS1or74fLaBd4t4xiATS42Pp3InX6Nk/3wyRcdlu26dcH8MTXAPffK1YZumFCBT7w1f8NHlMK31lC5mGPWSWlapO36wUrtxXenf5tlqg+P4s8rNNGNv3BFS0raZ4wOI1KuDruodSCYVCoJTYvghFzfd1fyWGFkI+NLbU2ZECYtf0QElDIxiaxkUWnvQZkL5nLTvezaO8/Cm2Zj9E2ZLN5Px6J1zgPoU+BUi4/V48M1AvzYjh7ofvoevDFvQy4e6GxSD3JgqE8Sd3Ie9kX3cBkJZCr2078DUQRcN7dnJoIuFnVW7liAT++bZ4WsuUOybyd1jJ+6QwDlItFjINm8k3JCp+e/6CbEveCkfMacyx5JFeZlQdh07qVAHkbu9g5VWGIcVrOtplD/idpBti6CoDp+SsoeRAGxUK06gk/Hnp+kuE4y+BjidLFdqd1AsgdoWRlvXbWbThGNL3lg5EXeM+Evx+H3SUNfIva65xE+3g7PtxNuNi8buNaDP8Twl+4e1uxfcMnIL34/cs5c3tRmLz3D3pPFk8L5Jyzb10HKgh9uy3YQN2173FS/kamObehqq5B+/3xdNR1kj1b5O9vNky5saQTxpPftIBccrCXVQUoNHTemAP+lu7YcrZZ37WqrABO159i+oldvRZvqd6hnqP0nPux/M9u21+JFuvzqPzPzaQsHi961kGc41SVtk+oOUjOyVvtfDCgnSe3VxA1FmPt4b3+kj5UykJWza5lVkPpC+Op+MBXO/Zomgg2n0Q49oLgIxEuj55jgScorfrmlXUX2qYKHbPSNoV4L8OG++djdH2qPbMMCt/Z2t6oIQ0Z+gGj5h8XT1QX9QBWVVg8p52q/RMFbPKBtEOjRW6zz6zGfofAoRVuHPiwBV4Tfq/17/O37XTotFGfZ+TjgG+OnkKJo+ux50SM8+7mLcS89hlbWVhi3e9mXP0Bbf/v5WYFxbxLmrKJFISp3BLxKVYWv+HRGzApTS02niYMxB3kd/9d/xIyzLglZo/c3ucjUBSVLAx7pS87QBeOQErH21my/QzdBl/wG+2/JmOW6eMqYQZci/gI+Y0tEEOZEkz2dSI6kpJcqT6qphSciw1zFnVTX6DSfXsOH/tSmEclBTVQJmR1CJc50yIhop1BeQndZBSt9avDRAokUUwePaL5PaHpE0cubnRb3kmkvd6KAwpqyxAzs3JLL7nfvJT8oi9xsTspTVO36cDNpYcAKr+QfE43ZbBaqX3DLz5/jE+/s9DtPxHJ7Yvj9H5bqfiy+q0F9yN9Usvdi6zWZ0xtjxdWYfixinFc5JSNktBHIc6ZUTJvV5pW+mjLM82+nR5VXLflVcwth57QONWqUIaDoM4mEwx/qZJlLeDfrvB50iC/DyeFeloTJWVpslWZABxd2EEUixVzFlVF/SIyFhm2TwNP5m3iWfefpCi1Sa+7lzEitpG5B3uRICZ3q76F0UBaLF/9hxyX1LNZerjpaUDzHA/tvOwF9L1PEhT+Bot3ZTNB6YpiCWTvRd5ep74e8clYS637i7mmBLB5DsZCbh/Z8XgnApLPFag5g4LuqQ8wBSwzjnYDsVFHZSUpXHtVZBZloZ1/mbKKVD8jj07Jkp1gFIsI3mnLWOuhnzSyKmronluFZRVYaxdja93eSSyyuqvSsNTAALQa7R0gttg0GyAGe7XZ3fFNFOeOqGPBojFdnxXwFHaZrud23y9Z0CiIYaP7YC9GzS+hbsEIPb+m3hzeymxec4sj28eB21DDam13iK4mntgJx7oJunhQ/Cwcj1v68I1DdqT1EhY8ds7yX+4lWeSUvnFPVmk37GUyLP3VvIejv1tMv7EplDuUToQeZm3NKQFuEzxFEc/AAAgAElEQVRL1yeQgB37l5qgr1GeVXbRPPjF0iwyy4yUFBh5cn8CRC2k68temgHdgoeAh5QvTPaedX4JBw8c4tixD/i4vYVOWy98dMhLCFBbf3ldAxPP7gl0XF/4sytqeqArKY9CS57Pc0r31XMq5ETobDS8Zx91j2pfSPWyEsZowFTlFoRdWu7pPRLMVFnX4FYYQ5+Em64vII3X0dxQxgA448yFiwicop3kcRfhFAYHIgZgUgQ3XBLDq8lL2dSxn81H3+bUQD/nTJnK3071MRDhOLvT2OGrM99yaqCf8yZPZUVMEitikvxuf9uR58KWsOLS70+l75ZLWTFJw9aGz7j9hA1b9KU0vm9jVQIoiWae7PiRFn6kzpPtV+DywmsB0pe30nHrSZfgtuyPNnhNObmEtD38FQDbyu9BXAIAP92mdU7Tfe0dt3OMNPKwUUfMac74mSrx7PsONdlfprnNlbzOhtMmGepUWTnphhgagYNlkGAazAJujIYG8wbWmBL9hp4I5KkeSsIrJa/43e1Ag4nuq/zLyvJEIQJvwhItMmUGkJFOx3smZi8dHD2uyI9HM/9BxX1mn31qjZ9B7k8fIoEXybj5TpbdOJuomFvYubAPNi4NuixyLzJPA02tEDXHhMu101q7GmtlASPllaZExVkPj5y6Kr8qta+KQBut8Rv3zZ+QFS6DONB+DUl5VB9OVz3V82iXnaMNYOw5BNFZNFq6ndl0iAn40Q/nVA5fSFmE5KKGPEYBqxIxVrbQ1aMBOkYluH+4iASKb9TAlp088WMjP3ljD1GL17vWnxto//PdO/DnKghp4eDc8wNvA4OjUfVFcHC+hZJsQ8D4jnKstavRHUhxZZmdY8lzG93ydNmXI+9YlLdzNqj1IFJH2gYc3V5Hxv3pUNZI4fxYjhruojw7kUJLSkgZFBst3W66guRtIe8cpUQDGek07zORb6kbE506f+/LpQAXDIpIgd7FscSym6+hZONCVry7n8h58bz6bjcrrn4L4rzbWFX34Gz865cevxOuzFbc9sKZF/ot06OLY1jRvJutdYd4vHoPj5cZefahZBLyB6efEzlMqeb9XGPUNJALl0O5xkgg46Z4Ssy4eefJZx94chHANKcAJ8Xvy4mD2bekccvdN9EXFcPdO24CwpN0YiLbPb4Ixa7oOgElNFHYHgtx8W7CjDzToBLjqbORW2enWu/u7Shl/V0p8+qQCOeU6qF2km1dHT4HG5TwFGtdCZZudrfBpBktngSKSedv5oc8Lp3a4/nC4VC2GTu67cQCjktnMKwzUyNg8bRZvB5/H4982MRv/vwmUVPPZcb5F3HxOc5pnqccZ+j82sb3I8/njEPyxBsbfPrtl/z1TOBkRXJOOfrDdv7JUyLg1OXEORzsjb+I1norXbcCJ3pJzP5e2M4D6gQ++TZPt8Nvtrzjtt4p1i3w2k+KuwdOgU+7vBVpmiwwYmLeUOoR+XRRuWAfKMadRCOD33BFBlgrW1CqO8KBVC+Ds+5INRvd7PqVWRoyTauxvdeINiu09jxcAzYlB9ooBhJMvsMaCAIzLGleIgGuPhfNmTZS5yWgNPIvsebVNgrPf9Et/gzAzp5un/uESqBYL76mjIw2xmhoKMoDvXMa3GiP8oWivvuj6wQ4DT71E00aLc4RC6KTsQF82O0WMLm8HVIPeE8V1JnbsM5vHtFAmlLFKnnbyUkAKg4XwPrRj7lS3g6FbA7bvUmJc06LP/lNp5u/ja8A0h8fBziEfmZCWM7vD+3kSI7uA2NfN0S6f0cn+8AZet9Zavlo1MF29WK2vMMsP4YVaDVZXPEuPA11yfOtlXifMTE8veN2t0MGJpjegtNsgI1ZGnZbzNCD19QhtQTKUCWf1kaDicLa1Yz2tO9uS6vXaF4f0PhBJ49eDUT5N1g10wBi6PzTIWLne6+XBEz9lbcELEuKRkPLAcj58gOY5l1ft1i6WXE1oAlcl2fMhKIld/H+gbVcNK+A5ueaKFvmnpRCQs09cL7dWvSRx9DPCxyY2RfaSHh0STK/WJLML583cd/aRRxJ3uaMe3v1uXS2NaG/bfB78iSUe9QCilPiPu4DGo5y6bprgCiiLgjPNXpy6QWRfAykRkfCTN/HbQV2P1ZLvSnKLRZeF8COkYnLOlHtnlDsiqNd9rNxgpxeJ/IBQXDaPqzPw1i5AXm9mFtnZyP+pyOFE/8DR6EP+sm9nz0HN6VQH5llUI+7beUrNrJ8ilg4QoK0treREKd8jBiADD3dltKgomfpgfyMWFeis4Pt8aRTinZu4ERYkh2qJBCEmpwi1Bh3ERHex7IBTa8fZi+w6j/eheuuV3XMoJgETlc++NZxGvupb/im/zRMiuBN+zHOe/khTp50/r/1RDeXT9KAYzL9k8eOx90Xp/4atGg3XERERLA583IOPmFjU0QbFdPPQFz4+nqe3nJyPKfKAnTcOoUHfpTCA9sWuMW5k8etg0GvO3+x8OSeeWMNpSmunqgJL6XmOOEk09zmql91ZsgsM2KdHzgRnieBREm5GKmEvB70N/U22IGJoQ7kjEfCEuyg4ROgoYbYufGAhlggNjuZnVXAZ75H4GyA7S82/iEGuGDwoXQBjXWHwlE0RXTmtiGnflabxjnY7Fq+qDbFox0jWVu6TkA6TYrJMUIhWINciuUliQrNPTiz6cwfzKZTkr0ZpwE72Dmy4TThy7NLcYbsHUTKMKczGGg1h2+6iw3IXFVHOqUY15lRqnyM0WCsrEIK7g9NIx5DRmduQ7/dgG16cHEpbEDjzregz1tob27vQ8t+LtS6T/1qBDrfcB9x6QNKXjjEMs0houJvCrL0wZMTP4utaOhq2OW2vBcoeeEtYPjqHzlHzGluadXTzS1Bb2MDSrbXYbzffYqqFig0ZSlm2AuEJIar8fxMjQMIPtvlcNHwnB1633Jb9upxoGobqbfHEyhe4g2RoM2/iS3bP4DP6tzW9QH/9+U2lmmavN7TFgB7l9uy2+bFsJuFtP6+6uzeg9R8BrbndiqWyfaZ56Qup+yVsziZ/RV23jxwiJw/VaFffJfXdqDuHtwQBSxJYfdzh+CbNqXDBEUUkLFwFjbS6P1vG7HAonvSeOZ56Gvf5XO/UO6RDXhz7y6cX+wgVa92k8B2YpOdhmE4rrEX2LH3LZZpgCuc9XJKfBTN3EnrK7u8yiznCztg70RzWQzyAczm48C+kR11nmh2T7B2hRTOQgoPINkZKTenARrX9GFfXmVrTE3QU6e4LtxYa1e7tQnyX6jiYW6dnS0GA9bDeq8Bz/J2XLFX080tZJZBzSoD/pKCyW2fwsNm5J3Ymh4oN+ThaYf5Q2duo2u70ec5tQBXxdD1IX7L5UlCNBypLKAkw4zOYKQk2+AUa6P9C/1KA8ZjjUM9QONeAOp3PAP8lytpRVg5q781f23h0rc3YLaczdAe4eBk/xmIcJ7z5Jkz/OmTz/n3tg/o+vwLxorH3Tf9p0a7CG7PJfVS2DQ9Clr/ym3Z3yMciRxc3m9V72DbloBt2wLXr3HbAuB7dNw6xW25bdsCr1h1W6aDbdsPXOu3PLEATx8gNduMNRot6p2FQqm/PMlvAJ0hMWBb6s9bXsqULQ2Y15vigdWKfVy1VGSA1dKC1WKh3mIBVrv1QYprLa5MvNIyitxtGasp3q1NqjhsAdK8+jLS74jFAhlmr+NaLRaMlRbGav06WgT9JXUBB9/tAE7S3Qtvtn5AY9UuiuedZPYd21zb/eZn15C5dzV3ZJtY9vNmos5OU2nu7uXChmZW7DKiJZ5F867h8QeBTevQzL+X7r5IXt26n/RZwzP6YQMq5scwJxu3zI/BMtRYL8ONXD13pnIOn+gXTo8/yViW1PxAgbRh0ONFEurkbrySsViRUUqCSXq2TiNOi7MjoKPGLa5cTQ+UZOdhrV1NzfQCMpPyOGLIC8vo+RxzGzSYqK5drWq6ztGu0L0wgp1eKzVUulVV1F/VREJlaK7cue/1Mvt3qaSnLSTxhpuwnTvLVS9U3HaSyHnugdnTgbvboig8nkPM4uX0EskTz38ADRvIM2d5BdofDpbNi2T3bRu49YE8Hju2FM38e7H3RfLMS63kXNVJ+RC8Fkaa3e1QgQniWpzedTL8ZbJSCr4tjW51oyG9oQvtOndvFc9s1i6PioxSSlhNbnYp1Yf1o5LdWOKL+cnkZppZuuYYRF3D/u4+tm7aRnHcIWJzAoslkcCz+clkHlqNTdZ+2fug5KVWNA2lPFq72u091U8HG2ns2LGL2Uti6evuZdGSZHJmajhoXk+myUjxh4tIWPIgRGqo+aiX3b/bRcX8TmJzB8skeY1s2WEn55rn6P56Fjlz+yDaeS7jjVH8XFOAtszMo/n4/FbU3IMooKIwjfzsLDrTjeT8cjWR2gT6gOaP7CR++Cbpv12Hr/axpgfeuNfEbfmzidQmOEXv5z9ghaaJqHm7AXgyJ4Zb3zOzINtEcVEHmhvuoo9I9v+nncKZR9HevJacmQR1j8CZ4OYZezKdq9KJvXstfUSx9Y1umqufor4oHq6+J+RrbDnWS9S7h1zJKXY3NXPuuy+SV3mnK/ts+jQwmgucZf5ksMz2Pnjj0DEeu74DbcYmYjXAjSk8svEhlk4uJVKbzP7uPvpe3QY3e0+xHS4mit0jEYpdIU2RTDE7hTqnd/Wg59UccxvFDSaMlho87111loZcWihPSqTQ4p4pHgaDow8l7iD49mwbCgdx1uEVGaUYLd7vhTxhkjarimoglxbyTYmuEB9K79IccxvpDSZFjzPJy63E4D8DuqsM2zugodRv/FSA4vnxbsmSpPcwkIe85DlectbbpEEWhsUX0oCx55TasYTplXbM6fuYYX4X46wXGXCkcseWj5k8OUxBIiJ8/SKcYp3bv8j+juC/PvuKpQtuCE85xgEDAwOuvx/Z+188dOJLNiV8n9b3/kpiEFO/5Sz7o42G1/5MA8Dyz7Btm4HTB2tsoTO3BZWILdy4RHg/idXkpAD5Remq6y8lhhrjTuq31hfh5l1XcbiArvUdQ5ppE07kYRTkuQ0k5FqF2n7yRCdo4W43sPuuda7/L7pSw0uP30Lqz0wwZfAFTLgA3nmugK07Z5O7owqO5zBbA6lzk8lZdgvS6HnFkhge/6qG/BfWQ8VSlt0Yw7NrCvjlX5Lh+eeGfIGeaAFjnAYOV5GflKcqa9lYw3P6hoQ8GKekXCOJMe3BH0+Jmh5oNK11GcTBxMDzjAEjdfrTKaX6sBndyzHMMRnBZHAdV8lIbXjPftbjL90r7oo/41qi3hRPpmE1enMiCSaLzIMw3RWzq9tiGvIYl+QurLZi9zel1h8N79lxeump93qq6QHKqmgErPfHQlxonQEtUP94Fq++CjV7Gyl/fh16YFFGPO9su5fZN9+J5xS5a4FHn1pKSeXX1BRsQGs/RsbiWRT/YT1RN9wTUjlCKfe/P51GyfU1PP6CGVvFUnLiYqheeScd1z0FZf5jWIwpuuw+vTmVMtiqiXG3pc5ORkYpRA9693lOPZNnnTRWtpCDhjmr9OQmmag+zKg1wMU3RtG8rIrVZU/R9fYGEmZC9T13kn7fm14Zjn2RcAEc/tcCyn8fy5oXtmH7yNl+5aUt5CfNO4mc4S6YGaPh6LNreWT9OrSvLqUsbxbg3KYiK4bUy/bzwlYzJfc+BXSTExfD6+vuJDarCvn3oQWeX5PFI48cpebeday4UgMLn3KtT40E7f23YNu4mRuKC/AVhkLtPTDOAM1eM1Xlidy9fhfYS0mYCYvnJpN69134MypnT4OGuSnc/S974Lhzv8Kb08jZ0AgXONt3PfD6U1mUX6+hpHYXXWVLma2B2xYmc+HNy13HCuYeAVwIPFu0iJJDeTzx8FNw/C1y4mLYuO1eZt+83O2+BHuNueZDYD7kKv+yJfEse7yKqCvdO+gVWTEkaveys9pMyb3rATspcTH85KZktPPude1f//Sd/Po3vdxt2oWezRTevZCUbWvZ8fAxIPw2jhLj2e4Jl11xsB2gFK1+tcuLWQrHkVtnJ73M6OU5JmdjloY5+8yKyaYaLd1uU3DHApJQWdIA1logzr0tkHeoPIVPSajMNyXSZXCfFibt50u0A6eXm7WyAJ05BV22MeA07caGJkU7ao6pyRWXsb4IUk0WMllNYXsznJ1SG2iQWSlTvM7chi7JiBSbTunckh2qZkrtaLD5SAQ8/WOy/vBLHGh47+NVzDXNoHfnv7L8vvuG9+Q+BT2YGTWNpbP/kXuv+kdmRl0yvOUIAxltO7yW/dPfzeYX+tSwnkcS7pY32mlq/IjqvO/zQHwC0ds/5Y/b3uGGvBtVH0ue6XXHth8QDo+94UISzdR4uaol3RBDQ1lg8V1CEuH1RaBmQEsbDVZTFjpiqNluxFjp31YKN61AftJmV/IoOcZooNJ3XSrvP48EKYDVsoHy9ioysw2KWemD0REEQQp3gTKPeDI7CspMaZSZfI9IRQFlefGU5bmPqFdfh1uMDX9zy0MZhVTaZzD4eniQRn2VjM1GlIPWeufJc0cSXOQVjFTpqBlVBvfU2OD8aIyHvTv+ngaxtJ88IP6cVXWu63C6wfo/v6cHkHwE32rC9X7l1tnRJSWilE1THt8u09xGOqUk3GGmFUgva/Yyrj0N/gSguLYADnQAdvTTNZSQBie6aIYhj6J6eTsqdJB8eUIVA8ZK36KjryDQ8lEXNUjZhqr1zjiFfj2zyvBb2SZEZ5GQl8WTeeorXf0UqDAtpMLk27vOX2wGpXX+goMr1V1RwJNL43ly6U635R1SeI4pyqKIr283FOQdDwnPOiDQNoVZGsIZRF6qtzaenSImIQWWJTrGqy6AwTpaZ45Bl2TEWtvl9U76i83k6z0DvLJv+uNcIOe6KHJ2rQfW+9wuUJIa/QVQlrcQ8tR5gD66OIZHF+9UXJdzXRQ5lWuBtQGPs2gGLNrlf9sVV0PkPN8x9tTeA4BUDaRuuAc2BCeax0ZC9YY7gTv9bqedAk8uTebJpf6N8mDuEUDUZHhyyTU8uUT5nstRc42h2BHL5mlYNs//PU6YBvVP3Q9P3e+23Fp5DfLvNtj6KxTGk90jJxx2hTy+nTyZlA0NjfvqnG25rGPhOfNAC1Ssy4L1jV73gw+7SVVI6jDc+OuQbqmz+4w9J9Xv/uKtSeJdDmtd6+UimJp20lq7mpo7LMxJyqPe4h2TOP/lNqCJI+Y0bHEFbjGYfHqsFKXQesBIQlyB30Fp6Rpdg9yyZyv/3srbQZdtQHq3ioFUSw2Npman3RVCZ1P65pRCooSanEIe27AV2HTb76h7ACLifo5jYAAN8Gl5JsfDmVUWBmPcuf0b4fKym/m9S1iqT4R+B49dP3a9E31RflXmiJynv7+fFU3/xd6GjziSOZWIs7HgTiy/gmfar+BHee/QEA83rLgxYHKJ26fD7du8Bwn8xbcD5Rh34B6bbuUJWLn8z4Byxlm120h4ejqHA2kQJRg7PZSkCUoJaxot3QHbs2CQ290SUpZa56wy/3j298EZfmekRDJtNIDGLdauZ5kagZr1JoyVyYhpsYEZ25POQ0T+Uji9l3xnbvN8gYoBbVbosWeUgjIqufcrKcye00t8iSkVGbh9sMF2OILJqiq/nmKgWmbEycXU8naYk20Ak8HLIPa8J04xy//55WXUmdvAYMBau5rWuAJnfLsiaEVD+oeH2Hi2EkoAqs+KOZ6BNj2fQWEcLi8zYzR01Va5jLP6ItCGmHVWOm9xg8lvcFIlTyg1hHOqTHWWxnX+UMszHjn4QS+xNKG9TFlACCU5hS88xXalKWZqtgkna+rsFDeY0FbWeF1DYe1qcuti/E77spriKZ9vQZdt8PKkCGVagTyr10TnYB90bN9L9UPKSSkEE5eJZveE066wxRW4xEYbMWDpdg2GDdo53ufdaE5D3sYreTu4YvDeP/xxQJU6ab46pEp2oNxbzlPMUsJpQwxeb6BEKEoYcdpfB7MNJJjakN/Pijvi0TPY/gUKDC/tsyUpjY131MGH7gmW5AN+1aDKDla6pvJ2KMaouqOvFPjd1zcaanIKufhe9dp/8bv0MuIL/h8OhzPhQUREBA6HA31/+DKhOjk7/RWYee7F3Bh1OTMjL2bBRZdx4yXDmzl0JJh1/t+NzHn+7yf0tXxOe+Y5aDPcRbcH4iN4oGoBT7dDxnJvYU1OBrDjiWkw3Vs+SgRs24Y2VXbLdLj9iUEvPsm7L9htJDxDEoQDNUkk/OHZBvmboq/UXuV4tAvBoFSHex7PV4ZrJYLp7w8nnu21vF+TW2cn35TomjGo1glpohLhGJZIpYLvMnKvrmCNCLXClWBiMtIZl4Kl9RvI/OlmHqWUFbWNfNfEETUZn/1NlZXWWe/39pYb64zV7JjhpGhfLyy/lrL2Kpjm7b0wEe6Bv2yNAsFYo7wdyDaM2TZvPCINOE3EKVhSl87hcHj9BgYGGBgYYOrUqUydOnXI59r5ZSvLPn2ZmVMuZuklCTwWs3jIxwyWnp4eoqODD+Z1/NuvuOzAb4d8/h2xd7BUN7SB1P89fZrK16wUzrAyKS7BJbTKfxIR4faYHGVy6+xk7PMdK1MwMki2fwUmVc/Cc/aXfFBeScxUK8ZJx02nacLV3WoRwp1AIBgxxopw1wHsvm87ifO/RnNlAhDJ/u5etlbUsOibJqqfW0/k1SMTb08QHsaraNUBfLGziebzI9m6aRuH10Shv035+sbrPZAjhDuBQCBQRi7cgTN2mly4k5afd955Qz7Xzi9befzzN/jLtcVDPlaohCrcgVO8O/7tVyGfe+Z5FzPzvItD3l/i22+/BWDSpEkuoU76G/D6VyAQTFzG5VRZgUAg8IcWYO41PNO0i87H9gB2Uq7UUHH7TRhzakAjPCMEY4e7f9fJbEp5/edZ6G97KvAOAoFAIJiwSFNjlby1BgYGOHPmDFOmDK0LOPOci0dVtBsq4RLehsKZM2dwOBxMmjQJwMvDTiAQCOQIjzuBQCAQCAQCgUAg+A4j79L5mi4r/X3++eePYknDw1A87sYCf/vb37y87CbKNFmBQBA8k0a7AAKBQCAQCAQCgUAgCB1PcUdJCJK26evrG40iCs4i3X9/z0hCiHYCgQCEcCcQCAQCgUAgEAgE4wYlsUcuDPX393P69OlRKJng9OnT9Pf3+xTqQIh1AoHAGxHjTiAQCAQCgUAgEAi+40jx7eT/V9oGcAl34cgyK1DH6dOnOX36tE9PO+FtJxAIfCGEO4FAIBAIBAKBQCAYRyglqQBnBtOBgQFAiHcjiadopxTXDoRYJxAIlBFTZQUCgUAgEAgEAoFgHOArqYFcIJKLRqdPnxYx74aZvr4+n552ckRCCoFA4AuRVVYgEAgEAoFAIBAIxhFSF0/+r+ff8kyzAOeccw5TpogJWeHizJkznDp1CkBRNJUvl/6W/ysQCAQSQrgTCAQCgUAgEAgEgnGEvIvnT7zz/EVERDBlyhQxfXYInD59mjNnzrjupy9PO19TZIVwJxAIPBHCnUAgEAgEAoFAIBCMM4IV7zyXTZ48mcmTJzNp0iSXp5jAHclzcWBggP7+fsWMsUK0EwgEQ0UIdwKBQCAQCAQCgUAwDvEl3kn/Kgl2vrb1ddyJhq/YdEr/BjMtVoh2AoHAF0K4EwgEAoFAIBAIBIJxipJ4J/0dSMxT2s/fsvGOkrimlAREvlxJuFPaTyAQCHwRVFZZnbkN2jer2q5mlQGwh1quIaEzt5FrMEBPXUjrv8uM9rWXt4POYFD1nggEAoFAIBAIBILhxZ+wpPSTpsXKp8hKf8uTK8iXTZSf0nV73it/P89n4Pl8BAKBQAnVaYNaAcqa0ZWVcsTcgTaritw6O42mRMXt84F8g/e6YiDVUkOmoRko9VpfXwRbDC0+j+t5rEJLDRDvWlbeDpQZqa5dDdFZPq9jozlNcf13mXBde3k7lGQbAp7viDkNbVaVqrLZgDmr6qDBpGp7T5SetUAgEAgEAoFAIAhMRESEm4ec9H9fopF8e2kbz/8LfE+blf/tT6QT91IgEKhBtXCXAFgtBeTW3cUcUyJHyKM6qwqyLF7b6sxtVHxoxFjZAmgUj2e1xAMF5NbZudaU6C7K1NndhJpWINOw2SUYAuTW2UEm7nmKTbrsUiRhUH6sg+0ApcwxASZvcUoSo5SEJi2waN4sigvvQjvvfhV3bWQI97UXxkGhxfu5SkjPAzqCLmt9ESSY3I8t3ev6q0xe68D7WQsEAoFAIBAIBILgUBLvAJ8Cnq/tJcRUWd/r1Ah0QrQTCARqUS3cSVRnacilhW7LWsDOnFWHFL2ofHncWWtXQ1xBKGUNSDpQfdjs5k0mF31sQMn2OsUySOKXVh/rtrxwPqTkV9FHFC0f2al5q4Uf3rWB1yuPos0wD8t1hMJwXLtAIBAIBAKBQCAYP3h6z3kuC0ZMEsKTO2rFOXHfBAJBsAQt3IFTvAOn55u1Mgtwn3apxuNuNFhTZ6cCE8S1qN7nH6IgdV4CoGHRPMhZmkXSqkRe/Z2JFRl5wDXDVt5wEsq1CwQCgUAgEAgEgvGHPwFPvlyITMGh1iNPIBAIgkG1cKczt3HEUOWaqjo4XdI7Th349rgDdV53JUCJwei2zHOK57Uqyw7O8jaa9jjjuw1BTNQDXBVDXwNAX8jHGUlCufaaHshPygOa/GyVFobSCQQCgUAgEAgEgtFAScCTL1diIk6R9UR4JgoEgpFElXAnJTWYQxMV+wwYK1tIQIPVUgAMz7TXYGPcBeJgOxRTym59DTl1eaqTKnjSC9BtI/ZugFlu6zq/ga3PNrH7lSo43kZOXAwrVt7J7JuXA5GD2/XC1p1NvPnHXdg+OkTCTPj1T+4kIW8tEAXgds0fJ1dRsmk7rS/tYramm+LbFpL+0HqYEjNs197wnh1oUhRZhxLjLrMMKFNOfJHZ4HtdMCKtQCAQCA3aA2cAAAkYSURBVAQCgUAgUI+St52abQXKiHskEAjCySQ1G0mJKdLNLeQ3QK4hEXrqQj6pDdCtqkNnMNBoSqQE0BmM6AwGbHV5IR/XH1LChZIDsMbUFFL5bX3wq51tGN9ay6IVZiSRDaD1G1jw082wP4+X1hh5ac9uvr5lLQuWv0hH9V2DxwAWPFwHh9byu6JbeGnPbi5aUkXmxv10VNyLpxff7mOw86cmihfDS3s2oV9WRW5VBwf/xei1bTivvdHSTTFAXIrXOul9CEX8rC8Cq8Xi9jtisUCGWXGd1WIh3Sym9woEAoFAIBAIBCNBRESE10/gG3G/BALBcBNUjLvqLA3legupBwyuJAg6cxuUGQPs6aQiA4yVLWjRuGLj+coqO1wcMcUz50MzNetNGCuTkU8dTQeYrnfbPr/Bfcrvsnnw6HNmmDEY168P+NWzbRT2lVL8hxq4wHkdqfMgV3MNux9I5cklb0HUQgBeujGK1CX7kYS/G+bBZbZIGjYtJTb/A1z3Afh4dxPVtYPnu2Ee/OPXUeytyCF1xSHXMcN57ZKHpT4DQJ1Xn0AgEAgEAoFAIBifCDFKIBAIRo+gk1MUxgFxFrdlkiDnL36aztwGH6oT+CC0GHeNgC7JBLhnuZVvpwWK788iP9uEsX1PwFh7UlZZiKLT1sf+91v5x1ue4nemPaQWOZe/3wcdZY1U/zbZJdpJZMyNIZ80nvykA+IWogW0S9zFtkggPT6Wzp1ATzdEDx7jn3NwEwkjgYy5sXxRBfT2upz+wnntXT0AHV6ipSf1RZBgsvhcLxAIBAKBQCAQCAQCgUAgCJ2QssqOBKHEuEsHqg+bXd6AvrYrjIOSohrKs40UWlKQe7h5Is8qmwosy1pISVYBP/+xkX9PeIqoG9dj/xKgm6SHD8HDyjHabF2gjXP+3XsG3nz/GB//5yFa/qMT25fH6Hy30+n15kHMLO8EENpLotgBYO+CGeG/dmM0GC2+p8EGSkyiRDdAQxcxN4uEFgKBQCD4/+3dX2iV9x3H8Y9i51jBXhmasCS9mNtgo7TGFqsWHCuYJgzNRe1kVFuQBSZGqG6FQi/EUuYwF8lIN0cGbQdru4vGIMnSi41BF1vK/MN6062Dkji0JBeDwi5cxexCYjzx5OScEzVPw+t1d06ex/P8wiHgm9/zfAEAgGrUHO72D0+n891NJTvsFtuZdUNndZ8xuHN9srPyTq5qjqlk4KmNOdDbnj3DJ2t+VtsTj6xNX57MJ38/kbbtx268/4ejTyff2lX2nPseuC9JMvrvZP+Pfpa2vJ3OHU/nue0bsq75ybz2vSvJK8/WvZ5aLGXtydyOvObW2iPcQz1jJbsmb2Y4BQAAAMCcmsLdVJLRd8/c0t9u562ylXZzzb9VNkku9LfXFZ+6GpORw91Jy3iS5KPJ6etxqLH2Z7qtuzdJGtKy9l9peWxLxWNffOdcDn3t7ZJn4SXJa5cv1vy59bqda6/WbOwrN6V2KslDPxnO6W/3lL31ttYJwgAAAAArQVVTZWeNX04yMpqtO9pTKdLV42ySptZfJv2tuTRxsGSq6OmJiSRHcqG//ZaJo/VEu1mDPRvTsMgz7soZ+cvnacjr2fDg3iTJI+uS7N6aN984k/z33ILnTSWZ+nQq32xOcu/c728yyejwmZqvYynqXXuSTH6WJGNpaPluTed0ZOyW4R/16jufNLW2pqm1NWf7y+/SAwAAAPgyq2nH3ciH0+nIWBoe7S95v95bZfcPT2e0Z1NGk6S1K5cmhpLUF5PulH9+nvz1/bOZHU4x+v7ZjL/5VgZ3fzXrtv84yfX5EAOH2nNg18580tGVPc8fydqGtlxJMv6P6Wz6+E/p+PlLacj6fP+x7+ToT5P84qWsf3xfLl5Zm3d+/ed0fOPKMq6yNh9NTpedwFvJ8ffO5YXktuzqG7qcHN/VnUunjmTo/oP5webuXGjtXlLEBQAAACiaqsPd7G2yA51JGktvB631Vtmhy8mBzd0Z6BzL4ETl8+6W0YmL6exMktKw1Pde0vde943Xex5uziu/2ZcNO/blxkjXJF1fT9b/sT8n+zblmWOvJ9Mn0vZA8sSjW7LtmR9mdo0Du5tz9D9DOfD7Y8nAs3lue3N+++LBPP/pluR3b9z5hZax0NrLOZtktOetst+DSuekdzzbDieVBoFUa273Xke2Nibp7MjFiZ40LPlfBgAAACiOqsPd7G2yLYeTWkPbVJJ8PPcMt4Wmli42rbTcM+6SXH9uWg5mNEnT5p4kPSU/X2ywwdDlJL0nS9bWkOTSqzuT7Fz4xHm2rU+2vbw3eXnvgsesS9LbvTG93UMl7w8+mJJhG21JLk2U33146OHk0ETps+Bu59pn9Z1Pju+69ff9QpKuV4duOX4hvxqeTkdOpO2p/sUPLmN+WGy5Pzme9uSzyYwnycioabUAAADAilN1uBv5cDrJWNoeP1LV8U3955Le0mEUXaeOpFLsmYtVddwuez7pSDL4QX/SOBfb5g82WCgODnQmbT1/q/1zC+JOrL1cIKzV7E7NC/3tJddWSblgePN3p6sxmTx1Mk27WpOcyOnDScMSJgwDAAAAFNGqmZmZmeW+CAAAAACgVE1TZQEAAACAu0O4AwAAAIACEu4AAAAAoICEOwAAAAAoIOEOAAAAAApIuAMAAACAAhLuAAAAAKCAhDsAAAAAKCDhDgAAAAAKSLgDAAAAgAIS7gAAAACggIQ7AAAAACgg4Q4AAAAACki4AwAAAIACEu4AAAAAoICEOwAAAAAoIOEOAAAAAApIuAMAAACAAhLuAAAAAKCAhDsAAAAAKCDhDgAAAAAKSLgDAAAAgAIS7gAAAACggIQ7AAAAACigNct9AQAAAKwsMzMzy30JrECrVq1a7kuAu064AwAAoG71RDphj3IWC3PlvjdiHiudcAcAAEDNFopv1UQ54Y56zQ91s98lAY+VatWMv5gAAABUqdx/Iee/t5SoBwtFuPnvlztOwGOlEe4AAACoymKBbvZ1tSEPKlko1C0W8MQ7VhK3ygIAcNf974svcvXq1Vy7dm25LyWrV6/OmjVr8pV77lnuS4FCqxTj5gc7AY+lmA1vi90Ge/NxNx8z/zV8mf0fGPBCk63EpXEAAAAASUVORK5CYII=;" vertex="1" parent="1">
          <mxGeometry x="70" y="1920" width="766.96" height="110" as="geometry" />
        </mxCell>
        <mxCell id="BVHzjgU8pjvCvItrUbvP-37" value="" style="edgeStyle=orthogonalEdgeStyle;rounded=0;sketch=1;hachureGap=4;jiggle=2;curveFitting=1;orthogonalLoop=1;jettySize=auto;html=1;fontFamily=Architects Daughter;fontSource=https%3A%2F%2Ffonts.googleapis.com%2Fcss%3Ffamily%3DArchitects%2BDaughter;fontSize=16;" edge="1" parent="1" source="BVHzjgU8pjvCvItrUbvP-35" target="BVHzjgU8pjvCvItrUbvP-36">
          <mxGeometry relative="1" as="geometry" />
        </mxCell>
        <mxCell id="BVHzjgU8pjvCvItrUbvP-35" value="" style="shape=image;verticalLabelPosition=bottom;labelBackgroundColor=default;verticalAlign=top;aspect=fixed;imageAspect=0;image=data:image/png,iVBORw0KGgoAAAANSUhEUgAABPIAAACKCAYAAAAgwGSKAAAgAElEQVR4nOy9fVBc15Xo+5uME819fqXUvU9NBJG6M3VjJtWSRo1QHCSwHEtcwPTjQXtsYjQ3/kSRMKIJgwgZW0oqtuMbAlzCQRgp1sSKM0/IONfAo5qACskeS8iKI6AVS10e5MxNg4IUWi+vrNh3rFiVfn+0dnPO6dNf0M2HtH9VlK3u3Xvvs/c6+2Pttdb+C7/f70cikUgkEolEIpFIJBKJRCKRLGo+tdAVkEgkEolEIpFIJBKJRCKRSCTRkYo8iUQikUgkEolEIpFIJBKJZAkgFXkSiUQikUgkEolEIpFIJBLJEkAq8iQSiUQikUgkEolEIpFIJJIlgFTkSSQSiUQikUgkEolEIpFIJEsAqciTSCQSiUQikUgkEolEIpFIlgBSkSeRSCQSiUQikUgkEolEIpEsAaQiTyKRSCQSiUQikUgkEolEIlkCSEWeRCKRSCQSiUQikUgkEolEsgSQijyJRCKRSCQSiUQikUgkEolkCSAVeRKJRCKRSCQSiUQikUgkEskSQCryJBKJRCKRSCQSiUQikUgkkiWAVORJJBKJRCKRSCQSiUQikUgkSwCpyJNIJBKJRCKRSCQSiUQikUiWAFKRJ5FIJBKJRCKRSCQSiUQikSwBpCJPIpFIJBKJRCKRSCQSiUQiWQLckegM//TJJ9y4cYM///nPic76luRTn/oUd9xxB5/59KeTWo7sl/iQ/SKZC/MlP/EgZW3hWYxyIZFIJLcCco6T3K7ItYVEcnvyF36/35+ozK5fv84nN24kKrvbik/fcQfLli1LSt6yX2aP7BfJXEim/MSDlLXFxWKRC4lEIrkVkHOcRCLXFhLJ7UbCXGv/9MknchKdA5/cuMGfPvkk4fnKfpkbsl8kcyFZ8hMPUtYWH4tBLm41RoA0SxsjimWhqyK5xSnv9VFuscDl3oWuigQ5x0kkArm2kEhuLxKmyLshJ9E5k4w2lP0yd2S/SOZCPH1d3usjzWIhzWKh1WIBRue1fMn8IfslsZwaA2gi8549CcmvdQzSLBYYa5t1HtNA2lO9dD9lAXzAjMJxundnQuopSRxpymiwr9T/r6ffO4ndDqRuTljZQt7CyUW0729n5Fgqkcwwl/ehvNcXdtxbysjDF8mtSsJi5MmYFHMnGW0o+2XuyH6RzIVwfT0CFFnagCbN5321kOn0Jr18ycJyu/VLmjIKzY64f9duB8eLZwFTxHQNJ0epB8jInlX91EwDDS/10m4HMh6edT6TAK4JspUCRP07en1AEynm+BWOrWPwbomFQ2cUSC0OqbPtqV76vuSMOn60jkFDyewtF91KASnFB2f9+7kgxk23cj4pdZhwAUzidm7A9pRCdu9eTTkjAM3DmGshnEyW9/rod24MW4ZepkeAhpI2+moJ+0wNJ0dpt0NK8fOzeKrk8syb1xjfU8g//+RRlv3tjnkv/3YbSyWSSMz2fZgG8E5S6YIJy0aqvd3AhrDpI41z7UoBlc616Ne3euohajmxIuY1ozV0v3cysD5IXT3nciSSxUTCL7uQSCQSSXQygSlvFVAFBBQd7e85yHSe1aSLtiksBMONvUSy2IhVKSdIU0bhvRnlXzjlt6ABaLDEpixst0P2i2exPXUaXE7DNJVApSX8u6fGaEPS0eujkCZS7laC9e93Hp21glAocxJhCRZu3IikLJxp//MA5B26wGefK+S1f/khfOFrIWU8M3SNl59cx3v/9AjLc58L+b7S5ePiUxs59ou9YE2eAijaGKpGL0M2F+C0MNWzBzKqgpafRc1Ac6gydKpnD/Bw2A2qWqb18qzPU5QplIfh5FH/Xl28Boc7Bzj+i24mxgaC6X5WtpptP+gm1vcvVj6+fj2h+UkkkuQQ64FapLlUzB2Hiouh2Gt4iDQC4GyLeOhT3uuDGMflaAglnhgz1UwDvDeJ2Q4QqsiLdrC1kAdXEkk0pCJPsujxAdk1LhisY7gxF5NdWegq3ZL0XYHarU5gCIA8YP+JRlhpD/ub3a6rHKvbQnM+FLW8BayYl7rGgxsotR4AFMY7nbB+10JXKW7CbQoTuRCaK7tdV6FuS1SZWUjEWNJM3aKVV0l49MpvmLFEq3c5Z3WyP/ViMTCjsBLKlb7apjlZxk4D/YOn6aslqBAT1niVrugKQr1ypvsy0HwQlALSLEcJp8wscmGoYEqk5YPAnrmGBkxMnztBik6Rdx14+Z2Awu/X77xCTu5eYJnm++5zF6k3AdbMhNUpHLE8f3mvj3XO8JYoaktNx4tnKe/FOP1EfG5p+o1i92WozJpxoe3o9RnKo5BV85eaCMrJJagscbLtzl52/l+PcNc3Fc5PL2NycpLrvuG46hUrzfkmyD+VlLyXKup1hyDa+qPjHLSUWakBKjxHAFuyqxk3cj2+9In3QE2NOOiJl3gsxuNFbdGsV+KBsWW8HqODLf3BlUSyGElYjDxJKB3nIN1qhXMHFroqEklUilbCuEdh3OMhr/Gtha5OROS7JVlsSJlcGJ7u9YHLSZlSQCKUVELZpo+1F+9lGsOXodDVT+ZDgY1u92Xod+7FrRQw5fWG/evzeoE9mL8E6k1H5Wuj1DOAo3gnU96qkN+5vV6wK/TVYphvtdebkPZRk5MBmB7l3V8NANc0350HeH2E7Hs2c/4kwPuG32c+ALAmofWaLevMJt4FuDwJBDat6nhRnWOAy4ljxx4SbdUWju7LgHNvUI4icQ2oPPAG9at6+Vl/N4/XPkfOV4vZVVrA92t3UPiDw8xXvRcTbiDdeoB0qxV3h3VeyrQB455djHs81HR65qXM2SLaZ77aZrb4gPQaF+lWa/Cvr8YKXE162Qs5vyer7BGg3NJmGDcuTRlNWJzmZCMs39VjpIhPm2axUGSxAE3YnAPBGNRpFsstGQtQcvshLfIkix4TMN5iBxanlc/tzH77CrAv7kWqWFDD4rLEMzLn17tO9dUCFq2rrUQiCSCUY/VASvHcLwGYq+urGqF4I3Un00Dlc7202wdIKZ55n40swIqU0ZBNibDGS5SyMlGsBXggk+GDsG3feVg24/L7Kw9k+37Bul0Ojj93ml2/PQ9fWKP5Ht8v+Nu7H0FtqZdMIrlQtdvBvO8sDRTAlQlIvRl38WbMPDAlNA5jrFS+Nkq7fQBSo8fGuwjws/Pk1AJ3Lh45WWjePgc1KFxobOTtujpsFW4Wo7VbxXqo8Czu9dRCrceFx0hz/hBFnhlr+o5z4HM5pWVgjEw5NwABi7hMYF1PFWlZFtxKf0zuo9UZgDexFnVzQczZast3gBRmrO2N5ll92A6JZKkiLfIkEolkAajOIMQKp90OU96zwc8T7YIgWRpcB1oH3+feh79FmmUjWRYLB+occE17On7xGtQqA9jyykizWLh3o4X+vY9x05kEgFM+KN/7Cmn3OgKn0/daeHnvTviDNi/1baojf4Cv732FtI3byLJYaK1zcP03A+i5BjxzeBRb3mOkWSx8PW8jI4f3obfOSgZCOQYDNABpFofmtD3cX6RbP4U13lwtroJusDcZvgz1rn4cL0aOTyZioVXoNiWVr40CM+3ffRnSLDs1z2WzWMDlpKiZkGc2sjzoB9KynCFpG0osYb8Tlg2CZcDjd6/ldQDPiCb/109fYJv1AtmlmxnmEabPndB8f/zcJIVcYPmamYOLix8F5FnIam1JDhcH2wi8EQbtFaOcApjtUJ2xOqwlpONFL+ZUE7CW6YnztI4BzQ6qe/YgNn9Tzg1JsWwMR/BijR176H7qKNGsR0wAX01hfATUY0C4vON531vHoNxi4dqlXioPjpK2cVtQrsR3asue8l4frRYL1xjl2d73g2NEbUkO1379Skh9pm/AM4dPB9NV5m1k4s02ynsn53zbZMtpN5uqYM0qOy0A587MOi/J/OMGarceCCjxdCExKtYjlXhzoDoD+rxebM61IfNEuJhyi4lTY4QcfKkRIS7UzxKMmaezepdIliJJVeQJM2h3h1Vj2h7OHFqfJpwpsZF5dbrVSofVejOX8KbifVcg3erEpwtuHWvZEIgFFc60W51PS1mg7PQyRZNeX/ZCIcy1jdpPTaLaJt484ynX6Hl2W61wxaVJk97hpq/GipurmrwXk0uBkNFIMrPbdZUOqxUfbs27oG9v0YY+lzOkfeZipp/e4dbkFa39Yklv1N/qdPG+W/p2NJIHNXrZ1b8PyWpLIBhAfT4Q7RKuzkbfx/suqvs73Bgwl/En3BhqNDfEMt6K+urrEC2/ZI33Dx66wKlntvGdB5bTdVRh5487uTi9Fj6a2Zx3X4J7tzr54H/spLlyM11HO/lmUycTH2QiFGmtY9cpvb+Mz76v0PW0g66jneT+w2GeOQmVeQ64FLo5Hr4GP3iqjbIvnqer7Tl2/riThot38Q9f26lJPwFsqellYr+D5sq1dB3t5K7yRor2v8/xvVtJtjLPpoyCy0khMHVGieiuqlaWh0Nzsm8QZydW1ApGgSMVqr0HiaYAEjEA1Qp8oVAyYqpnT1TXWmq7DX8brt3qe7xhvzNqw+wNy5nma5wf+UXwswng/Jvn+fL9JtYtXwP2jRr322vA8IX32XYPkBpok5GP4N6/b4MTO4Oy+sH9e7n3G69y/lCodWSscgqBGwtB625lpODNBKjN5unBARpKds5ZFuaKkIdTVFHpamK6d2/E9Gag/psl1L65gYaHHVz7rbFSU0087QjwDwfO8t2/OcHU2eM4XvQSaSM8DTypDHPXr/ex/3uP0vzTTjq5j8qiffDbV4PpJoC8ul7G95fxwvYUuo52srFWofTAJBMvz2297AZoO4Nts5NN6wGcuE9rN/3qOU+9DpivNWSs62Z9faOtbfTrLv38Jr4vtVoBhdI2wtZjIdfjb58DUCh6zEkscW1jKTuWNfRs5vdY2km0u/63ot4dVitu3ElZWwjSlNGg4i4TcHurqESJOsaoaR3D8BBpror3eGg4Oco6CHsb7fBlwNVPdv5MfDwRM2+1pWBe6iiRJBV/gvjjhx+G/P3bhx/6U3e86k81m/2pZrP/j8NN/j9++KH/yPsf+lPNT/hPNpqDaY0+++Hwh/5Us9n/b68+Efzs5Icf+lPNTf4jO8z+P3742+DnqY2n/D80m/1//PCUJp06P3U56jxjLVuU86jZ7P/j+69q0urTqfMQzx3LX6IJV86jr/42pG5H3v/Qf7JR+xzJaBujPP/tww/9P9zxarD/4m1Lo7JTG0+F/EZ8ZiSPRn043/1y5P0P/Ud2PKGRbdFX6vqJz9SfG70b4rNUs1nzfhj1v14+9O1p9BfuPdN/ry5b5K8u++SHH/p/aG7SpBF9bpR3vO9WpOcR45S6juIz9W8itWW0topGauuIP9Vs9v+owux/skLx+6d6gt892TPt/5HZ7Pf7R0J+92TPtP9Js1mTPpqsRZN3fdvGOgaIdkjd8UREmYxn/DEqJ5xciHqGlNV4Ktg3ol/VacSYoG8Po7obtcVsZTKcXLzr9/tTMxX/2SZz2D591+/3pxb/2P+jYrPf/2GoXPj9fv/Zj/3+1ALF//o3M/1+/4T2uw/9/tRixe/aY/b7/R8EPvP7/almJSBPk1p5Ovmh35+a+Zx/6JmZ9EHZ06X9wTsf+/+L+X6//8KPNZ+nto74X68w+/3+6bDPpSfcb8T7kmo2R5X/4DPffL7f93wjbFmpZrPfP6pE/P3Z1vD94vf7/T8a9ft/ZDb7n+zpCXlv9Xmo322j+onPXu/5hua716f8/lTzNzR1/b3f70+t6Ampn1Eb/mjUH7bdIn1nVEdRrroMUb+P33rO7/f7/Q8emfB/z2z2+z8e9vv9fv/Jj/3+VPNz/ndfut/v9/v9H/v9/v/SOuL/QUGoPD/5Pyb8T5vNfv8HJzR1iCin38n0CzlVt4tRG+mf6Uej/sBYfLNfxG9+3/MN/5M900G5C/f3eoXZ/2TPSNgxW90f4WTSqH+Nxvpwv//JuQ/8qVu+4V9vNvs7dm/1f/A/T4TUI973XbTLuwfuD8nLSGZEW51tLfEHejjAkf/p96eaHw32vUj7f5rN/o91754Yp+Kd4/Tjsnp+Tm08FTJHiHE91WwOmRvCrSujzZGzmRuM5iejtYzRvujIjia/fk+kX2MZrcViWcfF+zyJXo8b5RfuL9ayI62hZzu/x7tfUucXqX8SvZf8vd/v909Nq95Rc8j3+jE9Wn7RxlWjNJHWtrEQSz2Nxib9Z+HmvGhrBolkMTAvrrV5wPiJxuBtTVkrgfx8JsdBnHzUdrtpzh/CVjETZL9iPVB1hDNDQ8F0pR1ualAoajlCom4cjLVsH8D478jPB1Z+RZN2qZl2H5u4RA3A+qzgZ0UrwVahfY5ktM2l3wMMYds8c5pkAipa7MwmbknfFaDtJ+zvdGpuyxyusEF+I32HFfSnm+rbw4Q8qp9noShaCUUtCmrZ/q59BeQ38ruJoZD06lvDbEBN5y4GB4Erv9Sk09+CJvLUn0wnmkOuq+ShUHGiEXXf7rev0NzeZgMqPLs0aYScqceJZPDzc5A3WKepownoarFzDCfu7jpNen1b5meu4Bi5+EYGZ1W+2g2vwQX9riZas5wkK8jw6pUAMyfeRhZ4eQCfC5xwxjoGABwDhnOJKpOxjD8+oOWwi64q7RhSsR7yGt/iUBuaU/babjc1DIXMDfsrbGFv0U3vcEPbdsY7Q2PsHHJdDZlrilZCXuN3eLsNjKwHE8FygDUpnDpJiCut4PgYrB07SPULe8PGwnK9c521niYcO3aid4/JvBMKH38YVxfgO6357rGdwCrtSXXOnbB2l4OzPwN4nwmg/7UThmlzv7yM82xl+mJobMdKF6RZNsbkAptmsRhaoqUpo9DsYKpnD4XK2bBuoNHcQtXord6E26HR7yO5rorb8wLumJtDyhGWt/qLNAC4DNih0zmAePcnLkNf7XnMYWIXpZU0RXWtDWfNlyhSgOx7NnDWBVwL3O539sI1HmeAZesDseS2rV/N66wJut+OeCCFHtZm3g/Ar67D+eZ+yh7ZHCLP9rtX8zIF8BvtzYER5fSwD3G5hrC+MGxzHeJWWphxKxO/n/QOcKjYpLFQLFTOUg9Mebs1LrrxuqPpg7BXZllQW3QCVBSb6GcPI69Ft8J5/G+X896/HOTxHx/n2V9/kS33Psap5jKMrGRjed/VrN2wNebnKgQyH3gMdQzEdV8ArNlc/+ACMOP6VlEKyzIe1fw+804ofKQk5vKMaDnt1qxLazbbDNdIAM35aFw3uypsHMNpOLer15DzMS+InI/V/TxkTrQBRS27UM974xW2kDVWTecuLgBc+V3S6pjo9bjYW6wBWPn5hJetX0NTlTXrfoxnrdRVYQOcdJQpgJvSDrfhWjkZpACkmoLjWRHdGrdaMeYl0vU0mVZwkerZcHIUux1I3az5LJIVn0SylJgXRZ5euSOCpRa1eIAVQdP3rNxc9Mq5PPOq4KQrBvRNVZCogS7WskW9Sf88tYPQV7OFhVb6zIU88ypagA7rdsJNWMlqm1WfA8glvUxJyC1MgyNXqWFIoxQQdcrL/QqXBgEuBT/XKxCWCnqFVh5gyszXpFn1OThGLvxeGx9H/86I/kqmkswHHBv6JeVVhFWkxIK+/xKNfqEvEIs6fRslcvwBcL3jCwTFrw3EyOvznqWBPbRaHCRDmfd5gPzVQcXw4MhVYCio1L1w6Wpw0RzPGACxy2Qs48+ZK8DgoEbhLxDKU5GnqOeDjbnE2jfpHb8kr2275pBJIGTXqK/XrFqR1DhLZuD79SU0/H8FZK1z8PLex7j2mzc0ad6d8JGDD/5z+Ns+J/5wjRwIm2ad2cQwwOWL2vK/VIDR5QNmU0ogmP7lycBcfHKa0oOQZkk3UHi1MekNdevTx4CM9qd3C20dg8JmB1NnlKDL41xda4XyrdAOENhkCJdGo98b3QorXAxPjUFfbZOhO6ZQEoW7SCMzFep3VNEAMDYMBFxyM52hSjxHKkx5D8Z0a62Ra+27E76EbmS2rV/Ny6zh+rlhrgMvv3OejXZg+VoAvmyFadP9Qfdb18gFHsAH1kwAfH8AmCTr26dDlKSV2QGl1vSEVpEXi5xCIO5hPU2aCyrUyk6hoO30gs2yk0KXk/YehUpXAdO9eyPGYOr3TmpuuZ0t+puM2894EbIoyATqe6ooagbG2qLmuRyozv8i7x0/yLbGfkqVSUOX91jbEQLvGql3xfxc6wBWaWUsBeCvU5j4DYAvuMFfu2HzzVrr+Mu/irk8PUbz16b1hFXO6ec5/VwpMFpDrlm1IulKsrfPQR4KNkfjrPM4BiHrw0SykOvxeMs2Wq/MlnjXSjag+cQuWsgl3bod2raHKCDniynnBo2b/MRlgPMJVbqJPFPMaxOWpxg7wjFNYMyqdMGIEojFKuKO5tTCYro4SiKZLYvi1trJKwAesuuGoC40zkTezf/+DmBwEtLnv2zBeIWN3ea3qK3bQq11CxB6ircU2G9fQccqDy1lVlqs24FQS6NktU3RSljtUSi1Hggo8wgskNWncvFwbOIS4bezzCyuVi6+W8qM2O26yrG6LaFfxLHe8F3yYFofPd3Mwibxshvv+9pxjmAskPlCHA5EIpltJOJyvaAU0ODNBprIBPq8VRRZoKz3IBD9tsJ4UCtxbVzl2MQlmhudvF3nwVbh5tjEzcMXVsU9BkRCLZOxjD/CcldtPRguT1HPWKkdBAbrwn4vZLd0EGib//iZj1uX8XfHD3Lk+AUOHjnKM1sf41DpagobOxHWPssAls1+kxuOv/rL8N99DuDOmc12e+UGTPcYt+NdKdp/q2/L674ME1k7qfbuRL2Ybh2DnJOWYIw49W8g8TfmTQNFT/XSbm+CfWfpd8UeH8iI6gwgw7h+nWOAy0m2MhOrR09OBjSwh+6XmnC8+HDYdBDahkGLh3zt5kvfhoIGoMES3lovLcsJhLP+0llwWQGrg/NjB/n3u/fCwROa5xS32777ZhPLyyc5/8771H8dWKbd1HV972vwN8YWWJ/9wmc1/45FTtXjq1rO+moJuUiovNdHu30jjhfPAibM3mJsljbAglsp0Fw+AjMB0/uB1iwn1d7VJHtjWJYBDXaF7pecUeVDsPwOaC5dwwd3dNJQk8O27a+CdUfw+3jedwAipJ8TywyUeHNEKL5MmTOKL6GcOzOkUGS/Sizzupgro6UNKslWzqHSEbhwKfZDVzdQaj2AWF/PF4lej4v1yoXB6L9byL3AbNZKRSthsPE7HKsboquKWe1/4mEEKLK0EWs8ZpsTcBrf8m00hkZi4grAAGklA7iV8zHdkBuN1QB2c9jvU4BDzg2MOL0UWdqob7bwrqJEvBxDIllqLApFnnD1Gm6cfxfV2ZS9374C7IFN427XVWrrtnDJukWzCV0KqK+6F0qUC9bt7D/RCCvtSW0bGzDu2QXsCi440ssUhhs9cctAnnlV2O+CLnxRTPIXC2pXPzGp+4DsGhcQXvEgEMoP06rI7jdCgbXqpsJmoRHKS7WbA8y0R7IQi0TGQ7+bjzYS1iIpxd2a9bawCAKgN/JNhbMhz7yKS23g5hI1bWdY7cmitg4qzp0BslidDrAiIWNzOJmMNv4Iy9148oyV5nxY3fIWpdaf07G1jgrP51GPT2Kz15UOtorYFYSJZPkdsCt/Dbvyn+PZISflTz6KO+d5UooP8rk7l3EcqPeMgNVYeWD+T8s5BfCbC2ANdfN8d8KHHeALWmXKpHcEnQ6O60D/hYt8xwosTwkoEa1/henGKDmbMjGy6AnHCFCZ1QYMUNZLcEEvLNYaXFDfbKHa202yFSOdY1DvcuLwdtN9Obm31zWcHKUeSCkOf2tuJlCoPEylswnH2NGIFy2YgUr7WrA4qPZ2c2psA4U0kXJ39Pe03ztJu52g0kpN6xi8W2Lh0BklRHk1sxHUWsetBVLuz+RXv/Bx/Z4LZNNDyvqZ+Urcbnv8IKR4RmHwLF/+8dcQFljL7wRIwbzsfcybQmXViFjk9NQYtNubSCkOuHmnAFMvFgOB51IrQw8Vb4DimY3pzBhs3AciiHpfzx6KSiBHcST9lvEUoH5HMeaT/UB8Vi7b7l5NLffB9Y81n8fSjslkGYAJJt4bwMx19GPJB//rYz5r9MMYaDkdsPZO31qHfv00CBRd+WVECyhxoLO6CqIp8S5cuqoJSbGQ9F2B2q3OkFte5+OwNBnr8TzzqpiUpAu5F5jNWqnvChyre5a8/FxK24YYNoeG+Egk0cY0CIz/DSWWuBV10Wg4OUqhHfpdM4dAh4pNmjF3tky8B5n4CHewIZ47TckGpyNwiZFubpNIlirz4lobjZkTssgxykQ6vaubiIsQC8KNLN6yw7HfvoK8xreSblKfbCrWQ02nR2N2P19tYwO6PLsAp2EcuGiEc3VLhit2MhH1bc4H1j84qzwuXLoak6uCWKAauQEkinjijYhFlsn+RFLqEgkjtwdIfht1X4Z+596b8bTm18R/zarA87x9DjZVKdiwQVUWfacVGP8dnzcHFGhzHQMgNpk0Gn/EwtgojqM+z9nEuRTjTgvOEBdfoeBNdsyjsNzQ/tOeawK2Mu0LtM39m5Zz3rSD7pcOctPBJIStdy/jvKnKMM3IR9D/8lG2ft0EyzM137le8cE1rSvv678FDv6YnL/bAKxhLbC2ZDOHDwKXot+MKei+DEWWnRTSxNQZRXMqL5Qs7We8NFBAucUR0813c4mRV50B1V4vyX7/RBzMMp1lmBEVxSZgDyMnI1tNZKaC+8UqGuwKaRYHDSWWkFhARghLskTGPwJ4IGMNZz1w6hfdbLP6QhTEG9csp58CTrx6lkJeYfnfzri6fnk5UJpN5yun4aPYwgnEIqfVGZD9ope0p04zogQsS8p7fbRaLMAo2UBDbWFYWSvv9QV/F1L+zZAImRnZFCoPx+zyOleqM4S7dWjfnQdGDr0KN0Jj4R1/Z5JtvAH/UauYi0Sd3C0AACAASURBVKUdk8ldQEpppuFYcvwaDDf/dFb5ClfH4cZcxj0ezV/zCU9McW2FlZVReAc9xyYuGYboSCSxxuMVB12x3vKaSJKxHs/PXAHkGsa4S3bZsRLvWskN1G49QHP+EPtbvgNVRwLWfAkINzRbui9DQ0ngoKmomeA4GW8eaZadoFiY8laRUnwwOP/Z8wu4aZ8dRNwkPpuxMwXgS6uZcEG4dZC6XiIWdVEzTPeGP1CTSJYSi0KRZwJqHrNTOwjuDgOXQoN0nPs5MHPypFbOgbESwchlMdayRS4d1gOoN3YilpLRBC6uuo82+egp7/VpAo8mGh+wu8YVch17y2m3ZnOcrLbZ7boacm26uF4+lgWTngfXA/mN7C5TNM+U3eEmb7BuTvFE1LSOzW5iixe1UskNZFsPRHQDFHScg2N1W6LGCfMBpTUualCSrjhrdthoIZe+mu2o34HdrqshCxb1AswHpNe4wlrjzfbdMqLcvoJjOOnYWoeQ3/lqo75aIlrdJItVn4MWcmkp2x5U2tVstlHbBgzWYVoVOLWPZwwwwkgmYx1/bEBe44OUtqEZL4zyjFTP3R3ukLIE6jg1emVeONkNR6JkcgT4+rY2+g/v49Tbpzn+9ml+8NyrbOMoa3MDweBz7oT6l+qofH01tQ87ODX4CqfePk3n4GkOVD0PXCBnGdS/VBWSprX3DYoKd1JPE9v+8cfo41L9/p7NlBcpnBp8iVNvn+bZrjeofbCM+ow3WFu2L5juv/3XNfRn7OGhEif9h7/FqbdPc+rt0zR0DXDg0X3ox8nWMajMslDIgKG1l8CRCn3eg/Szh7QsZ9QF91xj5M0HQukTyRpPkAlQm82pZog21wgLrWA5LuDy6bDpYcaSLNFBx7PXL6OfRxg++BJfvt+EXgGUmQp8dSsvH36FbfcAqTMKzeVAe3UBrb5iygsdHO9tC8r+s4d76f+2E/16KFY5FS7NRpddpKTClLOY/tru4CUSakWf/W4oat4TMu8Ll12hmH2h2AR2hdaSJpK9PojEdaDouWmKtq3jwAvf4tTgq7zc+wYPfbuJ/hoH36zdAF/Qui7H2o7JYhnwwtc3028q5uslTo73NgXHqdcf3Elh2ezs8cSaUsxlamI5+FErWqIdrO52XYW27UlXnBWtBKqeCFH4uIG+mgPon0V9CLbbdTWsNZ7YL+kvkJoNyViPi8tEjGJwd5ybWR8kcy8QbX6PZ60k1pd5KBTVNwIrQi6/iKfsRCDm53b7AFPes/R5vTSwhzSLI+J+dBqwPdUbvGhpIsvClHdn0JpvGqh8rpd2+wDm4tAwMSIkhD4GaqzU37MhapxS4QVQzwBT3m7qe7zYnANJ3WdLJPPFonCthYBFxiaPJxDTQReTqKtqxr2pYj1caHyL9LItgBK8ETe9+4mQTf9whY3s8cZgDKbmfCj3BNyp1PGUYi3bBkye2BW44VGlOFSnUSMsPkqtBGPGASHug2qmAbt5kkrXHiYsG5PiXmQCylvspFsPoI4/1ZwPRR5tPLtktM1++wrSO54A60x+wZuNVW4ORm4AIqZeHgRd8MTlKekdnyd963aEC4XR88wFM6NU2hXetTgibkRni7gptdQ6GXQFmZHvIzCule9jaF1GjNpQUNqGpv+6qsDWou0XI0W3yF8dv8wo9oo6f7V8F62ELI9Cdo0r5B1g/czvxbuaXlaHOmbi7ty3wCBeYCzvVqzPYwOGPbvIrlkdHCvCtVEicaQCBoHsjYgUz6pwFmULa7c8hoLBnjethxac5KFo3INiHQPyM1dQS25UmYxn/BGx9LLLrMG4M+HkPFw9xzudsDJ87JmilXCpUwlx7Q0nu8G66mJ/zma8N2I1kPJ3mTx9pI3pfy3jLhOU3beZx4cbYdV9wXTVGcu469hPefnQTyl95qfge5/CjNVUlNyHiKNXnbGMtcNHOdD6SjDNtr8x8bPH72fbQ6fgzlA3sPqvLmf48YPsaW5k4s3nyfwCHHrkaxQ+eRzu/GIwXead8C+vVHHg8F2Uv3wQfhuoa87dmyl7/H7UipzyXh/9zo3UQ0xzWibg9lZhe8qMzemkz2tJuttiMonXhWjKuQGiPK9wgYKZeEVpyihpWQ5EbLupnj0hBwWud3wUMhCTC248CKs6ul5hbUZonDszkF2wmeE3Yd1X16C/2dWxCky/UDjYupGvP/dT8DWR+QXIvXszOV8PjQcXi5yKi0yiHZiIOILiBlX7zRtrHakmzKp4pcKCVBMSgYBCtX1fMZWufnIUB1jORo5BmKB49hNXoJABWBmYBTKBn/3Lo/QfSeHAmz1MH3yVu0yw7b7NtB+tI2XT10LyiPV9TyaFqdB3TOFH/z3Q92ZfG2WlG/jvHTupPJ9JrDG91OgPhtSIyw8G6266197sEH18s8DYHboGaAHNWqEG2K8LHxPr+jUYOkV1WFvLzByiX0OPV9jo2OwhvcyKWCvNrGcC85HYJ5XWbQnOhV1VkH/Cc9PwIZTxChvpHAldQ9+c5xZ6Pb7fvgK3PTC/q+fXriow3WyfZO4FYpnfY1krqfv7u425wXWMuFW4pUwB63ZNOKJErS2M6L4MlVk7gQHcSkFwjBPuqCNUUWRpo9KyMcTdVtwg71YKSHnReL6yKaMUupw4ziiMJNACXCDiyk6/009KceieTMTBracpuPaozoAcbyBunlnZCPd4g5b9xnFhE3/TrkSSKP7C7/f7E5HRhx99lIhsZk16h5uatu1LLk6dnv/9zjuBmVOOQpdzTkqjhe6XWwXRLzAzeRltkmJlrv2y23UV6rYEF0/hEEq3riplwWJ9SbTyE440ZZT29xwhcavKe32scxor9ct7feDcGHGMkGPA4iUWuZgvRPyzRAWiVucJTWFjskVCfdpv9PtY5F8gFF/hxm2xoenrWUtRCcSrPNArKSO9t4Jw77wedd88zfP0OzdSCBGfW63oE/XL8XZTZBmmr7YprGI0Uow80UZTPWsXxJI4XlrHgBJtvMVoAd9jbVcjOSrv9fECR3mabNY5HYZ9r+7zEUwR6xJpjSHejXqXc1YHvsl435NB+euTLKvJof3sQTAZb6jnOscJz55Y4pvdKnsNya1NtLWF2McAGgVeONQKv1j2PkZ7WPFZ35ecwfkn0nwTK2nKKPXNoeOtGOPUSjwjwtVhqYyRktubRWORJ9GSArhfLMb2FIy85iTTKQNzLhamnBtIo5vulxwx3xwnkUgktx1jQC24LdE3CkaIuHnlymocD00Sz1ir3ngI2u1AxsMRfxdLQPDZYqREcvTsIdpzqS+/OQQxWffNxP+boXUM6nGQ6eyOqb5qRaog0IaJvUk7WRjdcjyX/hUxpMJZ+B0qNgXyjfOCIv1GekZ2Z1BvvAWFQPUZhfmOsTpfXAP6374QuHTDtPCXSEgkSxn1nNhXC5lx3ADvSAWHNxDvLi1rJ25lZ9g5XZRTz4BGgSZCQRSVOKF55pBprpdPtD+0gcrmAo3VtLDEi3RoJTCaJ0B36ZxEskiRFnmLjERbaCx0v9wqLLZ+kRZ5S4uFtLySY8Di5Va3yJNIbiXSlFH6SP7ttPPBUnjfW8eu01DyMMf2wdry8MpnaZEnkWhZqLVFNMv3ZBGPdb5EcishLfIkEolEIpFIJJIIiFh6ksRy4NfwQddjbPzyVpalfJFrwOtvTNJ/sI3v537M2q/P7uZaiUQyvxhZgs8Hh4pNpHm7SctyMNUzsSRCP0gkiSBhFnn/69//nT//+c+JyOq25VOf+hT/23/4DwnNU/bL3JH9IpkLyZCfeJCytjhZaLnQsxQsdCQSSWJYTO/7qctwuP0lzr5zgul/PU0KsG3TF9leVkKm/WG4I7LruZzjJJIZFtvaQiKRJI+EKfL+9Mkn/OlPf0pEVrctn/nMZ/jMpz+d0Dxlv8wd2S+SuZAM+YkHKWuLk4WWC4lEIrkVkHOcRDKDXFtIJLcPn0pURp/59Kf59B3SU3e2fPqOO5Iy8Mp+mRuyXyRzIVnyEw9S1hYfi0EuJBKJ5FZAznESSQC5tpBIbi8SZpEn+NMnn3Djxg1p5h4jn/rUp7hjHgZe2S/xIftFMhfmS37iQcrawrMY5UIikUhuBeQcJ7ldkWsLieT2JOGKPIlEIpFIJBKJRCKRSCQSiUSSeBLmWiuRSCQSiUQikUgkEolEIpFIkodU5EkkEolEIpFIJBKJRCKRSCRLAKnIk0gkEolEIpFIJBKJRCKRSJYAUpEnkUgkEolEIpFIJBKJRCKRLAGkIk8ikUgkEolEIpFIJBKJRCJZAtyR6Azl9e8Sye2DvPJeIpFIJBLJYkXuSyQSye2A3JPdfvyF3+/3Jyqz69ev88mNG4nKTiKRLBE+fccdLFu2bKGrIZFIJBKJRALIfYlEIrn9kHuy24eEudb+6ZNP5GQpkdymfHLjBn/65JOFroZEIpFIJBKJ3JdIJJLbErknu31ImCLvhpwsJZLbmsU2BrSOQbnFApd7F7oqEkmQ1jEYUSwR04wAaZY2GGubn0rdBizm8aC810erxQKMLnRVJJJbhsW2JpFIJJL5Qo5/twcJU+TJ2BMSye3NrTgGTANpT/XS/ZQF8C10dRYV5b2+RasYEXRfhjTLTqZ7dwY/m61Cp3UM0iwWQ+Va92Uot+yMKc93J3wUNRNRSTcxBtjP0/1SE/HKnXhmff5Lob+SybsTiXt/y3t9IWNCpLGidYy4FXVC3iL9hetPIQPhFMbRvpcsPtKU0VtS2Ws0RieKW3FNIpFIJLGwFMe/NGVU7rfiJOGXXUgkEkl5r49+50amevZARtWc8kpTRqHZEfJ5IXDojAKpxXPKfy60jkFDSWI2w/VAtbcb2MAIUGRpA5pmlVe7HRwvngVMCambEf3eSeoBUlfPOa+5tKNbKSCl+KDhdxNXoJABUu5WgICypeGl3oTVG2bq3l4L8HzU9IeKTaR5u2ktcVDtzQY2hKRxZMDEjoO4Siw4Lp9eUBm/lVgHCen3iruhaFCh0hJ5jJsGbE/1gstJu1IAY0BG7OVEGuNax+Bdg3dmGqh8rpd2+wCZzrOG+bre8VHPAJnO7tgrM0888+Y1xvcU8s8/eZRlf7tjoauzKJgG2u9ZTWVzAeanHDGP7WIeNkKMm7GkmSviPSh0OUPkeeIKwAAp5j1zLkcikUgkWsR+ot3elPR9QTKIth9S751uR5acIs8NlFoPAErws/FOJ6zflfSy+65A7VYnw41gsivRf7BAiHrCEAB5wP4TjbDSHvY3u11XOVa3heZ8KGp5C1gxL3WNB3Xfz1efS2ZHLMqKeNArpsp7fRBm8zGfVGdAtdcb9+/ExqYdZ8SJ1WgjJSY1t3LecJOVpozCe6GKz0QyDfDeJGY7QKhiJJpizui5wikt0pRR2t8L3bzOTO7nw9ax4aVe2u1A6mYAOscAl5MypYBETPrqTXBlM1Q2G8ukXn77nBsoat5DjuLg1D3eiG2VluUEnJrP1G0l2qGvtolMZ3yyKOTQnd+fkA37YqbfO0k/0GCJ/93oq0XTtpmpJqZeLCZNWU33Sw4cLz6M0TtsU0YNlRfJQK00BKgEKi0z8ijeuWmgf/B02LbQL4qnb8CB109z/PUeLr59AnFS/p2/MbHr2E+BNQl9jo+vX09ofrMh1vE5Vq7dgCPHL+DqPcqI6w1gEoDML8B/e3wzax/rjPkwo9Kl7Vc9esWyvj+Nxs1Y0swWTVt6Q9vy3QkfhQArzSG/jbaBS/aB1WzW0rcTYk3eVaVgq/DMe/lLpX/SO9zQtj34764qIrbXUtnrLIV9owQygfYzVVRmnSe7d++SW+tlAlPeKiD0wHSx7AUXkqQp8sRAlIcSMrBG+i4aNmDcswvYRcc5aCmzhi17uNFjqHCL9n0iEQPdfE4wRSuhyKMEy6duS9LLnC2ifotx8lWjXzAADDfmJl1+fEB2jYtm6hZkopxL/6iVFfEqGGKl+wpUZu0EBsKmEYqQ2/3UJpFMArgmyFYKCLeJMlLMJXKDGI3hy4CrH0fPHsAUVOwB2JwD4Iy8aXYrBTzN81R4N4bIr3iOepo4FEGmhDWpY0egDoJMoFB5mInB81Q7R2elDJ4r3ZcD705f7QDcbWy5dasgFM96hVy8eagVZQK9wkz/7360ylgxDrWObdAobtSKtXY7sEPbJ+W9PtY5N0Ydw/TPqH/nOscwVKqI5zPjRCjnRz6Cor9v465LTZQ9UMzax+u4+HEKk1feh19cBBKvdGvON0H+qYTnu1D0X4Ly3fswj71CYekGnvjeoyz7my8y8etpLv6/17h+vT+Ydi5W5om0Dk8kT/f6KHQ5cZxRMJor+r2TmsMWI4wOfhJxYKVXsNQAFZ4jBHYaS2MtbWTcAKHPMhsStT4XezUjhU+k76Ixm/4RfZ6I9omV8QobVHjC9tViYaH3G/EQ7d1NFgupvJ5L2Y5UcCnP87RzI4fu7l00Xh5GhzXqNdRi8Lxa7CRNkWcDmk/sonarh76GOopavoIYFEo73IDC/k5nUpU3v5sYWlADUh9wbOiXNDfmUltnxTcyiMm+OJVV++0rwD7/J2rxoFbizidCGRtQ3M200e4ON/uvuBa1AnIhEcqKDmcThx5KzsThWAkOr/HpknA9008C4Vx1I6HfnMP8uK8uJowUGTYnGoXYXNpEr/BQY9T+MxQYfup6x0e7fQAyAu6uYkMZbVEgNsQp5rUwAUXNMHVPG+I0UGsR6aW818cL7NRsNNVtFc718lCxCeI4GU1TRukjdqV4WkkTYnHUVwtYZhRDacoohc0Ops4okLq0Tmdng1A8r843lpV4mIsyUH16rLbmNVLStY7NuaohjAANJW0BmYzhHf3Hzgs4LjXR3qPAqsA7kwPAfZD4kGa3HN2XoLLESfUXT1N/9jCY7pv5cpP4n/Duw2KsmepBM4aEm9sWGyNAv/NoYPxR1VPvzqsf35O9eRMb4hoUzea/7wq4O5zYKhanoiUSaisvoZBpsW5fFBZdFevhQuNb1NZtIcv1bPAA3A20lB2gBihqOUKyFUdugLYzNDc6qa3zUHHuDKxPviIvXhZqrxMvC7FvvBXf3fmiothEkXMPI685yXQujnlDb20XzgNHEp6EXXZhRNFKyGv8DrWD4HM9CwROX2jbTlcVCza5TF4B8GBaFWrNl0jOXIG8wUGyMvMhfzVnhoaAq0ktU5JYOs6hUuJpJ4j9FTapxItCRbGJfvYw/U5/9MTzxJRzA1Neb9S/Pq8XCMTtabfDlPes5nvHi17ERCMCdkcKTJ+MYN7zSQow9WIxU14vhcpZ6oEpb3ewPaidW7ytQmDqjBLSD9R2G7a/un/0iA2k+UsAJrovQ79zLy8oBcHNobicQB3wXyg62u1AxsO8UGwCu6K5dEIsPITibp05oNAUAXrLe33YLBbqXU6mvN0xx4hs7fWFvYii+zLQfJBTzRBrsPupnj3BthKKJ6EsdVsOcsjrDbrmplnalrx8RmLiMsyHFehip6PXRz1NkJEdNe00cH70fXLvBlaFt5aSGDMNVL7QS/2qXur/6cdaJZ4B1RkE30kIbGiKLBamemB65cOU9/qCl+1UZ4D9jJe0rP7gBRjVGQTGS9140wCkWRzBeajIYkHvqhpLmtnQ0eujkCYyH9KunQ4Vm5jyemk/4wUKNGNVfU9yrZN9QGmNK0QRAIE9y62gCDABXS12wEnfYYXFsO/4rn0F5DfyvbohuOICZow6KjqdzIdl3NvnoAaF1fYswIr79NLv69uJ2+HdTSbCuCKedaRk8ZNURR5AuX0F4OR7dUO4r7iCpy+2iiPBNB3noMNqxY2bdOsB0q1WOHeA3a6rpFutdFit3DxLiYnPA+THF9DaDcGyxR/nDoRN33GOYLrdVmtwYlIzOHKV/PwhTCu/Ql7uVxgcBK78UpNmt+sqHVYrPtyk17iCefbVWFFPvqJ+PpdTU3a0ekYjvcOtycvdEVm5GUt6o7ZUp+u7AulWJ+lWK8fqtnAMSN9aF/aZ1OkjtTcEBnp1OxrVMZ62bDntpgYw2Z+I2C4CIbPiz0h20zvc9NVYcXNV007qeop8sq1WGKyjdhDSrVsi5qt/Fn0a0Y76z9Vt5nM54+6fSKwGsJsZHhwgWbcQjQCtljYSPTEVKaO01zZBHO7T6g1JLAqnaNicAyEKQbHJMvouzWKJ29owXkSMLXV8vGDMvJuKs4Wmo9eHeiPqesdHX+1A1Nggp8YAmoKusClA+75iXK4CmDht+JvqDBN93oNUuvaQZtkIzo1MnVFuWltpXSDTlFHDG0dHgAbnUdKynIYKtcrXRilkgOozSkie8SCUpep2EEquFPNaAK4BzxweJaskoJi+d6OF/r2PIeJ6CU75oHzvK6TdG1AAFN1rYeTQt27mEKD/X6/xUF0baRu3kWax8FDeRvqVb8FH72vyUt8k/PKvrnHvk/tIs2yk6F6LYXqAix9BrTIQLL+2JIeLg20YuXvOBNRfO5tmC0EoP6PdKqt5LyPcUjwfTBJ4b3OUAlqfmiTaePlZIOULJt59B/joYsS0aqW4ul9sFgvPPLmNa796RZNetN9E704O/OoatjxnsP+NbpUu7/XRarFwjVGe7X0fW95jwT6/9mtt3hCI6/fM4dPBdJV5G5l4s43y3sk539xsJPcv790Jf9C25+seSHEdZFftDrgz9ndWKOz6cAQVc7bXJoMWbK0lTcAojlSY8h6EHi9pFkfYm/70By5G81E94PZ2016rMOU9O6c5SyDmiQqdNZ4a1zs+ChnQxMd7d8KXsEtpjDhzBRgc5MHGXBKtPNKvj8PtXWLdbxitZ32uUIt1I8Q+6NIgwKXg5/r1tD7P2a7/9Pnq05iAmsfsHAP6GuroOHfV0KgjvcONu8MaXM/q90fR9iiRaDntZlMV2LBBVRZvt4G6f+LZG8S6d4uHePY68aTX70v06eLdb8SzbzSSdb0Mx9qW8b67sZQt2lCtczBqI/HMpVYroFDappUPfV1jeXdFefr2E3USdYi37EisM5toABgbjin9YkG9dlb/hbuo6XYi6Yo8G1DTuYtjQOnWOsKdvrQAh6zbGT+xGqqOsPuwQv7Qs3R53qIFJz7XT+Iue3Ic4KpmcBbkAXwusFDouwKlViddVQrjHg/jHg81nR7SyxTDSfN7Q7DqsJVxz1uMezwcqzrC7q11mpdeuNWuTgdYQX7mCo6RC7+fDMmvBci2bmc4d5Bxj4cuj4faQSd9NVvQv5zZdUNQZmXcc4Rxj4e8xrdIL1Nmrcwbr7AFyzRyaROINqxp2x4se9zj4ZD5LU3ZbuBt6wHGPVmatixtIzhYFa2EcY8SrH8eMH6iMZh+3OPRTOz69OHouwLZVidd6XXBfJpPeChtyzUc6IzacneZEuxHYYa/Kh9gVcR2FIP2mrotwfyGPR5a8hvZbd0eMrnWDkKpdQvjnWjqKeRtv31FMA/yG2nOJyhv4x4PFR4P6ndot+sqLWVWxjudwTQtVUc0ZRethOYTCi3k0lezPdge33NdhcG6oNVhvP0TiRSgMH8zEy7QKwLiodIFaZaNhoP3qTFooInp3sS5CJb3+qhvdpC9wLc6upWCsIpBo+8SYRkXDRF7Ljt/Jj5e0HXRMnfXxbkirO/UHCo2xeQOaWTV4kiFQ96DYA7djIrFRZHFQru9iSnvWY1VjR5hDVqoaOOfCSu/QuUsNueAZlPeOgY0OzTWhIlGBJu/BmzZ+wa/f9lBU8VGuo528sC+w1x8ZzlqJUHr2HVKNzr47PsKXU87Aume7uT308sQirRa1yTleYXkfPQqXU1Ouo52Yt7+POWvTNL699vgo1BFUus7H3C+eSffL72LrqMK6Y8fpLz5It17H0Y9fox8BPf+fRuc2Bks/4P793LvN17l/KGHwz5nWklTXMo3tdJHWKSq5SjcO6j+U1sYHSo2GSp454PVN+s/cfdBGlz9jCiRFf7LgO9u38wBiqktLGN6LFRhpmfiEyjf20sO3XT9wMl3f9qJi/v5+wf3cd1AkXnwV3DXG3W4+/dFfG8goBh6Uhnmrl/vY//3HqX5p510ch+VRfvgt6/O1AHIq+tlfH8ZL2xPoetoJxtrFUoPTDLxcmxKkHC0jl2n9P4yjdzn/sNhnjkJlXkOuDSjIDx+bpIHuMCyu7fGlLdQblZ4NwataIWClGYHbqWAPq+XBvbQanEgFLFizKr8UjfdT21E/Z4ayZsYazrNBym3WDh092mqvV6GxzZQ+V4/aZaNrO7dqbE6ng1ingg3JwhFn10XH6/fG/4SpUQwOHIVGEq4R056h5vxzWeCa6Quj4cWnHRYt6M/UNXvN4Y9HjoOr0avVMq2HqCZOs3a73sTT0RU7kSi7wrQ4GTc851gfnmNb5FdNxRce85m/XdoPJdLW62Me54wXEsLKtYDVUeoHYSWsi0hRh2C0rbAHkvs/75X8xOGcwep6fRwqI1ZPb9Yz3/enAtAzWYbFwCu/C4kbaz7rHj2brEQ614HAmv+2q1WhhsJ9ku5x0Nfw6Sm7N2uq3yXZzWydiy/UbNnjXe/Eeu+seMclFqtDDfOyE5Np4fsuqEQ5VW4tnR3zMQ9jOfdjadsgPQyhfyhLZp9fcfWOsQ7qX/mrio070RRiwfhGm707jaf8JBdh6bs/fYV5DW+RWkbwffPB9Q2uMhjKBibMp6yo5GTAbCH6YnF4aGgV9DR7AjZ74nDbSPPHP1a+nYk6Yo8mBm8gYguteVVzLgqDkJRfT5COH83MWT4GyNMAOmfD/777XMASljX1tpuN835Q9gqZgZOUWej3+QzpAkE2lVh4xhOfCODwTTi5MC2OfByZq0E8vPDmnKrXTeF8tPIgk8f0FOYqyfbRPyQ6yp5KFScaEQ9oO+3r9D0pw2o8OzSpBFtKRSrycKoH4tWQk2nQu0gcO7nmvT6thTKVtGPwgVbKGMj8fNzkDdYp2kf4d5wDCfu7rqQ36hjlwj52CRRSwAAIABJREFUmI37tRs4VvdzhhtzNX1hJJd6d/e+K3Cs7lm6qpJ3E/M6s4l3AS7PXpGnH8DVg3d1BhQqZ+l0DpAIq7zWMcC5cc7WT7cqE1egkAFS7i4MfnZqDApp0nwWL8Lt08jCUD+xR3L/qnxtlPbaAUNLytYxwlpHGVkChUMsPtrfcwTlUu1qLdKEs5IJx6FiE/U9Xipd0GrZyAijQVfflOLnY84HoPUkwbbqfsrCutBLIYFAe61jAFJXc8oH0z/r5jvVBeTk7yBn02aqi++jun/mXTj+B2jY8TztD0zSfLSbnPxHyNm0mcfzN1P49HMIV+bOp56nr9ZE9YvHyflqMTmbNtP8WAHtPZ00XCrm/D9rla39gHlwH81HfxjMs/mxAnb981EqX4drQz8GAmrCf/ynUaqvN9H8f8+Uf2hnAYUtnXQ+NwrX3tDkLZQd8fwlWyEuLK/EwYTavbHcYoGJUDlMhILDkQr1PQcpasbwPVBb1TpWwaEeheOpO7CV7OPZR3OYHns15DeCDgWObb+Iw3mQnE334fjqZv6ff9rDyFd/yMtPN0Fg6xxk9cgA277lhDuiW/G+DHybE5TtO0zOpvso++pmmn/0HMe5j/NDPw2me7bXx+rXnfzzS3sofOyHQdls/6cfcp7YlGpGjFyHhqd/TPs9FzVyX118H339B+letYf+VifCInXY5+Oue4BlsfWXULAJRXH3ZbBZdoLLGbzsIRNwe6tosCukWRya/ptybtCMQWr5MvprKLFoxtzKEgu4ApdGqa29hetuvESzgg1emKQ6EBoBaB7WfJZojk1c0hzkJ4rxClvIWrimc1eIsujS7wGGgnsDCDxpRYsd9bpZrD+zcnNRrz9jDenyO4DBSTZVidrcvByiRdHkJ/YQ8eyx9KwZHIq4llbTVWFDKH8iudQWPeYM1jOfIUz27wBwDAwNIqLx9jnIQ8GUmQ/ApvWErI8F8eyzYt27JRKx5tev221AUcsuNPJiX6FJYwKa6+1hDUsShQ9oOewKqWPFeshrfMtQIatvS73VZKzv7mzK1l+2UrPZRgvAuTNxPTcE9ss1KJq4j2LvpbcC1bucC8OKZN0hILykJr3hLwiMRDjLuNn8jSiWkFBHRuEWIh0oLeTh6GJhXhR5PoDxwESmF2I16oltDcDKzxumi5cLl65SU5XLpcFc4FJwIg3WpO1MyGQJkGdeZTgg69MKE3b1RDg4cpUahmB9FhAYPPNyv2L4/HkQnFwEqz6H4UCrnpRFvqR/PqlKMmFdqFG0zgK9iX8iidSPm9YDOPFd0gZl1bflXGg57SY/H1j5Fc3nYjLS908NBGVjrugXKAIhl3rl4H77Cqg6QnbdELVbrSHKz2TQD3BlImn5VxSbaGDPnK3yui9DQ8lODvXsWdRBxBeShpOjIVYUDSdH5+wOlYgYea1jRLSkbDg5Sj2EiRHmo58CRl4LPWFW33gLM5Z1euVdIqjOgPYzXhoooMjioJAmHPuMb3xUU9QcUNxVZlmAAXJo0sRzLMsw0W9XQpSlhc2OoNJ6+XLAZGbk5AjcUM09qmuxOk/6KPO9gmPf84RTKh15c5IyBsj8rzsJ2HbN4FgFKY88xvGXLqBX7BSW7QjJ84F7loF1JxfPBSzCfnUdzjf3U/bI5hCXRfvdq3mZAvhNYk6bo8l0OPd2vcLECBEnzEjGD3m9IRag/d7YNl1CDiIpvMsyCIn9GI7CVeA+upfvHz3L69c3Yyv5Fp11OYbuzo/fA8u+/DXNZ2bg8a/fz1kPcEn7my/nws3VXlQKgcwHHkMtT+u+AFizuf5BQI6C7pylsCzjUc3vM++EwkdKYirLCNc711nracKxYyd6Gc28EwoffxhXF+CbccH/q+UAfxVXOcIKrzLLQiEDIa7wwjK0UDlLWklTWEWbWr6Mxs16oP1MN1BAX214RfdcNknC0tcIo8MfEdogUS7wiwG94mnV5wByo3rSrF4JYNVYy8WKOpaYkcWbEXPZQ8SzlhYKSiCsAYJ+fRzLYXo09Gt0sTY3OjyPdZ8Vz94tkYg1v83ROKd89HuiRKI3ZlFj5KFm1JbzVTaE7utni9gvG70Ta1atCFEOqg0+0rfWBWOyJ/sOgYn3RG3jI9YY47H8qQ+t0iw7Zx1+pHWMWR843Qok7dZaNULDDAHz2U0d25N+bXOeeRWX2sDHJRj6HQ/W55M9TuCWImxBRaGYVLLrhqAu1Nw2L44yJ8fBxlV8rJhRfKleZPESx3NTku+SB9P66OlmlGSJv/VJnOyRHlt6cZ38fKJeHIQj3luMxUJqcnwIG1cJ17ZqRXU4ktk/Fy5dDcYxgVDLPwzmxq4KG6VtTvJQKKpvTEq95pNMgNpsOp1NVBePMpuNR/dlqMzaiVsh5gsKkoU+btliYZrA5qzSBWZlI5lOb9CKIqcWZrvhq84AvPEFOZ+57WqGhpOjTPXsYZoN6F25xYURZUqBYT2rM0w01O7kVPMAmU6tDNmU0eBtvUa394ZDfRtjPDf6mlMB1gID9APT7/STUmzs2kuzI6abVIUCAMIrqHOWwa4ffI3Kb4/wo6wcvvlIMYUPPcay1Jm26PdO0nwP8J/CK2CGfT4eiJBmo2U14z7ANwmmQJpCYNlfrzOsN3+dwsRvIBMfvj+YgEmyvn0avm2sJJuegJSMsNVLGMJSSmB045q4BTkaM+EHwstHLDEo9bIgbj5VX/YhYj9WZvWT3bs3JhfKxzeZ2L7ph/zozTpq9zj54OI2dvX0o1bEpWeAkXI35f9YzssAvglNlArTX8fuir8OYJU2b71sTGIC1wRrf7AZWB6ayV/Gp1RTM/GHa4Ebe/+zsUyvM5sCz3j5IpgKSPnLZYzH0Kdq1DeqRxsvDhWbGCn2UmRpo8HioB40tx6r0Y9ZAbkNyIjDezBQrsWS0Nti352ItkkMHJy0Zjmp9q4GNkQ5aEkMeeZVM8q1lYnLV9ymCZE9G4pWwmqPQqn1QECZdzO9/nZZGzDs2UV2zWqy6+qC+xOji9cg4I5K28y6u6sKbC2ha+Ldrqscq9sS8rnROjHRCLdBYUhR2gbjmw8kXWkRPOhv1Cpr8syrGGyDoiu/jMlIIZ51fKx7t9lw4VLsCldxg7HYg2vJTVid9MwYzITfC8bbRrG+u8koO1bEfrl0EM37GAlhydlSptCcT9D69HZBePmwcvYePUGvr9TbzzIv6Yo84brXnA9ZLW+RXfNL/v/27j8oqjtf8P77umaYnWwxz5OyGWGEztaqk0JzBdrJKpjMRl1x6OJCZxMTrMok5pJBRA7jNFzmpmJSM5rUpYBhOATRCffmx9xVx8yKLNUEfIy5G0XdXPmRiVIOya2aBgdy6Tz3ecba3B0TK9k/2m/36e7TP2kE9POqSlWE06fPj+b0+X7O5/v5bGuruyUXb/BG5lf192NpeYYtm5cxcq4O8v3vq4I1A42JTy1Uf7iZ1QBLfE8Dwv0hj5zTyYmy7+pCZFkWebCogkix1HG7FdRNQvDNxsqOEWjbPmvvq86jWTBPBflUbYxYhRYLNv/y9k3lHgv93a04P6uWebdL1VOIxbaOEbagc7JwMx0b66gc/Ta3omvYbGp/LI/xK1thCkiP77VqsD15onbOg3hGGaVNhOsemKMBWpgAwSw1U04DOrU8BjXvALK+2cqHum7amXAuTGp5hAsmqoYRaQ+E3876B/NoaIay7kO+4EZ5t4eiZgf36zoNmhYQEGsdhrLxCtNAiFlQJxbqs1gEvHxBJ2cf5Gga7f3WkHVNankQQ+2/eLywOZOdA0c42H2On3Ye5afNDv72r/KxVb2Oyob6+jeS+pZ+/yb8r1LvAWM21rGfPg7fMc+w+ua93wwIisSj3Q4FBy56m7eEmcpqFkQOpyaXm1lN5lSjmAZgg+4wDciqZYpdUN9sDRuwiYcjHaqcFRzRHDE//EgB6v+TBTpe52ePOth+6iipm/f5F7gr/GtXA6QEBtK+HuF8z0iKSRDvFrN/J5N3gPrRQciOfGzVQ6Qi+nx/81UuzfcQIJp2O7D3IhnW56mnj6wLXVStOwT4p0+N6FtJO2D+OVTXEV9NPpf/eyXR4J6vpEYYNbkWam4GERusDtr1Wmi+FPZBS7KsWraEkyR3IN/zCTg3ajQXBpbdCfdQOwcYG90J7PQFAFeW6Qw0joZMgxxrsQN2X0CmoK6OY+PZIckQx6qJmiCh7sONQUNfoMfsIXCSGesxX7DpODdqdJTpVI6uYzbvP1V5pYI6TBM2PIP9WOzhb5riuY+Pdex2K6jPVnCXV/V5nU0q89RMosco1r/d2XjvWKlx47GV0f8elRGgpewgWwrB2b+ZzI6HZj3Zab4zjn0mT9QC4R/uzHaDpPluVgN5xqKNKuunud6Os7//lly8LwOXuy5QXn0K0Fm1DM7XweUslzfFmmWG6Yc6xfbwWVeRqECRSuNV02qD22OD94v0fNt2cipHQn4XsO1XP41p+qUKIgY/aUomf60CPep2nxy/GleX12SJdB6v/jNs4RQWW3xp6Go6dEs/POr6u4iB3nBP9m7F+Vn2LWi5WY8k0s2Istvl7Rb2yhGNnm/txNmvsWzP9oAb0GSLNMUmWRzpwIH4p9Zm6EMUNTuYTEImQqTAG8SefaKeUJkNoFSGzYh+KWwAiSuz27lWBTIy9ALQvBlhiRy7WLOVjJlt4QRnRxmprMFIHRTBO+Wwwa5zRNOoKRmidTiPXm0tkydqaaWE0MLOHnI0mMxqm3EA2J851RSQXTN5ADL0TKqaHYxb15oGcWI9jsHCZf2kpcAL2/L50bZ8fvwrjb98fhMj+b+E3GpWfyOFi/3guPYxpJrfOBVYLFw8A2X/chnuCV3monuCndmAxf+7i+Cdfh8UhB+7Drg+5Ft7VwGppN4NkEZWysdkrc8nnEmNhIOc0xF+Fy1AGOmzapY1pWqFtetbKdZWM/mg97NkzFIdmIIiVy84a6HZe31JJIs1WPtjecBWmMpkIt27HZmF0a9TBbkptLKRP332UUDe2/gVb2Zc8Ofp7JUJvguwbPmMtjeaFLxvPX6ljyyuEzyt+4//+ie+meC6s+5J5SzAP12G7NDP3YfjHu/zk3u9WdTffzCV1yzVdL16CEfLViLVNnSkezPjQH32umPKsvVl2qEFrAO8/1/e7fE1hsrR+gIe/KjrpXGZYJGuqbHwldSI8GBtUsuj9UE3VaVW6oG0ktmtTbl+DbSg8Zs6nUp75PvZWKnggLGuW6xygGOjO9mWDX8Y18M+8rEAAy12CvbAxFhdxFkiZlQwqrkQWPNoXNuYDMakDov9BYqB/sYXaKk7NeuztFrOjYTUQAN/EPPCqbqI47947uNjHbvNRKFtCc4Y7vnV2HQ2OjRHo5IrzBJXEj1Gsf7tzsZ7x0oldpxvI+p4GQKnwVe2HGa3axnb6k4xkKXNWt1yiC27/1YJCMRNeX8WnFRRNO5hvBnMMtx73RPecj+z1CBpvpvVGnnq6cuLjZt9wQ1V8LEFEupEGysVuT/ZpvsCbOoicLLO/+RJtUR39hPQHSdWI4Bz40GaC0/Bmkd98+PDPbmJpYBmxwdwsu6hqBdf4wVgtgNnzY6ckG6ncDMoZNLJSe2f6uYaLhtP1SswawYRj3DnsecTaCnTEq7vpwqRmtUp2d0x4iuYWm5fwkm0gC5HyTg/Kpho1qxDKV4KVD/jnR4epXux+myppjPBzS+CJeP8zNenJaouQ/sVB53ui0mZTmQs0Br8XzwDomQfM2OB2kTrUARTU1XBW5dLdZaKR6QmBDi7vNOsnLUU2SG4AG48x7ej2xNT1mAaUP9sCQ3A9PAADa92M6JvDRukq8m1UKTvp7W0iUTrc6hulaqW2Yi+NaQu1aSWR5F+kQag3OoIaciRSDOHWGr8pQL2h5czzVau/b/eEMOOzat4jYcZfF1HdagN9sj6TI7wMIN/fyhkma6rMP3m62z4L3kYp2VOA++8/QaqWYBy6PgENl5ldb43ePbdVGBbAUfePGfa+TYZVHAt3M2uWc3GSPUcI3VXU7XCHA8UUX+imvLSppDz63rfg93eB9bkTjl0pINDOwTpofs4DfS+/i5cD631NDB8nTRO8820FQE/P+4C/untgJ+d/QwGmt9g45MWSLUlc/NDrADSttl4/RBwNbCY9zvXvNuRqI0PpHDpZmAueNr+4GfQ+9rRgH3ckAKOnz5F1XHofVELrDl5C9UDk+6uiLVFY1kmXllLAbZG7Y5orD/aAHTtcpBI7aZY+aaxgWlH2ZGOxDN1jDXfdrs+Nc3G2+36NOReUmWMGWt6dXxASHdNNdtnJvW8jHW/VXdN82mXybs/N0vqAP/9daKdaGOhptWa1dlT99eRmlPEcx8f69htpsLd848APXsOElzzz1gHsOMDcG7MRk1vNoplvBGrHGBL46MBHVnV+yd6jGL9252N9zZuA9XrIn5mw42XzRR0jEB/na/xS3Dzi3jfOxp1bxOum/hcaQAYHgj7e1UHXTUEC67zHEsd6dvVrGXkqT8Ys/neL9qXcPJUIwV1dYwtOwjEPsXWLFVd1ZnYQuj0QmOHG/VHQFvgYK5yDawfHfXWtwiaCmtMV1edRY31KkDVrPAu4/uiDfPkRgUTjU8KguubqXbvZoGnWOpgmNXAUOs3dmMyq+lhXL9xemzxUlg3qlOwx4Uz279ub1FO/+sHKnMoGGtkZVkdxtofuze/ByZ1OYqXAqd1tm3UAvbLmPof6/5UroFlp0fDrCuxJxtqakPHB3YKyrIDzvvYEQ2WerfRWM+kJdsftAxXpyQer9iXsJv3WFn2EOqYBnfVGqvMoSN/lJVl2QTXaFHHUv3t7IGAAsjGv8cBAp8CxXJ+IlHFx2f6tKTKFZrlkmg1BWO9IGOtoJkIzoaYiWQdM6W820N9s4Madxfl3ZmUl66l80LWjAKXg0DVujbq6aPG3UXrcB45pVbT6Z+JrLvY2ka7vQmH+yIN+gR2mqh07yfDepQR3XwqazjqeMaaNbghFxqoZeJME5MH3ESqKQfwcomFnH497LTIYINAr3bU9/lVBd6jZb90llhozXKTdcYKhM9Em4muKTj1lMYjVStISbNxDWj41WV2WvpIXX8EgLJ74ay+j2LNQf2VTdi21UGKhUvT18m6fJqi5zTK7rWYLtP1u2sceeUN2h/8iNXlgZk3BcAvPPl8tKuI1U8+z3VSOXhqgoHORnqceZD9A8AbXGyv2UpVaQkfFTko+3EtKWk2rgMDv/Ow9so7FP3NXpJxU3crbnYbzgx5p0am51OTDhnOLrr2OXAcyAcsvs/Ly/pWXEHXA3Utm3x2fFZKApS/f40Vr2ygaOvDrP3uRqa/vpx3Bi/Te+gN2h/5EynrAxtbpNrhsWcusrNqnJTMjVy6Bj97+Q0c9LFpp45p3bokSgFefjKf8mMlPFmq8fTej0hJy2dw+jpj7UcpKlsdrYRZWBtSoP7VaqpKBzg75cCxQ4PU5QxOX6fh50ep/7/72PTXXRj38ed2C19vPEp53dOscG2g7JESVtsKuJaayfhvJ7g4MUFl5gC2itnNQpsLBemAvYgJt7ccQTiq/ujkiVoGc6sptrbhsq5NWq0+M5Vr4NHRUQr2uALu15oLIafF3/grnnvPy43vsa3uId990rFqKDw9GjKF8RX7ElZ2PAPZ/vsps3v+yjWw++p7nMwOHJPEeu8VTBXV35Y94dsH9b4ruw7DWOjD9pne/ykqWGFM6lDb5Jul5SvxErtYzs/5D3IIDpIaGbPbbt50xVxvMJaxWzzjrFg/b2B+z+9fxt8p9eoRHWdZtm/c1lwIx0bfY1v2bzArRRRtvBHP/rxiX0LHstGAsVOk8W0sYv3bnY33VsYqc1jJYVZu3I4698aMz3Dj5eDl1FR3lVgBgX8TuzfW8cppArY32ntH428oNLMHNcmkGnm1ljaRdcH8YaW/nMn8KX00X/zZV1999VUyVvS/PvssGau54+x2fQp1D0Wtb6Yunseq9Tt+7ryYv/7d3XcH/NvYQCLRKTpmtcbKuz2gRb7ZL+/2cL8WOBVRbU+7vS+mgJNavsfZF1OQJlZqAN6OFrId0Y5ZLFNrjcfL+O+uKQtV6yqYPLE64YG/2vZ6lxZwbNV29TibOPugO+JUz3BBKzVt0ZhWb7Y/Rc2OiOdebWPPfVrY8xbLMkaR6ii2DsOGMxXYtP2oc2n2uVXHqIgmeu1baSe2z+Gtcuk6/GLfr+k9cxR+P4TtXtheuJWynVpI44rXzns4/iudQde7pDHBpvXLqSkvJWvzD1FTGo/89hqHD+oMuvqACcpyM9mx43FWlzyFMeDROgwfllr5+YBOw7nlvNbeCL9/l7LcTHZWPs6KQv86lbMeONT6Ju/0vQGej7HdC5sfyGfHk0+Q+uczCwBEur5Eqn0Y7XcqoB58PTL+PQb//RuvY+XdmQHXNONnOFNzm36eo10vFLNtGfTA8ePdvPN2L+PDfWQBm+x5PF1SxIrCx1Hn0Lgd//8jbn7W0MZH//0NVlg8PL31YXb8WIN7/BmmkbZJfRaMx97sWm583+Dr6OC/wC9+7v1sZHk+pmxbHjt3VlB1yRb1eyPSegHeuXqdg61vMvDuUfB8zKbvWHh6+/fZ9NgP4W7zBy9nPdD16q955x9OMP07b1fbLGD1g3m8ULaaLLu/zmA816VI2xnuuAUf+1iWSVS482b8vSpdYLymqr+VDe4uiq0DhCtXEa0hiIxLRDziGWfFOnYTYi4Fj8nM7kPmkm/coF+iuL/I15BpvtUrn89uSddaIcSdyfW+J2qDgWi8DQwCBzSdJRYIyqQzq131clDh7GiZc2brqAdsWnIzJgamAFcvWU4IHoRUvTVEPX0J1QpSRfGNUwKLrJm+2hKu92fWHUp96dbTFHIjYHxi5p0uGFok3ayDpjFDsscJtih1vyZvNtvIsLYBiTco8U0xiKEmWDQ1uUCu/3Nldh6mgeJd3RTRROcFncH0EoqtbVRZQweysVLBF2NR+0Soc7U6vYTO/Y8Dj0d7CTvWW9ixfl/EZcr+PJWyA88Dz8e0Han/Bl7atoqXtr0eddkNFtiw/wew/wcxrTtYtGM3eaJ2RhlBZt2Na07UYvybqXpriHZ7H+Tu9/3MkQ4ufT/wPF1T0Ks9T6fvdYFTDs0+w8XNQLNZED3y51w1gzFeG2wWsFWU8FJF7Mdh0zLY1FYNbeE/z5GahZjV/jO73kP4Tsy2e+BXZp+NDya84eDFgUHhWNcLsGlZCpsanwWejbgOow0W2PDc4/Bc9L8rJfx5NBEhjtAANFjNajpujWuZRNgfsFDF1oDmQYrZQxtFNd8YBGDA9MHPragFK4QQtwtVK3qDE+ZDEA9gfAqKuITtgSJGSkrI2QW4NAbPNGGTQF5MJJAnhJgVakpYoo0Q4pWMDp6z0QUUMC0obhYgVF+0wQP+eNZdBNj2+gOnnSUWMtxdvoFaogEKFYjqcTZFzRQJV4g/eACvBnM9TrCF6ahoRq1nmmpfl8VYisMHN4VIZnH14HUHnwdVf6/m2XFIL/HtQ+twNRml3vp48Zg8UYsjtzppU7rvNIlOhzd7sGAmUjAI/DUmHSdqCQ7md5ZYGOQQVdY2epx9AUHiDwGmJiA9j/EpgEukZa32NegI/jswC56Ha3DQOcPg5Xx2Deg9f5kXgpqszFfxNrsIJ7jBitnnIZZlEhGuM7Kx3EOk77lIAd9Y/w6FEELEXiv6VvI9zEzf77tnmqbE+71mja+B20ybMy1UMrV2jsnUWnE7MaZxz7cUbrEwRZquKG4PZtMpb3fl3R4q3WtNgzUBdSJNpmYbg76xBHxmW7zT1OdC6/B1Gkqf4OReQuozitljLLlwqz8bMi4R8ZCpteJ2o8ZkyShzNBtah6GGNplGOwNJC+T96//+33z55ZfJWJUQYgFatGgR3/i3/xYIX/tGCCGC3YmBvEgWWvB6PgXyDv4W/njsadZ+dyMpacu5Bhx/d4LeQ228tPlP7DjwBqSsiroekTzx1qZNFhmXCCHuVGpMFu7BoLg9JG1q7eLFi/n888+TtTohxAKzeLH/chKuppEQQojIZNpg4lZb4HUKONL+NtO/O0casGn9cnr0x7HZn4DFMoi51ZLZ1T0eMi4RQtyp1JhMOr7e3pKWkQdw/fp1vrhxI1mrE0IsEHctXkxKSuQC4kIIIYQQt4qMS4QQdxoZk905khrIA/j8iy+4ceOGpLMLcQdYtGgRixcv5mt33TXXmyKEEEIIEUDGJUKIO4GMye48SQ/kCSGEEEIIIYQQQgghkm/RXG+AEEIIIYQQQgghhBAiOgnkCSGEEEIIIYQQQgixAEggTwghhBBCCCGEEEKIBUACeUIIIYQQQgghhBBCLAASyBNCCCGEEEIIIYQQYgGQQJ4QQgghhBBCCCGEEAvA4rneACEWks+/+IIbN27w5ZdfzvWmCHHHWLRoEYsXL+Zrd90115sihBBCCCGEEHPqz7766quv5nojhFgIrl+/zhc3bsz1Zghxx7pr8WJSUlLmejOEEEIIIYQQYs7I1NoForzbQ4bVSqvVCgzN9eYsOBn6EBlWKwy3JfT6z7/4QoJ4QsyxL27c4PMvvpjrzZhXWoeZ0bXNzDSQsaubrl1WwBPz68q7PZRbrTDVnbRtEUIIIYQQQgSSQF4SdE1BhrUi7ECqvNszowBc6zD0amsBaACmuw/F9LpBIMPaxqBuDViX2UBLDdyMy8ZjPg/gWoeBZgcAXa82Ec/AVLkhQTwh5oXZ/FuMdB3M0IcSuo6Hu+YmS8OZIeoBcgtmZf3x6HVPYLcD6flJW6cKVE53VyT0eyGEEEIIIW43sxLIixbYytCHYnrSrwZVGVZrQv/dquy1AgBnERmlTVGzIjL0obiCZa3D0FBqpccJk243RfpFcrS+ORm0qPMa73snOgBOhkGgobSNdjvUn7hIlQsYPhr3eqQmnhDOt9sNAAAevElEQVTzw1z8LXZNAc2H2OAEyIvrtQ1nhugFMtZpAd9P090VviCU2X+xBP8GAZoHEtquZFPbknUfgMV0GZVZHu6/4PsCdf3ucUJaifkDrIYzQ7TbIa1kf5L3SAghhBBCiPlpVppduN73UE8f5CYn2NTjBJvmDvjZNJCzq5ue+7SQ34F3wMDNLLZk65qCqnUVQF/I7zJKm4AmAOqBGncXkOnb5p7HMileV0t9s/Xm78IPvoxBPLWPnSUWyrlIjraWESrCDm6E93gX7+qmiCYce3VIt9Dg7KK11EGNu4C5HvgKIRYG1/seoA/bg7VxvW4QKGoeoPOCDuklgP/7Iy1rNQBFEPB78H5/3a+thXTvd4f6LginuBloju0B0Yi+dVa+N84OAzSF3ZbJE7XAE4bvxcDrb4Y+BFe8mdODQLG1DfVdGrzOyRO1kFvtCx5WAVXW0O/7djs4DlwELKbH0HYvPFO4FcfuOkhdnshuCyGEEEIIccslPZA3CPRqR7E7IWPXBLgcpsuFu/E2G9TMN450cLjjGQh5MwzSgLR0C5PuajL0AjboDtMgJNwc1DQ7fAMWo84SC61ZbnJKrfS4rSHrCA40qkGQdyAVuC7wDhrV1N1iF74Bk1kAdSHJ0YfApdF5otb3eRrR8si5opO1y+Eb4N0qu12fcrLuId+/mwuhuOU9YEnAciPAtuyDgO772dgRDdbsvDUbGqNY90fcftS5vxPOedcU9GrPA4EPaswEX6+L9SF6nE2Q7r+OBjzoGo5tG2pyocZtfp3vcfYldJ2OFhyE8N/TitrfaaDh1W5f4Ky8G+7X1oYG7MbjK2sQHHT0f7d5dXR76HE2hey/CgRm3ddE8DX+2P7HYXkpE9fg7OBlqo4fZfz9TdT8uhdSVsW1fUIIIYQQQsyFpAfyOro93gyox3Qc6SVAaEAuQx+i/cqtD6TMFV/doJuZeQCTWh4QOvhSA5V6+iJm7NXkwga3m2JrG0XN1oDgpwo0qsGMGuh4A3begVvGOg3QqAc63V1Ml7jJ2dXNSGEvaSWHvIFEzIOwC0G4QGga0HOghGLrOOxaO+PPYM8n4NyoAadCfrcFeOV0Iyy1A/CKfQnYR/EABXtcQJ3pOnOAsdGdwE46PoCWsuyEt282xbo/YB6cPFYNOZWjIcvudn0KdQ8FHLuZUNvXTF1Sgk6RzvlCDWyp83OsWjc9J7c748MM8D/QaHdC1RWdIvoiPmAyC4q1DkN9swObu8v3s2mgt/8clRGmwqplgr8zgpep2tdNEX3YHtNNl4nGLDhoXH/Orm7a0WK6Rh4ZBlwajhO1N5eNvw5pvLqmAO15bBfi2/8NqzMh11vDr6wwn6z//AMaHnWw48xRUjfvm4UtFUIIIYQQIrmSGshT2Xg9TuZ1Rl0yBE/9CVYPfKjr9GoaED6zQWW9qYETLu1mFkL0DAsbMOmuprz7CTLWraUeLWLwT2XyfVjqDfyVv58/a9OP54o6jkUuLezA2wb0uKsptjLjYF7xUige9Q4kVdBtPmbPzSUV+DpWfSogSNTxAXzbpWGxJxaImGsDjZsX7LbPlAri3i46SyxQ4g4p2VDe7YHmtQFZvbHomoKG0gomT9TSOpznK5HQYb1IkUvDtjf0c6MePoA3M91xQSfcdem5bg+4NG9AcB58185Fw42qt4Zot/dB+sxq461clgJk8qfPpklNzqYJIYQQQggxq5IayOvo9mAMbEUKdpkFtsLVzolU/8c4FTTY/bFu+AyYTT9V9fk6SzKhxO3LQHQVdoHmCAkwqePUbm/C4b7INBYybgb1ovFNRXa7bxYSX5tQDaQJANc4FMb1snkl1mxG8AbzRtzV5OzKYtxqMgVMJI2za4Q9nCKn8nDAzyvXAGvuzECYmP9UZhyEn1Ib7lpb9dYQIzqQW03ZlAdOuCkutQLe67NZ8G1Sy4Og75IMfYgeAkswGKf6xlobb7ZLVpht+2zyNdY4UUvXrqM4DjxBog9j/vn/g9VMkLYiNAP9tX+8xusHG/no1NussHh4euvD7PixBvf4vyumb0Dr35/jnRNvMD7cxwoL/OiRh3HUPA93++vuqbqHO9xd/KI7lePt+5n+3buU5Wby4s9+SOqf/yD6fv8LdPz8TXrPdMHvh9j0HQsv1XyfLLs/k/Aa8Fr/xxx/7Zd8dP40aXiwb17OS3vr4N6tYZfZtH45O3eUsqLwh0BKyHbvdHdxsD+VIx2/ZHz412z6joUfbf8+tqfrICgEGstxE0IIIYQQiUtaIM84uAgWPNgxm1obqTnFfGt2kWwqs07Vr0sDJg+YT0uORGWVzNQ0wJUJuM/89zlaH2jmg0c1ZfdWU1PjIn1WgqeJqeNc3p2fcAB0Poi1Vl2kKaHB2WUrO0agbbvv33uAytHDeCf+xs4DMPaHqMuZbdvKjXUYp+sGZzqavca4H8HHxQk4s/3/Ntun4KnMie43+I9h8LFV75Ho+/umMvf7j03we6ipsgONo/xmmR6wTuNxDD7P29qANv+ywZ+l4OXDTY8225fgqebgPUer6h7i0dHDFOz5g2+f5sMUZXV9aB0uoaHUGjBN3/+Q6pLpa72lE7zXkrR0CxvSoYFaepxNMV9jzK7Dg0DVujagL6CRQyStw/BhlFp4C436zmwdhgaXlYLuSwldu3v/6Ro/e+6X9DhTIDswkFbVPcGA5uDFqtVYyhuZuJ5Cw8HTfLzFwUsnX4d7HgYg58AQRf+tjJd+XEtK/VO8PXGdqjqdFM8TFLW8jfH8TAN/qQ/wyB/P8cpPf8jE9R/i/MXbTBfv5Vf/IwXufTzstr7zL/Dklr288MC7PP03z3OdVI7/owfP73Wybi4zDvzFnm6+flyj3rkVS00j10nh+D964NqEb5ltdX1wrMK3zDVSeK37Y773Q50e52ls2lGMwbw/AT/unmBlv07TjzSup5Ty+hkPxS/uo+fapYDlYz1uQgghhBAicUkJ5Kl6Pe3OPqqu6MxFIGe+UoOxrPsgXL2j2dZxBXqtFd4MkSzzwc74FMAl0rJWe7cZyLRuDVgmUpMPXxaiSdaHccqY2b9noscJxXRR3+ygM8Gsus4Si69GYHu/dUHVblzZMcKWtu2M3QyQqCDP1eyHAgJAKqjiDfiM+l5L2/aQANnKjhHG8i/AzQCNr75d9va4g1oWYMvm/0hLPxFfb5yiHEuNvJ5PgAaNsdEXUHX3drs+paDuIQbwTtcNruEXrUaeCvwFB7ouZ29PqF7fWGUOKzlMQd12xpYdhDU7GQFayg6aBujMzkfPJzDSoZFT6d1HdS6aC3WKR7370vMJFGzUODaeHRJUK6g7xR6yGbv5Xrtdn7Ky7CHGjgBrdjJWmQOVozHXyAte3ljz0Cj4c6l+tnLjdsaOTAR83lqAluybAc8W/7ozOx6as3p9Z/HXF+XBmT0cidaUohfgk3FID/z5wBTg6sX2rLdTbrRyDvEIrgkYTrRmF+B9UPcc+0PW1ws0WP3X+XY7UNhFMtXkwof6RZ7T1tL5QHfId0/wdxgEZleuAI791cPYKn6JMXDVNQVd2n4utNjIesT/nbfyu/kUP/p1yo43srrcG5Bq/g8plPW+48u+27Aexq5ncvz5TRQ5z8Ey/za9BvRwGtteQ6Ds3nyc35vg0qk3WF0ePpB3/LyHIs+b7HxOh2Xe/dq0HrjhX39V52Uyj2v85kQtKYbasJvW+9fzs24PlmMVIcsUrc+nav3D/LXm4OTmNyH7Wd/vWoGejw9hO9Dr2+5N6+HJzDz++icbfMvHc9yEEEIIIUTikhLImwDaGadAuwi7zoX83iyDy2yAcCumwiZbuKlNal/UlNXMwtABxWwyDvrsQKd7P2Dhw26Pd9vSQ4OKRQBLs0J+PlPB066SPQ1rEma8vkSzIOdSzydA29/xyhHNFyyxAM31dpz9/VR+cAHWeANFLedG2ANY7M/4Xt/syMHZthnP1VEsa/zrHavMwRhgygH2HNnJ5TIdPvkDLI0vO+0V+xJ28x4tdQ/Rku3N5pppHcHipUBLYBDpRfsSTp5q5A/jdXGHYUeAk3W/YaBxc8B2HavMYVubhmewH4s9MJBXUHcK6gIbkQRnxqnXd5TpVI6uY1sHbEGn8nQjxmOszmXw+xcvBSr96+t0fcoedIpbDqMCksVLob/xBc7XnSKnciRgvcEBQ3WMRs7VkTNLdRzNPpcAA5U5FIw10vN6HcUtj2IMqBqPWw5A9TrOt+kh+zObArp9u2DSXQBUczbGzrLBjHVPvdl8oQ9BanKhwdlFRqkDswBdjxPI9TcuqqeJMncXObsmqHJpUYNsSlHQv6NlbxsftsTSvbwTAtanpmMGlyxwdcfXBCN89vdq3/9Vllgo1moZfEvDpkW/fquutdeAi7+dYPd/G2DTsbW8/IZOyr3e1x/+hwl20keW/UjAa213A5s38tFQG6vxABbK7KGdbjesXk4DgGcclvl/XgTYHnkaY9Dw/nuB7AKu/zFyrb+se1I5goXx998hyxAcVHdxg8DgwdOcfG5VQIDOaBzofes0ndsgJfepkN8/U5JJ8b6nuPTuIVYbAnkFgO2/PBWw3QBP2zN58ic/YPzKRbKyn43ruAkhhBBCiMQlJZBnA2wHqn2ZXMafG6eMKrFOrZ2rIFgsgvctXCdeY6Yb4+HXZ9b1MBE9Tjj7oBtKrfS4uyi2QtZ9TUS7cR7/BO6nD9IrTH8fbxdDIzVAHtFZkFNX56v+wU/ZwylY80zAzzOXAmQzck5ParDmJMA/T8DS+F+rsuNU1tvKMh3QZ6UxyMQY5PAp8UzLPP+BN8BmsTUG/PzbAIWZXDilU2wPXGcszS5ygObTO3FuHPUFMYMDXOA/lxb7YZO1eHmAk6f+J+XVas1+q5YtoQUCgrcA64OWtQCs/HZCxyhW4T6XKjvzah3AVd97bwEstrktzqmu3yPui+TsKmLDfRrB2b3mdfK8300fjnsCHoQEZOEdcAe8h+PARbqmLLCvAseB/TE92CjWh7w1VA94a6jCxKxNrS3v9lB/xUGDvZZ6mii+UsvkcFtA9+9oet3eaZxMTUB64nXRgssd+IOtfjag/kQ1xaVNTD4YfTuNXWuL1sPTFY+zbtcmVv9IY8eJVcByBjweBoCDK8tM1+H9Kp8ALFwH3hn1MH7mNO98/BF/mrrM4JkJ09fdD7As8CFaGsC/T2P8n8AWIchVtj6Fi+WNrNtTh+PgWp6pegrb1icgxbv8+BTgucSK7Pyw++4BODPN6r/JJ7iuHdycM/BAFuMfewICbmsB7l0Rsvz/lerdA8/VN8mCuI6bEEIIIYRIXFKbXZgZBDqsbXReyIL0kqCppv6buUgZApFqss1ls4vArAP1swkq3Wt9GQyu9z3U0we5FREDeTW5UOMO3f9o07LM2ADcbm9BcAZCfp9lh+Bpvg1nhrxTnww/T8tajZi/To5f5ST4AkSR7MnPoaUNHnX9nS/45OwaYQunQoJX0aZNzoQK6Kn6drvLdF45nRn3tFUIrYHnk0BM6PLVTzlJaF2+maxTURlzJ+tOcawa08DlyfGrhOb1BPoDQP8E2/oJqGOXiKv9YAymJVO0fbkMCWV2ziZvTTt3yMOogGUMNfKMVFOMevBlOjvSIct9iGJrGyPWCvOGGC5Mu2arhyaTz4773k9t32xT32ll7i4adk2QBbTvfYLydc/TeSF06qoZ9R3fC7Su06hxZzLbjYTKcqHBrtP1qhZ344ssoKgwnwENdkxdhnTvFNma70KB07xz8LcAWM7gZ/CXf9nGNz9uomjrw2xfVYDlkQLe/otv8lpdcspHGLfzrb0Pc7Z8gCOvnaB43y8p2NfE378aOEU25etfT+r7AkRbY8o3/H/xsRw3IYQQQggxM7MeyMucgl5nFuXrNDovwAAlAXV/IlHZbGYDqLludjEI9GpHeVnfineQMgRAZUkmxdZaRqwVUHKI3v5z2E0CZ+DNlKDUGrZjqqo9WE8fNs0fLOyawpfNEe+T7V73BMEhE9UBsEDfClh8tZl4VgJ589mWrGWsIrZmDJevfgoETgc1q9OmAmzNhacC6skFNy6YKWNwK5EsP7N6cr4mEGaBuChWLfPuZyK18KLp+QRO1v2MLYWb2dZ2ioEsLWomnxmVHXhsZfgGE9Go5iPLCiFgzl8SbckKv96T41fZA7D027Py3reCWa26IqDmgo7xOn52GIpoIu2B0HPtSAcuHKJqXQVZ+tqQ77Ci+zLJKNWYPEFcmXAzYXwwNU0eN3Pifdtavq6CzgtEDeap74+eE7UUl8IG3RHzQ6hEpQH1z5aQdaYXCMqET8Dqb6Rw/R9hQ54FUsJnuHWc8rD2fBOdA3pALbyBWbyz2pCewobnHudHux/nez95k4PP7qXmYgGpd+cBaVz64DSrv2t+f2UBeDCNS0PnyCq7RnBW3gTA++Nk7VyF8d7iQzDNrhz7PcA5su61AbEfNyGEEEIIMTOLZvsN0tJhUiuh19lFxjqNqnXWmxlqBVFfO/4JFNE3K3XbZkpNdUorCaxrYwPaL1RzRIOBqSFw9eJ4thazgNuH45HrBeXoQxS5tJABInizObp2reXm0Dwm4bIhzw5DPU0MPFBBhrWCqnVW2u19lI8X0Gq1ooKUYn5R0yn54ELE5dSUzGPVMDY66vuvcnSU4ADg1X8GOEXx0xpz2TE0EhWMai4E1jyalHUu+xacZDOewf6krE8ZAZwbD9JceIpXWl6A6sPeYOoHBwOW25OfE/Vcqmmx59vUmuOnsvrWbd7MbJ3fcJ9Ldd6Cp/suNKqswqTb7fuv0+2G9BIy9CGmuyuYBhpe7fY+xEk3D2g40qH+xCHONgMM0TUF5dYK0qa66dTywNlFeWkTTHWbvr7KBRnWtWRYrRH/i6VkQ4Y+ZFrTzrit95845O1KPtwWcV0qC92WW0CR/oS3jmyU1yRDTS7YtEPE+3DroxvQe/xtCnKBdG9m2SP5qzjIKsZdb0R87cWr06yAgOmy14Ej/09oreAZuxH4zxWpULT5YaY9wLU/siEV0iq+T8fBy3DV/DOTBWz6i3w6jsH14dB9+7vuCWyeN1idH5hN2At8dCqwUcl1oOHwOXZYzpGatxGI/biB934kY1c3GVYr5VZr2M+5EEIIIYQINeuBPKX9sTxUPaEGgOHQKZ/BGs4MhW3MMBPl3R4yrNaEBxddU1DUfAjHXvPpI450KHMfomrfBO32Psh9Iuy6zKa5qm2k2UHnidqQDAhHOvS4D1HlqqXVupZYA22+moNBnfwazgxQpm/FkZ7HpPsQk243jgNu0+0S88eja4DCRnaX6fCJK+ryE2MAn8a07pFz/iyi3a5PE87GGwE6sg8SHHhSWWpmwbhC2xJOspmRrsiZdf39wCf/0/c+BdkHoT/0Nao2m7Mf+OA3pusqXgpUP2MaZEuUB9i2x8UWdIrrG4ElHKvMAbzNL4zHJNy5VF1rlWZHDi1spmfPdmI9l8Hbswc9oOkJ+BtMdLYR02cpknD7UtAxwpb+OnIcjeFfnKAMfWjOgwEqs3nC3efLSgv3EEfxl1TIY/wT6KXP28EWGNHy6LXrDL5l3gW+3Q6T7osBAUWz/+pPhM+GGwQyrG20X3FQ475IpCmwNbnQfsFNRuklBnXz4KDKVC+7man+cokF7DqtpU3MlwdCZy9NcPb8OXrPn+Nnh37N9zZVUHB5L9tfrEVN+9yRDTbnfv5iTx+v/aSMs+f7OHv+HEf6z/Hk800w/CoAZXnLacXCa3X7OHu+j97z59iy61U2/evbSd/uKpeH1upNnP2Hbs6eP8fB/nP0tu7n+xUWSM0nBfjbmny6ltXyWKlG7+t/5dvPqpd/Db/1bvNL2zKZeETne6VNdOkVnD3/Lr3nz/HYT95kQHPQrucHdKwFb8bpk0OpHNlX5lv+e7tehUNlVOwtgXsejuu4gfdBZTsak+6L9Dq7aF2nMV8+I0IIIYQQ892sT601dgJUxbnLuyGjdC1qalJwQWvwD4o2OCHZ9XV63RPeekYxZAWacaSDw+3fXpXpZnRkGHBpOE74B3L3Z1m8U1Tw11WqDMqOA28Qr1dby4i+1TetytgB0agByNoV2mTDTLipXpOatztjsF73RNhpwcJLTUWFU76fqUYOW/BP1fRN+zQEmpyAM9tb4+1YtX+6pNk0VrN1WoCxFju7Xf+RlRsfwjilNHi55no7zo39vvczMjZtqFwDlxvfY1vdQ746bMeqofD06M399Ip1f3IARneyMvsgEFjLzzstNnTaYfFS4LTOto1aQC04NY3WAhxrsbMte8JX024LMHa6kZVdh2EstGag6py7suwhVO2/4KnFY5U5dOSPsrIsm+D6gGZNOcy61jYXQnHLe3hY4js+LzZu9k3XVR2AW8p0yN7ue/9w57K5EHJa3gs4NutGdQr2uELOpXpvY6bdtjYCjuGxashpMZ+WO1aZw0oOs3Lj9oD3V+s0q51oXL/6HKl9Wdnx7dB1jQZuXzKo62+k7LeZyFoKsJXp8Uuk5YZfrqPbAzRhe7CWjvc9Nx/i+DO2i6yZjDdDuGL/vjqlNx/8zHYnbeP3TFqEDrZGjnQocB/yfhdZrSFlLzq6PdTTRFqJN3srDWjfW0KVq5cNugOsF2kAGqxh6sclaVa7P5s/uF8vbHv+18CvAVhhgZe2PsyOmiNg8X92UoD/quXx2nfe4VDHLxk/UkEasHb9cp7emg8rHwfgR+tTuK4fpbV9P9PHKnB8x8KvnnuKrm/ug1+9mZyduWnDilQO9+fT8FQjMEFRbiYnq7ayelsjqpus7W74H29Wc/D1FTx3+A2mf1eG7V545MGtsMzbJCQLeK+lhF+sX07DYZ3x5qfJAsq25fG3PXtJ/fPQz9v9wAuNT9Nw4I90Ve8nzfMx9s3Lqf/NPlK/+4O4j1vw7ID6By182MyMm6MIIYQQQtwp/uyrr776KlkrM9atO/ug2zelJ1yRcAgM9IH3yW/nBZ3y9/NBW0vnBd20Jk+0GnnhushGe1081EBIUfsZrkFFcG0lta/G/Qtep1E9hEx9UutUHQ2N+6p+N6JfgpJDIfutuhmaHWPja9NKDoUNJMbDLGB7K8yk467yvz77LOnbdauoAExzoR4S6FENI2LpwCoWDnXOj1XrCdfTm8/+3d13+/4/+FqVCGPX8Hivy0aRrnFmtfWMzN7XTLzXswx9iPpmR8B3R4Y+RFGzI+r3a6T3CP6eU8fQ7Pu+vNvDyxzlOQq4X3OYTuE1fmcPYol4rCLdU6htr3dpYacKi9gFNvVK3rE0nu8MfSLkMyqEEEIIIcJLakaeMYPAhnkX1mDB2W2gstW6vRlpMXTJg8CBmG/dJ0KnNakpT7E024gmXKfdqreGaLf3YdMuBvxc1VYyy36Lts5wVE0+9l3y/cw4YCwC0h7QaR2GIpeGba8/WFOTCxnOLjLWOYDQAF27HdJKvPswk+wQf7BWzIXzHwDopnXRVi1bwsm52CghkiRSU4lYhesarsR7XTYTy/U/GcyCjmW+pkxek1oezPBBlvG7u2sKGkor6HFiGmDrLLEA1dAde01XCA2Mmn2XZOhD0ByY4WfWfETMLyNaHjm7dKqsa+V8CSGEEELEKakZeQtBtE6xt6sMfYgR66E5yYi7HSzkjLxwnWjV9Ngt/XWz0q1VzJ07KSOvvNuDvX9twtm2IlQiWX89zH53WnHrzVZGnhBCCCGESNwdF8gTIhELOZAHmNY3A/O6amLhu5MCeUKI2SOBPCGEEEKI+WfWm10IcTtYtGgRX3755VxvRsJygLHRncDOaIuK28DtfL4XLbplzdaFEEIIIYQQYt6RjDwhYvD5F1/w+eefz/VmCHHH+9rXvsbX7rprrjdDCCGEEEIIIeaEpDYIEYOv3XUXdy2WBFYh5tJdixdLEE8IIYQQQghxR5OMPCHi8PkXX3Djxo0FPc1WiIVm0aJFLJYgnhBCCCGEEEJIIE8IIYQQQgghhBBCiIVAptYKIYQQQgghhBBCCLEASCBPCCGEEEIIIYQQQogFQAJ5QgghhBBCCCGEEEIsABLIE0IIIYQQQgghhBBiAZBAnhBCCCGEEEIIIYQQC4AE8oQQQgghhBBCCCGEWAAkkCeEEEIIIYQQQgghxAIggTwhhBBCCCGEEEIIIRYACeQJIYQQQgghhBBCCLEASCBPCCGEEEIIIYQQQogFQAJ5QgghhBBCCCGEEEIsABLIE0IIIYQQQgghhBBiAZBAnhBCCCGEEEIIIYQQC4AE8oQQQgghhBBCCCGEWAAkkCeEEEIIIYQQQgghxAIggTwhhBBCCCGEEEIIIRYACeQJIYQQQgghhBBCCLEASCBPCCGEEEIIIYQQQogFQAJ5QgghhBBCCCGEEEIsABLIE0IIIYQQQgghhBBiAZBAnhBCCCGEEEIIIYQQC4AE8oQQQgghhBBCCCGEWAAkkCeEEEIIIYQQQgghxAIggTwhhBBCCCGEEEIIIRYACeQJIYQQQgghhBBCCLEASCBPCCGEEEIIIYQQQogF4P8AyKU2aWPhBcYAAAAASUVORK5CYII=;" vertex="1" parent="1">
          <mxGeometry x="17.179999999999993" y="2080" width="825.65" height="90" as="geometry" />
        </mxCell>
        <mxCell id="BVHzjgU8pjvCvItrUbvP-36" value="SpringMvc再说" style="whiteSpace=wrap;html=1;verticalAlign=top;labelBackgroundColor=default;sketch=1;hachureGap=4;jiggle=2;curveFitting=1;fontFamily=Architects Daughter;fontSource=https%3A%2F%2Ffonts.googleapis.com%2Fcss%3Ffamily%3DArchitects%2BDaughter;fontSize=20;" vertex="1" parent="1">
          <mxGeometry x="370.005" y="2265" width="120" height="60" as="geometry" />
        </mxCell>
      </root>
    </mxGraphModel>
  </diagram>
</mxfile>
